<?xml version="1.0" encoding="UTF-8" standalone="no" ?>
<!DOCTYPE svg PUBLIC "-//W3C//DTD SVG 1.1//EN" "http://www.w3.org/Graphics/SVG/1.1/DTD/svg11.dtd">
<svg xmlns="http://www.w3.org/2000/svg" xmlns:xlink="http://www.w3.org/1999/xlink" version="1.1" width="1080" height="1080" viewBox="0 0 1080 1080" xml:space="preserve">
<desc>Created with Fabric.js 5.2.4</desc>
<defs>
</defs>
<g transform="matrix(1 0 0 1 540 540)" id="eeceebd3-5fc3-4c26-a019-4265981d0dee"  >
<rect style="stroke: none; stroke-width: 1; stroke-dasharray: none; stroke-linecap: butt; stroke-dashoffset: 0; stroke-linejoin: miter; stroke-miterlimit: 4; fill: rgb(255,255,255); fill-rule: nonzero; opacity: 1; visibility: hidden;" vector-effect="non-scaling-stroke"  x="-540" y="-540" rx="0" ry="0" width="1080" height="1080" />
</g>
<g transform="matrix(1 0 0 1 540 540)" id="64f3e6a1-e695-4a7a-96fe-7084940714c8"  >
</g>
<g transform="matrix(14.27 0 0 14.27 540 540)"  >
<path style="stroke: none; stroke-width: 1; stroke-dasharray: none; stroke-linecap: butt; stroke-dashoffset: 0; stroke-linejoin: miter; stroke-miterlimit: 4; fill: rgb(0,0,0); fill-rule: nonzero; opacity: 1;" vector-effect="non-scaling-stroke"  transform=" translate(-30.07, -20.16)" d="M 0.071 0.917 C 0.071 0.413 0.483 0 0.988 0 L 37.176 0 C 37.68 0 38.092 0.413 38.092 0.917 L 38.092 25.677000000000003 C 38.092 26.183000000000003 37.68 26.593000000000004 37.176 26.593000000000004 L 0.988 26.593000000000004 C 0.483 26.593000000000004 0.07099999999999995 26.183000000000003 0.07099999999999995 25.677000000000003 L 0.07099999999999995 0.917 z M 15.222 31.814 C 15.222 32.318 15.635 32.73 16.139 32.73 L 37.176 32.73 C 37.68 32.73 38.092 32.318 38.092 31.813999999999997 L 38.092 29.635999999999996 C 38.092 29.131999999999994 37.68 28.719999999999995 37.176 28.719999999999995 L 16.139 28.719999999999995 C 15.636 28.719999999999995 15.222 29.131999999999994 15.222 29.635999999999996 L 15.222 31.814 z M 46.688 29.308 C 43.648 29.308 41.186 31.775 41.185 34.81 C 41.185 37.849000000000004 43.648 40.314 46.688 40.314 C 49.727000000000004 40.314 52.190000000000005 37.849000000000004 52.190000000000005 34.81 C 52.189 31.775 49.727 29.308 46.688 29.308 L 46.688 29.308 z M 7.829 29.308 C 4.789999999999999 29.308 2.327 31.775 2.327 34.81 C 2.327 37.849000000000004 4.79 40.314 7.829 40.314 C 10.867999999999999 40.314 13.331 37.849000000000004 13.331 34.81 C 13.332 31.775 10.868 29.308 7.829 29.308 L 7.829 29.308 z M 60.071 21.47 L 60.071 33.620999999999995 C 60.071 34.126999999999995 59.658 34.538999999999994 59.153999999999996 34.538999999999994 L 56.306 34.538999999999994 C 55.803 34.538999999999994 55.212999999999994 34.21699999999999 55.035 33.693 C 54.711999999999996 32.738 54.062 26.558 47.221999999999994 26.558 L 41.336999999999996 26.558 C 40.833 26.558 40.419 26.146 40.419 25.64 L 40.419 7.604 C 40.419 7.099 40.833 6.687 41.336999999999996 6.687 L 50.983 6.687 L 50.983 6.687 C 51.486999999999995 6.687 52.11 7.043 52.366 7.478000000000001 L 59.604 19.764 C 59.862 20.198 60.071 20.966 60.071 21.47 z M 54.565 16.696 L 50.649 10.024000000000001 C 50.306 9.444 50.103 9.216000000000001 49.659 9.216000000000001 L 44.155 9.216000000000001 C 43.712 9.216000000000001 43.352000000000004 9.575000000000001 43.352000000000004 10.019000000000002 L 43.352000000000004 17.057000000000002 C 43.352000000000004 17.501 43.711000000000006 17.861 44.155 17.861 L 53.975 17.861 C 54.603 17.861 54.979 17.4 54.565 16.696 z" stroke-linecap="round" />
</g>
</svg>