<?xml version="1.0" encoding="UTF-8" standalone="no" ?>
<!DOCTYPE svg PUBLIC "-//W3C//DTD SVG 1.1//EN" "http://www.w3.org/Graphics/SVG/1.1/DTD/svg11.dtd">
<svg xmlns="http://www.w3.org/2000/svg" xmlns:xlink="http://www.w3.org/1999/xlink" version="1.1" width="1080" height="1080" viewBox="0 0 1080 1080" xml:space="preserve">
<desc>Created with Fabric.js 5.2.4</desc>
<defs>
</defs>
<rect x="0" y="0" width="100%" height="100%" fill="transparent"></rect>
<g transform="matrix(1 0 0 1 540 540)" id="eeceebd3-5fc3-4c26-a019-4265981d0dee"  >
<rect style="stroke: none; stroke-width: 1; stroke-dasharray: none; stroke-linecap: butt; stroke-dashoffset: 0; stroke-linejoin: miter; stroke-miterlimit: 4; fill: rgb(255,255,255); fill-rule: nonzero; opacity: 1; visibility: hidden;" vector-effect="non-scaling-stroke"  x="-540" y="-540" rx="0" ry="0" width="1080" height="1080" />
</g>
<g transform="matrix(1 0 0 1 540 540)" id="64f3e6a1-e695-4a7a-96fe-7084940714c8"  >
</g>
<g transform="matrix(9.68 0 0 9.68 419.91 530.25)"  >
<path style="stroke: none; stroke-width: 1; stroke-dasharray: none; stroke-linecap: butt; stroke-dashoffset: 0; stroke-linejoin: miter; stroke-miterlimit: 4; fill: rgb(0,0,0); fill-rule: nonzero; opacity: 1;" vector-effect="non-scaling-stroke"  transform=" translate(-38.38, -48.21)" d="M 61.594 69.094 C 63.7034 69.094 65.6878 69.57838 67.4846 70.4221 L 67.4846 56.5941 C 67.4846 53.4691 64.9534 50.9535 61.844 50.9535 L 54.4534 50.9535 L 43.531400000000005 27.8285 C 42.60952 26.0473 40.781400000000005 24.9223 38.781400000000005 24.9223 L 18.859400000000004 24.9223 C 16.718800000000005 24.9223 14.968800000000005 26.6567 14.968800000000005 28.8129 L 14.968800000000005 50.9539 L 12.687600000000005 50.9539 C 10.797000000000004 50.9539 9.265700000000006 52.485099999999996 9.265700000000006 54.3758 L 9.265700000000006 71.5008 C 11.484500000000006 69.98519999999999 14.171900000000006 69.11019999999999 17.046900000000008 69.11019999999999 L 61.608900000000006 69.11019999999999 z M 58.1252 60.906499999999994 C 58.1252 59.281499999999994 59.4377 57.968999999999994 61.0627 57.968999999999994 L 64.3439 57.968999999999994 L 64.3439 65.1878 L 61.06270000000001 65.1878 C 59.43770000000001 65.1878 58.12520000000001 63.875299999999996 58.12520000000001 62.250299999999996 z M 25.578200000000002 64.06269999999999 C 25.578200000000002 64.92208 24.875080000000004 65.62519999999999 24.015700000000002 65.62519999999999 C 23.15632 65.62519999999999 22.453200000000002 64.92208 22.453200000000002 64.06269999999999 L 22.453200000000002 58.79709999999999 C 22.453200000000002 57.93771999999999 23.15632 57.23459999999999 24.015700000000002 57.23459999999999 C 24.875080000000004 57.23459999999999 25.578200000000002 57.93771999999999 25.578200000000002 58.79709999999999 z M 31.187600000000003 64.06269999999999 C 31.187600000000003 64.92208 30.484480000000005 65.62519999999999 29.625100000000003 65.62519999999999 C 28.76572 65.62519999999999 28.062600000000003 64.92208 28.062600000000003 64.06269999999999 L 28.062600000000003 58.79709999999999 C 28.062600000000003 57.93771999999999 28.76572 57.23459999999999 29.625100000000003 57.23459999999999 C 30.484480000000005 57.23459999999999 31.187600000000003 57.93771999999999 31.187600000000003 58.79709999999999 z M 43.6876 50.43769999999999 C 43.8751 50.297079999999994 44.03135 50.14081999999999 44.171980000000005 49.96894999999999 C 44.03136000000001 50.140829999999994 43.8751 50.29706999999999 43.6876 50.43769999999999 z M 44.609480000000005 49.12519999999999 C 44.671980000000005 48.89081999999999 44.703230000000005 48.65644999999999 44.703230000000005 48.40644999999999 C 44.703230000000005 48.65644999999999 44.671980000000005 48.890829999999994 44.609480000000005 49.12519999999999 z M 44.265730000000005 49.82831999999999 C 44.390730000000005 49.65643999999999 44.484480000000005 49.46893999999999 44.546980000000005 49.26581999999999 C 44.468855000000005 49.46893999999999 44.3751 49.65643999999999 44.265730000000005 49.82831999999999 z M 22.406730000000003 32.87531999999999 C 22.406730000000003 31.98469999999999 23.125480000000003 31.265919999999987 24.016130000000004 31.265919999999987 L 35.68813 31.265919999999987 C 36.57875 31.265919999999987 37.42253 31.75029999999999 37.86003 32.51591999999999 L 44.36003 47.156919999999985 C 44.57878 47.531919999999985 44.67253 47.922539999999984 44.68815 48.313119999999984 L 35.93815 42.375619999999984 L 36.9069 40.938119999999984 C 37.39128 40.219369999999984 37.20378 39.250619999999984 36.48502 38.76621999999998 C 35.766259999999996 38.28181999999998 34.79752 38.46933999999998 34.31312 39.188099999999984 L 30.65692 44.609999999999985 C 30.172539999999998 45.328749999999985 30.360039999999998 46.297499999999985 31.0788 46.781899999999986 C 31.34442 46.969399999999986 31.65692 47.047519999999984 31.9538 47.047519999999984 C 32.4538 47.047519999999984 32.9538 46.81313999999998 33.2507 46.360019999999984 L 34.1882 44.969419999999985 L 42.8601 50.844419999999985 C 43.14135 50.766294999999985 43.39135 50.64129999999999 43.6101 50.485039999999984 C 43.219480000000004 50.766289999999984 42.7351 50.93815999999998 42.1882 50.93815999999998 L 24.0162 50.93815999999998 C 23.125580000000003 50.93815999999998 22.4068 50.21940999999998 22.4068 49.32875999999998 z M 16.844230000000003 58.797319999999985 C 16.844230000000003 57.93793999999998 17.54735 57.234819999999985 18.406730000000003 57.234819999999985 C 19.266110000000005 57.234819999999985 19.969230000000003 57.93793999999998 19.969230000000003 58.797319999999985 L 19.969230000000003 64.06291999999999 C 19.969230000000003 64.92229999999999 19.266110000000005 65.62541999999999 18.406730000000003 65.62541999999999 C 17.54735 65.62541999999999 16.844230000000003 64.92229999999999 16.844230000000003 64.06291999999999 z" stroke-linecap="round" />
</g>
<g transform="matrix(9.68 0 0 9.68 861.62 642.61)"  >
<path style="stroke: none; stroke-width: 1; stroke-dasharray: none; stroke-linecap: butt; stroke-dashoffset: 0; stroke-linejoin: miter; stroke-miterlimit: 4; fill: rgb(0,0,0); fill-rule: nonzero; opacity: 1;" vector-effect="non-scaling-stroke"  transform=" translate(-84.01, -59.82)" d="M 91.375 52.75 L 84.4844 52.75 C 83.56251999999999 52.75 82.6875 53.1875 82.15629999999999 53.9375 L 75.03129999999999 64.2655 C 74.26567999999999 65.3749 75.06254999999999 66.8905 76.40629999999999 66.8905 L 83.7969 66.8905 C 89.03129999999999 66.8905 93.28129999999999 62.6405 93.28129999999999 57.4061 L 93.28129999999999 54.6561 C 93.28129999999999 53.6092 92.42191999999999 52.749900000000004 91.37509999999999 52.749900000000004 z" stroke-linecap="round" />
</g>
<g transform="matrix(9.68 0 0 9.68 429.14 866.84)"  >
<path style="stroke: none; stroke-width: 1; stroke-dasharray: none; stroke-linecap: butt; stroke-dashoffset: 0; stroke-linejoin: miter; stroke-miterlimit: 4; fill: rgb(0,0,0); fill-rule: nonzero; opacity: 1;" vector-effect="non-scaling-stroke"  transform=" translate(-39.33, -82.98)" d="M 61.594 72.219 L 17.047000000000004 72.219 C 11.093900000000005 72.219 6.281000000000004 77.0315 6.281000000000004 82.985 C 6.281000000000004 88.9385 11.093500000000004 93.751 17.047000000000004 93.751 L 61.609 93.751 C 67.5621 93.751 72.375 88.9385 72.375 82.985 C 72.375 77.0315 67.5625 72.219 61.609 72.219 z M 60.95338 89.68799999999999 L 17.687380000000005 89.68799999999999 C 13.984280000000005 89.68799999999999 10.984280000000005 86.67239999999998 10.984280000000005 82.98489999999998 C 10.984280000000005 79.29739999999998 13.999880000000005 76.28179999999998 17.687380000000005 76.28179999999998 L 60.95338 76.28179999999998 C 64.65648 76.28179999999998 67.65648 79.29739999999998 67.65648 82.98489999999998 C 67.65648 86.67239999999998 64.64088 89.68799999999999 60.95338 89.68799999999999 z" stroke-linecap="round" />
</g>
<g transform="matrix(9.68 0 0 9.68 219.67 866.69)"  >
<path style="stroke: none; stroke-width: 1; stroke-dasharray: none; stroke-linecap: butt; stroke-dashoffset: 0; stroke-linejoin: miter; stroke-miterlimit: 4; fill: rgb(0,0,0); fill-rule: nonzero; opacity: 1;" vector-effect="non-scaling-stroke"  transform=" translate(-17.69, -82.97)" d="M 17.688 79.391 C 15.703599999999998 79.391 14.1099 81.0004 14.1099 82.96910000000001 C 14.1099 84.93780000000002 15.7193 86.54720000000002 17.688 86.54720000000002 C 19.656699999999997 86.54720000000002 21.266099999999998 84.93780000000002 21.266099999999998 82.96910000000001 C 21.266099999999998 81.0004 19.656699999999997 79.391 17.688 79.391 z" stroke-linecap="round" />
</g>
<g transform="matrix(9.68 0 0 9.68 638.46 866.69)"  >
<path style="stroke: none; stroke-width: 1; stroke-dasharray: none; stroke-linecap: butt; stroke-dashoffset: 0; stroke-linejoin: miter; stroke-miterlimit: 4; fill: rgb(0,0,0); fill-rule: nonzero; opacity: 1;" vector-effect="non-scaling-stroke"  transform=" translate(-60.95, -82.97)" d="M 60.953 79.391 C 58.9686 79.391 57.374900000000004 81.0004 57.374900000000004 82.96910000000001 C 57.374900000000004 84.93780000000002 58.984300000000005 86.54720000000002 60.953 86.54720000000002 C 62.9217 86.54720000000002 64.53110000000001 84.93780000000002 64.53110000000001 82.96910000000001 C 64.53110000000001 81.0004 62.92170000000001 79.391 60.95300000000001 79.391 z" stroke-linecap="round" />
</g>
<g transform="matrix(9.68 0 0 9.68 729.44 326.89)"  >
<path style="stroke: none; stroke-width: 1; stroke-dasharray: none; stroke-linecap: butt; stroke-dashoffset: 0; stroke-linejoin: miter; stroke-miterlimit: 4; fill: rgb(0,0,0); fill-rule: nonzero; opacity: 1;" vector-effect="non-scaling-stroke"  transform=" translate(-70.35, -27.2)" d="M 46.297 26.391 L 51.187599999999996 36.75 L 82.4846 18.312 C 82.87522 18.65575 83.31272 18.95262 83.7658 19.20262 L 83.7658 49.71862 C 84.00018 49.68737 84.23455 49.640495 84.48455 49.640495 L 91.37515 49.640495 C 91.4689 49.640495 91.56265 49.65612 91.6564 49.671745 L 91.6564 18.999745 C 93.8283 17.624745 95.2814 15.218545 95.2814 12.452845 C 95.2814 8.171645 91.79700000000001 4.687245 87.5158 4.687245 C 83.7346 4.687245 80.5783 7.406045 79.9064 10.999745 L 45.4224 25.046745 C 45.75052 25.468625000000003 46.0474 25.906125000000003 46.2974 26.390545000000003 z M 87.531 7.812999999999999 C 90.0935 7.812999999999999 92.17160000000001 9.891099999999998 92.17160000000001 12.453599999999998 C 92.17160000000001 15.016099999999998 90.0935 17.094199999999997 87.531 17.094199999999997 C 84.9685 17.094199999999997 82.8904 15.016099999999998 82.8904 12.453599999999998 C 82.8904 9.891099999999998 84.9685 7.812999999999998 87.531 7.812999999999998 z" stroke-linecap="round" />
</g>
</svg>