<?xml version="1.0" encoding="UTF-8" standalone="no" ?>
<!DOCTYPE svg PUBLIC "-//W3C//DTD SVG 1.1//EN" "http://www.w3.org/Graphics/SVG/1.1/DTD/svg11.dtd">
<svg xmlns="http://www.w3.org/2000/svg" xmlns:xlink="http://www.w3.org/1999/xlink" version="1.1" width="1080" height="1080" viewBox="0 0 1080 1080" xml:space="preserve">
<desc>Created with Fabric.js 5.2.4</desc>
<defs>
</defs>
<rect x="0" y="0" width="100%" height="100%" fill="transparent"></rect>
<g transform="matrix(1 0 0 1 540 540)" id="eeceebd3-5fc3-4c26-a019-4265981d0dee"  >
<rect style="stroke: none; stroke-width: 1; stroke-dasharray: none; stroke-linecap: butt; stroke-dashoffset: 0; stroke-linejoin: miter; stroke-miterlimit: 4; fill: rgb(255,255,255); fill-rule: nonzero; opacity: 1; visibility: hidden;" vector-effect="non-scaling-stroke"  x="-540" y="-540" rx="0" ry="0" width="1080" height="1080" />
</g>
<g transform="matrix(1 0 0 1 540 540)" id="64f3e6a1-e695-4a7a-96fe-7084940714c8"  >
</g>
<g transform="matrix(9.94 0 0 9.94 540 540)"  >
<path style="stroke: none; stroke-width: 1; stroke-dasharray: none; stroke-linecap: butt; stroke-dashoffset: 0; stroke-linejoin: miter; stroke-miterlimit: 4; fill: rgb(0,0,0); fill-rule: nonzero; opacity: 1;" vector-effect="non-scaling-stroke"  transform=" translate(-50, -50)" d="M 73 27.5 C 73 28.6 72.1 29.5 71 29.5 L 68.6 29.5 L 67.6 25.5 L 71 25.5 C 72.1 25.5 73 26.4 73 27.5 z M 11 35.5 L 25 35.5 L 25 31.5 L 9 31.5 C 7.9 31.5 7 32.4 7 33.5 L 7 37.5 C 7 38.6 7.9 39.5 9 39.5 C 10.1 39.5 11 38.6 11 37.5 L 11 35.5 z M 57.6 40.1 C 58.4 39.300000000000004 59.6 39.300000000000004 60.4 40.1 C 61.199999999999996 40.9 61.199999999999996 42.1 60.4 42.9 L 57.8 45.5 L 68.39999999999999 45.5 L 63.39999999999999 25.5 L 49.6 25.5 L 54.1 43.6 L 57.6 40.1 z M 45.4 25.5 L 29 25.5 L 29 31.5 L 37 31.5 C 38.1 31.5 39 32.4 39 33.5 C 39 34.6 38.1 35.5 37 35.5 L 29 35.5 L 29 45.5 L 50.4 45.5 L 45.4 25.5 z M 70.1 58.3 C 70.1 58.3 70 58.3 70 58.199999999999996 C 69.9 58.199999999999996 69.9 58.099999999999994 69.8 58.099999999999994 C 69.7 58.099999999999994 69.7 57.99999999999999 69.6 57.99999999999999 C 69.6 57.99999999999999 69.5 57.89999999999999 69.5 57.89999999999999 C 69.5 57.89999999999999 69.4 57.79999999999999 69.4 57.69999999999999 C 69.4 57.59999999999999 69.30000000000001 57.59999999999999 69.30000000000001 57.499999999999986 C 69.30000000000001 57.399999999999984 69.20000000000002 57.399999999999984 69.20000000000002 57.29999999999998 C 69.20000000000002 57.19999999999998 69.10000000000002 57.19999999999998 69.10000000000002 57.09999999999998 C 69.10000000000002 56.99999999999998 69.10000000000002 56.99999999999998 69.00000000000003 56.89999999999998 C 69.00000000000003 56.799999999999976 69.00000000000003 56.799999999999976 69.00000000000003 56.699999999999974 C 69.00000000000003 56.59999999999997 69.00000000000003 56.59999999999997 69.00000000000003 56.49999999999997 C 69.00000000000003 56.49999999999997 69.00000000000003 56.39999999999997 69.00000000000003 56.39999999999997 L 69.00000000000003 49.39999999999997 L 11 49.39999999999997 L 11 59 C 12.9 57.4 15.3 56.5 18 56.5 C 23.4 56.5 27.9 60.4 28.8 65.5 L 43.2 65.5 C 44.2 60.4 48.6 56.5 54 56.5 C 59.4 56.5 63.9 60.4 64.8 65.5 L 73 65.5 L 73 59.7 L 71.6 59 L 70.1 58.3 z M 77 61.7 L 77 74.5 L 93 74.5 L 93 69.7 L 77 61.7 z M 18 60.5 C 14.1 60.5 11 63.6 11 67.5 C 11 71.4 14.1 74.5 18 74.5 C 21.9 74.5 25 71.4 25 67.5 C 25 63.599999999999994 21.9 60.5 18 60.5 z M 54 60.5 C 50.1 60.5 47 63.6 47 67.5 C 47 71.4 50.1 74.5 54 74.5 C 57.9 74.5 61 71.4 61 67.5 C 61 63.599999999999994 57.9 60.5 54 60.5 z" stroke-linecap="round" />
</g>
</svg>