<svg width="120" height="120" viewBox="0 0 120 120" fill="none" xmlns="http://www.w3.org/2000/svg">
<g filter="url(#filter0_d_1_28)">
<g clip-path="url(#clip0_1_28)">
<rect x="10" y="6" width="100" height="100" rx="5" fill="#535626"/>
<g filter="url(#filter1_d_1_28)">
<g clip-path="url(#clip1_1_28)">
<g filter="url(#filter2_d_1_28)">
<path d="M20 48.5625V62C20 63.1046 20.8954 64 22 64H47.375H72.75C73.8546 64 74.75 63.1046 74.75 62V48.5625V35.125C74.75 34.0204 73.8546 33.125 72.75 33.125H47.375H22C20.8954 33.125 20 34.0204 20 35.125V48.5625Z" fill="#E9E1D7"/>
<path d="M77 54.3125V64.125C77 65.2296 76.1046 66.125 75 66.125H51.75H28.5C27.3954 66.125 26.5 67.0204 26.5 68.125V68.9375V69.75C26.5 70.8546 27.3954 71.75 28.5 71.75H29.2375H30.8225C31.4639 71.75 31.9953 72.2475 32.0375 72.8875V72.8875C32.1125 73.95 32.325 74.975 32.5 75.125C32.5375 75.1625 32.675 75.425 32.8 75.7125C32.925 76 33.1125 76.2625 33.2 76.3C33.3 76.3375 33.375 76.4375 33.375 76.525C33.375 76.6125 33.6 76.8875 33.8875 77.125C34.1625 77.3625 34.4875 77.65 34.6 77.75C34.9875 78.0875 36.1 78.6 36.7875 78.75C37.2125 78.85 38 78.8875 38.825 78.85C40.025 78.8 40.2875 78.75 41.0375 78.3875C41.5 78.175 42 77.9 42.15 77.775C43.8625 76.3875 44.75 74.5875 44.75 72.475V72.475C44.75 72.0746 45.0746 71.75 45.475 71.75H47.75H49.725C50.2911 71.75 50.75 72.2089 50.75 72.775V72.775C50.75 73.775 51 75.0875 51.225 75.2375C51.275 75.275 51.4 75.5125 51.5 75.75C51.6 75.9875 51.7875 76.3125 51.925 76.4625C52.075 76.6125 52.275 76.8375 52.3875 76.9625C52.8375 77.475 53.5875 78.0375 54.05 78.225C54.2312 78.288 54.3975 78.3659 54.5051 78.4243C54.5883 78.4695 54.6527 78.542 54.7359 78.5872C55.0976 78.7838 56.1309 78.8939 57.3375 78.85C58.725 78.8 58.875 78.775 59.7625 78.35C60.4375 78.025 60.95 77.65 61.5375 77.0625C62 76.6125 62.375 76.1875 62.375 76.1125C62.375 76.0375 62.45 75.9125 62.5375 75.825C62.625 75.725 62.775 75.4125 62.875 75.1125C62.975 74.8125 63.1125 74.525 63.175 74.475C63.25 74.425 63.325 73.8 63.35 73.075V73.075C63.3779 72.3353 63.9857 71.75 64.7259 71.75H70.7H77.25C77.6642 71.75 78 72.0858 78 72.5V72.5C78 72.9125 78.05 73.35 78.1125 73.475C78.1625 73.5875 78.3125 74.075 78.425 74.5375C78.525 75.0125 78.7125 75.475 78.8125 75.575C78.9125 75.6875 79 75.85 79 75.9375C79 76.0375 79.3625 76.4625 79.8 76.9C80.7625 77.8625 80.8625 77.9375 81.4625 78.2125C81.725 78.3375 81.9625 78.475 82 78.5125C82.2875 78.8375 85.1875 79 86.1875 78.7375C86.675 78.6125 87.875 78.0375 88 77.875C88.0375 77.825 88.2375 77.6875 88.4375 77.575C88.8375 77.3375 89.875 76.125 89.875 75.8875C89.875 75.8125 89.925 75.75 90 75.75C90.0625 75.75 90.2125 75.425 90.325 75.025C90.4375 74.6375 90.575 74.25 90.6375 74.175C90.7 74.1 90.7875 73.525 90.8375 72.8875V72.8875C90.8797 72.2475 91.4111 71.75 92.0525 71.75H95.45H98C99.1046 71.75 100 70.8546 100 69.75V63.3C100 54.8875 100 54.8375 99.725 54.075C99.575 53.65 99.3875 53.25 99.3 53.1625C99.225 53.0875 99.0875 52.7625 99 52.45C98.9125 52.1375 98.8 51.875 98.75 51.875C98.7 51.875 98.5625 51.5625 98.4375 51.1875C98.3 50.8125 98.1625 50.5 98.125 50.5C98.0875 50.5 97.975 50.2875 97.8875 50.025C97.7375 49.6125 97.5375 49.1625 96.75 47.4375C96.625 47.1625 96.4 46.65 96.25 46.3125C96.1 45.9625 95.875 45.4625 95.75 45.1875C94.95 43.425 94.775 43.0375 94.7 42.775V42.775C94.6479 42.6112 94.4958 42.5 94.3239 42.5H85.8H79C77.8954 42.5 77 43.3954 77 44.5V54.3125ZM92.2375 46.6875C92.3375 46.8875 92.45 47.0875 92.4875 47.125C92.525 47.1625 92.675 47.5125 92.8 47.9C92.9375 48.3 93.0875 48.625 93.1375 48.625C93.1875 48.625 93.2625 48.7625 93.3 48.9375C93.35 49.1125 93.55 49.625 93.75 50.0625C93.95 50.5 94.15 51.0125 94.2 51.1875C94.2375 51.3625 94.325 51.5 94.375 51.5C94.425 51.5 94.5625 51.8125 94.6875 52.1875C94.8 52.5625 94.95 52.9 95 52.9375C95.0625 52.975 95.2 53.3 95.325 53.65C95.4375 54.0125 95.6125 54.3875 95.7125 54.475C95.8 54.5625 95.875 54.7 95.875 54.7625C95.875 54.95 81.4625 54.9125 81.275 54.725C81.1625 54.6125 81.125 53.4875 81.125 50.4125V48.2592C81.125 47.151 82.026 46.2541 83.1342 46.2592L86.5875 46.275L91.6487 46.3097C91.9014 46.3114 92.1306 46.4585 92.2375 46.6875V46.6875ZM57.75 70.3875C57.75 70.45 57.8375 70.5 57.9375 70.5C58.0375 70.5 58.3125 70.675 58.5625 70.8875C59.625 71.825 59.375 73.8875 58.125 74.4375C57.8875 74.55 57.5875 74.6875 57.475 74.75C57.125 74.95 56.8125 74.9 56.1375 74.55C55.7 74.3125 55.3875 74.0375 55.1125 73.6C54.75 73.05 54.725 72.925 54.7875 72.3125C54.8375 71.875 54.95 71.5375 55.1125 71.3625C55.2625 71.2 55.375 71.0375 55.375 70.975C55.375 70.85 56.35 70.3375 56.75 70.25C57.15 70.1625 57.75 70.25 57.75 70.3875ZM85.3 70.3875C85.375 70.4375 85.6875 70.7 85.9875 70.9625C86.4625 71.4 86.5375 71.525 86.6 72.1C86.7125 73.3875 86.35 74.0875 85.2625 74.6125C84.675 74.8875 84 74.9625 84 74.75C84 74.675 83.9 74.625 83.7875 74.625C83.175 74.6125 82.325 73.6625 82.2 72.875C82.125 72.3625 82.325 71.375 82.5125 71.375C82.5625 71.375 82.65 71.2625 82.6875 71.125C82.7375 70.9875 82.95 70.775 83.1625 70.6625C83.3875 70.5625 83.5875 70.425 83.625 70.375C83.7625 70.1625 85.0125 70.175 85.3 70.3875ZM39.15 70.3375C39.175 70.4 39.4 70.55 39.6625 70.675C40.025 70.8625 40.175 71.05 40.35 71.525C40.4625 71.85 40.6 72.125 40.65 72.125C40.7561 72.125 40.7729 72.4823 40.7118 72.6799C40.6835 72.7718 40.6009 72.8337 40.5611 72.9213C40.5228 73.0056 40.4842 73.1215 40.4625 73.2375C40.3625 73.7375 39.7 74.4625 39.25 74.5625C39.0375 74.6125 38.875 74.7 38.875 74.7625C38.875 74.825 38.65 74.875 38.375 74.875C38.1 74.875 37.875 74.8125 37.875 74.75C37.875 74.675 37.8 74.625 37.7 74.625C37.35 74.625 36.75 74.175 36.5375 73.75C36.4641 73.6105 36.3864 73.4753 36.3246 73.385C36.2682 73.3025 36.1853 73.2398 36.1655 73.1418C36.0902 72.7683 36.1353 71.75 36.25 71.75C36.325 71.75 36.375 71.6625 36.375 71.5625C36.375 71.3375 37.225 70.5 37.4625 70.5C37.55 70.5 37.625 70.4375 37.625 70.375C37.625 70.2375 39.0875 70.2 39.15 70.3375Z" fill="#E9E1D7"/>
</g>
</g>
</g>
</g>
</g>
<defs>
<filter id="filter0_d_1_28" x="0" y="0" width="120" height="120" filterUnits="userSpaceOnUse" color-interpolation-filters="sRGB">
<feFlood flood-opacity="0" result="BackgroundImageFix"/>
<feColorMatrix in="SourceAlpha" type="matrix" values="0 0 0 0 0 0 0 0 0 0 0 0 0 0 0 0 0 0 127 0" result="hardAlpha"/>
<feOffset dy="4"/>
<feGaussianBlur stdDeviation="5"/>
<feComposite in2="hardAlpha" operator="out"/>
<feColorMatrix type="matrix" values="0 0 0 0 0 0 0 0 0 0 0 0 0 0 0 0 0 0 0.25 0"/>
<feBlend mode="normal" in2="BackgroundImageFix" result="effect1_dropShadow_1_28"/>
<feBlend mode="normal" in="SourceGraphic" in2="effect1_dropShadow_1_28" result="shape"/>
</filter>
<filter id="filter1_d_1_28" x="0" y="0" width="120" height="120" filterUnits="userSpaceOnUse" color-interpolation-filters="sRGB">
<feFlood flood-opacity="0" result="BackgroundImageFix"/>
<feColorMatrix in="SourceAlpha" type="matrix" values="0 0 0 0 0 0 0 0 0 0 0 0 0 0 0 0 0 0 127 0" result="hardAlpha"/>
<feOffset dy="4"/>
<feGaussianBlur stdDeviation="10"/>
<feComposite in2="hardAlpha" operator="out"/>
<feColorMatrix type="matrix" values="0 0 0 0 0 0 0 0 0 0 0 0 0 0 0 0 0 0 0.25 0"/>
<feBlend mode="normal" in2="BackgroundImageFix" result="effect1_dropShadow_1_28"/>
<feBlend mode="normal" in="SourceGraphic" in2="effect1_dropShadow_1_28" result="shape"/>
</filter>
<filter id="filter2_d_1_28" x="0" y="17.125" width="120" height="85.7432" filterUnits="userSpaceOnUse" color-interpolation-filters="sRGB">
<feFlood flood-opacity="0" result="BackgroundImageFix"/>
<feColorMatrix in="SourceAlpha" type="matrix" values="0 0 0 0 0 0 0 0 0 0 0 0 0 0 0 0 0 0 127 0" result="hardAlpha"/>
<feOffset dy="4"/>
<feGaussianBlur stdDeviation="10"/>
<feComposite in2="hardAlpha" operator="out"/>
<feColorMatrix type="matrix" values="0 0 0 0 0 0 0 0 0 0 0 0 0 0 0 0 0 0 0.25 0"/>
<feBlend mode="normal" in2="BackgroundImageFix" result="effect1_dropShadow_1_28"/>
<feBlend mode="normal" in="SourceGraphic" in2="effect1_dropShadow_1_28" result="shape"/>
</filter>
<clipPath id="clip0_1_28">
<rect x="10" y="6" width="100" height="100" rx="5" fill="white"/>
</clipPath>
<clipPath id="clip1_1_28">
<rect width="80" height="80" fill="white" transform="translate(20 16)"/>
</clipPath>
</defs>
</svg>
