<svg width="120" height="120" viewBox="0 0 120 120" fill="none" xmlns="http://www.w3.org/2000/svg">
<g filter="url(#filter0_d_1_20)">
<g clip-path="url(#clip0_1_20)">
<rect x="10" y="6" width="100" height="100" rx="5" fill="#A4713A"/>
<g filter="url(#filter1_d_1_20)">
<path d="M63.047 27.4139C61.8862 27.6609 61.0033 28.1424 60.1389 29.0068C58.9843 30.1614 58.4472 31.4519 58.4472 33.0695V33.8228L58.3113 33.7363C58.1817 33.6499 58.0397 33.8475 52.8903 41.1517L47.5928 48.6534L47.2779 48.7831C45.4132 49.5857 44.0549 51.0984 43.5116 52.9816C43.2275 53.9757 43.1782 55.4328 43.4128 56.2478C43.4498 56.3589 43.4745 56.4762 43.4745 56.5009C43.4745 56.5256 41.9865 56.5442 40.1713 56.5318L36.8619 56.5195L36.7754 56.8282C36.726 56.9949 36.442 58.0692 36.1333 59.2053C35.8308 60.3413 35.3306 62.206 35.0219 63.342C34.7194 64.4781 34.4354 65.5339 34.3983 65.6883L34.3242 65.9599L32.5028 60.5019C31.5026 57.495 30.6814 55.0315 30.6752 55.0253C30.669 55.0253 30.4036 55.0438 30.0825 55.0747C29.7614 55.1117 29.4157 55.1302 29.3169 55.1179L29.1378 55.0994L29.8232 54.1115L30.5085 53.1236L29.249 53.0927L27.9894 53.0619L28.8476 51.8147C29.3169 51.1231 29.7059 50.5551 29.7059 50.5428C29.7059 50.5366 29.3169 50.5613 28.8353 50.6107C28.3599 50.6601 27.9647 50.6909 27.9524 50.6786C27.9462 50.6662 27.5202 49.3696 27.0077 47.8075L26.0816 44.955L26.2977 44.7883C26.594 44.5537 26.7669 44.14 26.7299 43.7634C26.6125 42.5903 25.0196 42.2939 24.4948 43.3497C24.3219 43.7016 24.3034 43.8622 24.396 44.2141C24.5318 44.7081 25.0258 45.06 25.5691 45.0662H25.8531L26.1186 45.8812C27.1806 49.1782 27.7486 50.907 27.7857 50.9379C27.8042 50.9626 28.0697 50.9503 28.3784 50.9194C28.6809 50.8885 28.9835 50.8762 29.0452 50.8823C29.1378 50.8947 28.9958 51.1355 28.3228 52.1172C27.8597 52.784 27.4831 53.3459 27.4831 53.3706C27.4831 53.3891 28.0388 53.3953 28.718 53.3891C29.3971 53.3768 29.9528 53.3891 29.9528 53.4138C29.9528 53.4385 29.6503 53.9016 29.2737 54.4449C28.9032 54.9821 28.5945 55.4328 28.5945 55.4451C28.5945 55.4637 28.9464 55.439 29.3848 55.3957C29.817 55.3587 30.243 55.3217 30.3356 55.3217C30.4962 55.3155 30.5085 55.3402 32.3052 60.7303C33.2931 63.7125 34.1328 66.1884 34.1699 66.2316C34.2254 66.3057 34.2007 66.423 33.9229 67.3986L33.8365 67.7258H32.7127H31.589L31.0951 68.2197L30.6011 68.7137H30.0948H29.5824L29.0205 69.0718L28.4648 69.4361L27.903 69.3311L27.3411 69.2261L26.063 70.1091C25.3592 70.5968 24.7664 71.029 24.7541 71.0723C24.7356 71.1155 24.6738 71.4427 24.6059 71.8008L24.4948 72.4491L24.1243 72.8504C23.9144 73.0727 23.6118 73.4061 23.439 73.5975C23.1858 73.8816 22.9882 74.0174 22.3152 74.3631L21.5002 74.7768L21.0001 76.2834L20.5 77.7837L20.8272 78.4258L21.1545 79.068L21.1174 79.6175C21.0927 79.92 21.068 80.4695 21.068 80.84L21.0619 81.5068L22.1424 82.6367L23.2229 83.7666L24.1799 83.7913L25.1369 83.816L25.5876 84.2605L26.0322 84.7051H27.6128H29.1872L29.4836 84.4025C29.7738 84.1062 29.7985 84.0938 30.3048 84.0259L30.8296 83.9518L31.2124 84.3284L31.5952 84.7051H33.1635H34.7317L35.1145 84.3284L35.4912 83.958L37.152 83.9642L38.8129 83.9703L39.1834 84.3346L39.56 84.7051H41.1345H42.7089L43.0732 84.3346L43.4375 83.9642H44.9872H46.537L46.9012 84.3346L47.2655 84.7051H48.8461H50.4268L50.8096 84.3161L51.1924 83.9333L52.5631 83.9148L53.9399 83.8962L54.3413 84.2976L54.7364 84.7051H56.3109H57.8853L58.2743 84.3223L58.6633 83.9333L60.2871 83.9518L61.9048 83.9765L62.2752 84.3408L62.6518 84.7051H64.2263H65.8007L66.165 84.3346L66.5293 83.9703L67.7024 84.0012L68.8817 84.0383L69.2213 84.3717L69.567 84.7051H71.1353H72.7098L73.1481 84.2667L73.5865 83.8283L74.6732 83.7975L75.7599 83.7604L76.8465 82.612L77.9394 81.4636L77.9023 80.9388C77.8838 80.6486 77.8591 80.0929 77.8591 79.7039L77.8468 78.9939L78.1555 78.3826L78.4642 77.7652L77.9641 76.271L77.4701 74.7768L77.0441 74.5669C76.6922 74.4002 76.4637 74.215 75.7722 73.5234C75.3091 73.0665 74.8275 72.5973 74.6979 72.4923C74.4756 72.3009 74.4571 72.2577 74.3398 71.6588C74.2719 71.3131 74.1978 71.0105 74.1731 70.992C74.1484 70.9673 73.568 70.5598 72.8826 70.0905L71.6293 69.2261L70.6908 69.4052C70.1721 69.4978 69.7029 69.5657 69.6535 69.5534C69.6041 69.541 69.3139 69.4361 69.0052 69.3311C68.1346 69.0162 67.1097 68.7137 66.9121 68.7137C66.7763 68.7137 66.6219 68.6025 66.2329 68.2197L65.7266 67.7258H64.6647C63.7138 67.7258 63.6089 67.7134 63.578 67.6147C63.5595 67.5591 63.4483 67.1701 63.3187 66.7503C63.1952 66.3304 63.1149 65.9661 63.1458 65.9414C63.1767 65.9167 63.436 65.8303 63.7262 65.7562C64.0164 65.6821 64.6214 65.5216 65.0722 65.3981L65.8872 65.1758L65.8748 62.9839L65.8563 60.7921L63.5162 60.1623L61.1762 59.5387L60.7316 58.0445L60.2933 56.5442H58.1446H55.9898L56.033 56.3157C56.0577 56.1922 56.0948 55.97 56.1133 55.8218C56.1503 55.5686 56.2306 55.5007 56.3602 55.6304C56.4035 55.6736 57.7062 53.2039 60.781 47.2519L65.1339 38.8054L65.6525 38.6696C65.9304 38.5955 66.3008 38.472 66.4614 38.4041C66.6281 38.33 66.7701 38.2744 66.7824 38.2744C66.7948 38.2744 66.801 38.3485 66.7948 38.4412C66.7824 38.5955 67.2517 38.9104 74.3089 43.4917L81.8354 48.3756L82.0391 48.7769C82.1502 49.0054 82.3849 49.3388 82.5577 49.5302L82.8726 49.8759L82.5639 51.685C82.1502 54.1053 81.6316 57.1801 81.6131 57.2851C81.6007 57.3839 91.4919 62.2492 91.6154 62.206C91.7513 62.1504 93.6159 60.613 93.585 60.5821C93.5665 60.5636 91.6957 59.6869 89.4297 58.6372C87.1638 57.5876 85.2868 56.7109 85.2621 56.6862C85.225 56.6429 86.1574 50.5798 86.2067 50.5366C86.2191 50.5304 86.3549 50.4687 86.5093 50.4131C87.3552 50.0797 88.1393 49.2091 88.4233 48.2891L88.5345 47.9372L91.2388 47.7705C92.733 47.6779 94.0975 47.6038 94.2827 47.6161L94.6161 47.6285L96.135 51.932C96.9685 54.2967 97.6724 56.2478 97.6909 56.2725C97.7403 56.3219 99.5062 54.4573 99.5 54.3646C99.4938 54.3276 98.6356 52.0308 97.5921 49.2647C96.5487 46.4986 95.6843 44.1832 95.6658 44.1215C95.6349 44.0351 95.5855 44.0227 95.3447 44.0474C95.1903 44.0659 93.4801 44.1894 91.5413 44.3252C87.5774 44.6031 87.4786 44.6154 87.5342 44.7081C87.5589 44.7451 87.4293 44.6648 87.244 44.5228C86.8797 44.2512 86.3364 43.9733 86.0462 43.9177C85.9166 43.893 83.4221 41.8308 77.7109 37.0087L69.5609 30.1306L69.4806 30.322L69.4003 30.5134L69.2707 30.2726C69.0422 29.8404 68.5421 29.2106 68.1099 28.8154C66.7639 27.5682 64.8437 27.0372 63.047 27.4139Z" fill="#E9E1D7"/>
</g>
</g>
</g>
<defs>
<filter id="filter0_d_1_20" x="0" y="0" width="120" height="120" filterUnits="userSpaceOnUse" color-interpolation-filters="sRGB">
<feFlood flood-opacity="0" result="BackgroundImageFix"/>
<feColorMatrix in="SourceAlpha" type="matrix" values="0 0 0 0 0 0 0 0 0 0 0 0 0 0 0 0 0 0 127 0" result="hardAlpha"/>
<feOffset dy="4"/>
<feGaussianBlur stdDeviation="5"/>
<feComposite in2="hardAlpha" operator="out"/>
<feColorMatrix type="matrix" values="0 0 0 0 0 0 0 0 0 0 0 0 0 0 0 0 0 0 0.25 0"/>
<feBlend mode="normal" in2="BackgroundImageFix" result="effect1_dropShadow_1_20"/>
<feBlend mode="normal" in="SourceGraphic" in2="effect1_dropShadow_1_20" result="shape"/>
</filter>
<filter id="filter1_d_1_20" x="0.5" y="9.29492" width="119" height="97.4102" filterUnits="userSpaceOnUse" color-interpolation-filters="sRGB">
<feFlood flood-opacity="0" result="BackgroundImageFix"/>
<feColorMatrix in="SourceAlpha" type="matrix" values="0 0 0 0 0 0 0 0 0 0 0 0 0 0 0 0 0 0 127 0" result="hardAlpha"/>
<feOffset dy="2"/>
<feGaussianBlur stdDeviation="10"/>
<feComposite in2="hardAlpha" operator="out"/>
<feColorMatrix type="matrix" values="0 0 0 0 0 0 0 0 0 0 0 0 0 0 0 0 0 0 0.25 0"/>
<feBlend mode="normal" in2="BackgroundImageFix" result="effect1_dropShadow_1_20"/>
<feBlend mode="normal" in="SourceGraphic" in2="effect1_dropShadow_1_20" result="shape"/>
</filter>
<clipPath id="clip0_1_20">
<rect x="10" y="6" width="100" height="100" rx="5" fill="white"/>
</clipPath>
</defs>
</svg>
