<svg width="120" height="120" viewBox="0 0 120 120" fill="none" xmlns="http://www.w3.org/2000/svg">
<g filter="url(#filter0_d_1_12)">
<rect x="10" y="6" width="100" height="100" rx="5" fill="#778938"/>
<g clip-path="url(#clip0_1_12)">
<g filter="url(#filter1_d_1_12)">
<path d="M48.9684 30.2382C48.6469 30.4468 48.5419 30.7627 48.6403 31.2176C48.7191 31.5589 48.7584 31.6157 49.5 32.3171C50.0841 32.8732 50.2941 33.1196 50.3466 33.2965C50.3925 33.4419 50.4188 34.4213 50.4188 35.8304V38.1304L50.13 38.4021C49.9528 38.5664 49.8084 38.7686 49.7691 38.914C49.7231 39.0782 49.6969 40.4431 49.6969 42.9327V46.7114H48.5681C45.8709 46.7114 41.7891 46.8946 39.3938 47.1221C33.12 47.7224 27.9947 49.0556 24.8906 50.9007C24.1228 51.3557 23.3025 52.0192 23.3222 52.1708C23.3419 52.3161 23.3156 52.4046 23.2566 52.373C23.2238 52.3541 23.2041 52.3857 23.2106 52.4488C23.2106 52.5057 23.1844 52.5499 23.1384 52.5436C23.0859 52.531 23.0728 52.5689 23.0991 52.6321C23.1253 52.6953 23.1122 52.7206 23.0663 52.689C23.0269 52.67 22.9744 52.6826 22.9481 52.7206C22.9153 52.7711 22.9284 52.7774 22.9875 52.7458C23.0531 52.7079 23.0597 52.7206 23.0203 52.8153C22.7906 53.3335 22.5216 54.2497 22.4297 54.831C22.3706 55.2102 22.2788 55.7093 22.2263 55.9368C22.1213 56.4107 22.1081 57.2448 22.2 57.4849C22.2328 57.5734 22.2919 57.9083 22.3313 58.2306C22.4231 59.0078 22.5806 59.9619 22.6922 60.499C22.7447 60.7391 22.7906 60.9476 22.7906 60.9476C22.7906 60.9476 22.6069 60.9666 22.3772 60.9792C20.1591 61.0677 18.5119 61.6427 18.1247 62.4768C18.0131 62.7106 18 62.976 18 66.1291V69.5349L18.3609 69.9203L18.7219 70.3121V71.0198C18.7219 71.7149 18.7284 71.7338 18.8728 71.7338C19.0041 71.7338 19.0369 71.8034 19.1944 72.4416C19.3125 72.9155 19.4109 73.1809 19.4963 73.2504C19.6669 73.3767 19.7916 73.7622 19.7391 74.0213C19.6866 74.3119 19.8966 74.9375 20.2641 75.5567C20.625 76.1696 20.6578 76.2012 20.7825 76.1001C20.8547 76.037 20.9006 76.0685 21.0122 76.2392C21.0909 76.3592 21.15 76.5109 21.15 76.5804C21.15 76.6499 21.2288 76.8205 21.3206 76.9532C21.5241 77.2502 22.4625 78.179 22.5609 78.179C22.6331 78.179 23.0663 78.5834 23.5716 79.1268C23.8866 79.4681 24.7659 80.0304 25.14 80.1315C25.4288 80.2137 25.8947 80.4601 26.0653 80.6181C26.3803 80.9214 27.4828 81.3068 28.2047 81.3637C28.3884 81.3763 28.6575 81.4332 28.815 81.4901C28.9659 81.547 29.2153 81.6354 29.3728 81.6923C29.7469 81.8313 30.8559 81.8755 31.5056 81.7871C31.9191 81.7302 32.1225 81.7302 32.4178 81.7871C32.7525 81.8503 32.8903 81.8439 33.4744 81.7302C33.8419 81.6607 34.2684 81.547 34.4259 81.4774C34.8197 81.2942 35.3053 81.1678 35.7188 81.1236C36.1453 81.0794 37.1822 80.5991 37.53 80.2832C37.6613 80.1695 38.0419 79.9483 38.3766 79.7903C39.0853 79.4681 39.735 78.9562 40.1813 78.3812C40.4306 78.0653 40.5159 77.9958 40.7128 77.9705C41.0344 77.9326 41.3034 77.7304 41.6119 77.3007C42.1041 76.6183 42.2747 76.157 41.9859 76.2581C41.7891 76.3339 42.2156 75.7526 42.4322 75.6515C42.7078 75.5251 42.9572 75.1523 43.1606 74.571C43.4166 73.838 43.4822 73.4905 43.3903 73.4336C43.2919 73.3767 43.4231 72.8712 43.6003 72.6627C43.8759 72.3152 43.9219 71.9297 43.8956 70.091C43.8759 69.0484 43.8366 68.2585 43.7906 68.1132C43.7513 67.9742 43.7316 67.8478 43.7578 67.8288C43.83 67.753 47.5116 67.7404 47.6494 67.8099C47.7347 67.8541 47.7938 67.9742 47.82 68.1637C47.8463 68.328 47.9381 68.5302 48.03 68.6376C48.1941 68.8209 48.2269 68.8272 48.6994 68.8272H49.2047L50.0578 69.3959L50.9109 69.9646H52.5647H54.2184L54.2381 70.9566L54.2578 71.955L57.9788 71.974L61.6931 71.9866L61.7325 71.5948C61.7522 71.3737 61.785 70.9187 61.8113 70.5838L61.8506 69.9646H62.9269C63.78 69.9646 64.0031 69.9835 64.0031 70.0467C64.0031 70.3753 64.7841 72.113 64.935 72.113C65.0531 72.1193 65.3944 72.8712 65.4272 73.1998C65.4731 73.699 65.9588 74.5457 66.6938 75.3861C66.9563 75.6894 67.0744 75.7779 67.1728 75.7526C67.3238 75.7147 67.5009 75.8916 67.9013 76.4729C68.3344 77.1048 68.9381 77.5914 70.7297 78.7477C71.0184 78.9373 71.3925 79.209 71.5697 79.3543C71.7403 79.4997 72.0356 79.7019 72.2259 79.8093C72.6656 80.0431 73.8666 80.517 74.0306 80.517C74.2144 80.517 75.1594 80.8519 75.4219 81.0099C75.7566 81.2121 76.2553 81.3827 76.8394 81.4901C77.5547 81.6165 78.4144 81.6796 78.4603 81.6101C78.5194 81.5217 79.4447 81.6291 79.8056 81.7618C80.3569 81.964 82.3978 81.8692 82.8113 81.6228C83.0147 81.4964 83.7234 81.389 84.2681 81.3953C84.5372 81.4016 84.9506 81.3574 85.1869 81.3005C85.6791 81.1805 86.9456 80.6876 87.0966 80.5549C87.2409 80.4348 88.2975 79.9862 88.7438 79.8598C89.2163 79.7271 89.8988 79.2975 90.9291 78.4823C91.5328 78.0021 91.8347 77.8062 91.9988 77.7809C92.5106 77.6988 93.2063 77.1111 93.8691 76.2012C94.1119 75.86 94.1709 75.74 94.125 75.6515C94.0397 75.5062 94.486 74.9248 94.8403 74.7226C95.28 74.4699 95.7328 73.7622 96.1922 72.6248C96.33 72.2836 96.3891 72.0498 96.3563 71.9866C96.2906 71.8665 96.6319 71.0072 96.8222 70.805C96.9469 70.6786 97.0322 70.6596 97.4194 70.6596C97.7541 70.6596 97.8656 70.6786 97.8656 70.7481C97.8656 71.0009 100.268 71.5632 100.838 71.4495C101.186 71.3737 101.442 71.1841 101.633 70.8555C101.803 70.5459 101.993 69.8445 102 69.5096C102 69.3517 101.98 69.339 101.659 69.3201L101.311 69.3011L101.016 69.8698C100.766 70.35 100.694 70.4385 100.563 70.4385C100.287 70.4385 100.163 70.1036 100.163 69.3769C100.163 68.6819 100.09 68.486 99.7556 68.2332C99.2175 67.8478 98.5285 67.8604 98.115 68.2585C97.9772 68.3912 97.8656 68.5555 97.8656 68.6313C97.8656 68.745 97.8328 68.7703 97.6885 68.7514L97.5178 68.7324L97.5113 67.8162C97.5113 67.0137 97.531 66.8494 97.6622 66.4892C97.8066 66.1101 97.8131 66.0153 97.7738 65.2571C97.7278 64.3851 97.6163 63.7216 97.4916 63.5763C97.38 63.4436 97.275 62.7927 97.2553 62.0597C97.2422 61.5353 97.1963 61.3015 97.0519 60.9097C96.796 60.2147 96.4481 59.4943 96.3366 59.4311C96.1791 59.349 95.9231 58.7866 95.7722 58.2179C95.6869 57.8893 95.5294 57.5165 95.3785 57.2701C95.0241 56.7077 94.2694 55.8041 94.1184 55.7662C93.9544 55.722 93.4294 55.0964 93.2391 54.711C93.1538 54.534 92.9241 54.2181 92.7338 54.0159C92.5435 53.8074 92.4188 53.6305 92.4516 53.6178C92.491 53.6052 92.9306 53.4156 93.4294 53.1881C93.9347 52.9607 94.381 52.7774 94.4269 52.7774C94.4728 52.7774 94.5516 52.9733 94.6238 53.2829C94.7419 53.8074 94.8272 53.9211 95.1947 54.0096C95.4244 54.0665 95.5819 53.839 95.5294 53.5357C95.4178 52.8722 95.3653 52.809 93.9216 51.5137C92.8716 50.5722 92.4909 50.1867 92.2941 49.8708C91.9003 49.2389 91.2506 48.6133 90.3384 47.9688C89.3213 47.2485 88.7109 46.9072 87.8447 46.585C86.0269 45.8962 84.045 45.6245 81.0656 45.6435L79.9172 45.6498L79.6088 43.9816C78.4603 37.7639 77.7844 34.0548 77.7844 34.0042C77.7844 33.9726 78.5128 33.9474 79.4513 33.9474H81.1116L81.2822 33.7073C81.9844 32.7089 81.2756 31.8938 79.2741 31.3946C75.8944 30.5479 66.9956 30.6047 60.3281 31.5209C58.4972 31.7674 55.2684 32.3614 55.0059 32.494C54.8156 32.5951 54.6188 32.9364 54.6188 33.1702C54.6188 33.4292 54.8419 33.6757 55.1766 33.7831L55.4391 33.8715L55.4719 35.685C55.5047 37.4985 55.5047 37.4985 55.6622 37.6186C55.8591 37.7703 56.0034 37.7703 56.22 37.606C56.3119 37.5365 56.3906 37.4922 56.3906 37.5112C56.3906 37.5301 56.2856 37.9093 56.1609 38.3516C55.4325 40.9044 54.9338 43.7226 54.8353 45.8394L54.7959 46.7114H53.5228H52.2563V42.9327C52.2563 40.4747 52.23 39.0782 52.1841 38.9203C52.1447 38.7876 52.0003 38.5664 51.8559 38.4274L51.6 38.181V35.4323C51.6 32.3424 51.6328 32.5572 51.0881 31.9254C50.7272 31.5083 49.2966 30.0929 49.2375 30.0929C49.2113 30.0929 49.0931 30.1561 48.9684 30.2382ZM57.5522 34.1496C57.5259 34.2317 57.27 34.99 56.9681 35.843L56.4234 37.3911V35.6977V34.0106H57.0075C57.5784 34.0106 57.585 34.0106 57.5522 34.1496ZM68.8791 34.813L71.6813 34.851V40.4684V46.0795L70.6509 46.0858C70.08 46.0921 69.5681 46.0984 69.5156 46.1048C69.4631 46.1174 69.2991 46.1237 69.1613 46.13L68.9053 46.1427L68.9447 46.743L68.9775 47.3432L68.5772 47.6086C67.4353 48.3479 65.9588 49.6875 65.1384 50.7301C63.8259 52.392 62.9203 54.1549 62.3297 56.2022L62.2247 56.5687H59.7309H57.2438V55.2544C57.2438 54.5277 57.2634 53.7126 57.2897 53.4472L57.3291 52.9607L58.6153 51.9497C59.3766 51.3494 59.9869 50.8186 60.1116 50.648C60.4069 50.2373 60.5053 49.776 60.4003 49.2958L60.3216 48.9229L60.7153 48.4869C61.2206 47.9183 61.5619 47.4317 61.89 46.7998C62.1459 46.307 62.8481 45.5234 63.1238 45.4223C63.3206 45.3465 63.9506 45.574 64.7513 45.9973C65.6503 46.4776 65.9916 46.5471 66.0244 46.2564C66.0375 46.1616 65.9916 45.991 65.9259 45.871C65.6766 45.4097 61.8113 41.7195 61.5816 41.7195C61.3716 41.7195 61.4044 41.928 61.8047 43.1792C62.0016 43.7984 62.1656 44.405 62.1656 44.5314C62.1656 44.8284 62.0278 45.1253 61.7981 45.3275C61.6078 45.4918 58.8188 47.179 58.7925 47.141C58.6547 46.9325 57.8409 46.1364 57.6703 46.0416L57.4406 45.9215V44.3102C57.4406 41.65 57.7294 39.6469 58.3594 37.8966C58.7925 36.6834 59.4553 35.5966 60.1116 35.0216L60.4922 34.6867L63.2813 34.7246C64.8169 34.7499 67.3303 34.7878 68.8791 34.813ZM75.5925 34.9331L76.1175 34.9647L76.3013 35.4133C77.1938 37.6249 77.325 40.7211 76.6622 43.8047C76.4391 44.8536 76.3669 45.0495 76.17 45.0874C76.0125 45.1127 75.9994 45.1001 76.0388 44.9484C76.3997 43.3687 76.485 42.6736 76.3406 42.4083C76.3013 42.3451 76.17 42.2503 76.0453 42.1997C75.7828 42.0923 75.7172 41.9154 75.7763 41.4983C75.8484 41.0434 75.5334 40.5821 75.1463 40.5821C74.8378 40.5821 74.4966 40.9739 74.0831 41.8016C73.5188 42.9201 73.2956 43.7668 73.4466 44.2028C73.5188 44.4113 73.5056 44.4619 73.1972 45.0558L72.8691 45.6877L72.4556 45.8141C72.2259 45.8899 71.9897 45.9657 71.9306 45.9847C71.8191 46.0289 71.8125 45.7383 71.8125 40.4747C71.8125 37.4164 71.8256 34.9015 71.8388 34.8889C71.8781 34.851 74.9428 34.8889 75.5925 34.9331ZM63.2025 43.6847C63.2222 43.7289 62.7234 44.1017 62.5988 44.1333C62.5463 44.1522 62.3756 43.7668 61.995 42.8L61.8375 42.4019L62.5069 43.0212C62.8809 43.3561 63.1894 43.6594 63.2025 43.6847ZM65.6175 45.9405C65.7619 46.1553 65.6963 46.1743 65.3681 46.0163C65.1319 45.8962 63.6028 45.0242 63.2813 44.822C63.2025 44.7652 63.2353 44.7083 63.4716 44.4745L63.7603 44.1902L64.6397 44.9926C65.1253 45.435 65.565 45.8646 65.6175 45.9405ZM23.7094 52.2719C23.7094 52.1898 23.7159 52.1898 23.775 52.2719C23.8275 52.3477 23.8406 52.3477 23.8406 52.2782C23.8406 52.2277 23.8538 52.2024 23.8734 52.215C23.8866 52.234 23.7816 52.6005 23.6372 53.0302C23.4863 53.4662 23.3025 54.1928 23.2303 54.6541C23.1516 55.1154 23.0663 55.4945 23.0334 55.4945C22.9022 55.4945 23.2434 53.8769 23.5519 53.0302C23.6766 52.6763 23.7684 52.373 23.7553 52.3541C23.7356 52.3414 23.6306 52.5815 23.5125 52.8848C23.2828 53.5041 23.0269 54.5025 22.9547 55.1027C22.9284 55.3176 22.8825 55.4945 22.8497 55.4945C22.7709 55.4945 22.7709 55.5008 22.8891 54.831C23.0072 54.1423 23.1713 53.523 23.4075 52.9417C23.4994 52.7016 23.565 52.4931 23.5519 52.4804C23.5059 52.4362 23.1384 53.403 22.9941 53.9401C22.9219 54.2118 22.8234 54.6731 22.7841 54.9637C22.7381 55.2544 22.6791 55.4945 22.6463 55.4945C22.62 55.4945 22.5938 55.4692 22.5938 55.4376C22.5938 55.2797 22.8103 54.1992 22.9284 53.7947C23.0991 53.1692 23.5847 52.1771 23.6503 52.2846C23.6963 52.3477 23.7094 52.3477 23.7094 52.2719ZM24.2278 52.3098C24.2344 52.2403 24.2475 52.2024 24.2672 52.2214C24.2869 52.2403 24.2147 52.6447 24.1031 53.1186C23.9981 53.5925 23.8538 54.3318 23.7881 54.7678C23.7291 55.2038 23.6503 55.5577 23.6241 55.5577C23.5256 55.5577 23.7225 54.3129 24.0178 53.1376C24.1097 52.7585 24.1688 52.4425 24.1556 52.4236C24.1031 52.373 23.7028 54.0601 23.5978 54.7678C23.4863 55.5071 23.3353 55.88 23.4141 55.2102C23.5322 54.1802 24.0834 52.0887 24.1753 52.3098C24.2213 52.4236 24.2278 52.4236 24.2278 52.3098ZM24.4641 52.9354C24.2869 54.0412 24.2213 54.3571 24.1556 54.3571C24.1228 54.3571 24.1097 54.3066 24.1294 54.2434C24.1491 54.1865 24.2213 53.7947 24.3 53.3777C24.4772 52.373 24.5034 52.2593 24.5363 52.2846C24.5494 52.3035 24.5166 52.5942 24.4641 52.9354ZM23.1844 52.8848C22.9022 53.523 22.6988 54.2307 22.5872 54.97C22.5413 55.2607 22.4822 55.4945 22.4494 55.4945C22.3838 55.4945 22.3838 55.5008 22.4953 54.8184C22.6134 54.0981 22.8694 53.3208 23.1581 52.7585C23.2828 52.5247 23.3944 52.3351 23.4075 52.3351C23.4206 52.3351 23.3222 52.5815 23.1844 52.8848ZM24.5888 53.1945C24.5297 53.6431 24.4575 54.0538 24.4247 54.1044C24.3328 54.256 24.3525 54.0285 24.4969 53.1881C24.5691 52.7711 24.6281 52.4046 24.6281 52.373C24.6281 52.3414 24.6413 52.3288 24.6609 52.3477C24.6806 52.3604 24.6478 52.7458 24.5888 53.1945ZM23.7816 53.0997C23.67 53.4599 23.5125 54.1486 23.4338 54.6225C23.3484 55.1027 23.2631 55.4945 23.2369 55.4945C23.1647 55.4945 23.1647 55.4756 23.3156 54.6351C23.4403 53.9401 23.565 53.4535 23.8209 52.6953C24.0113 52.1139 23.9784 52.4488 23.7816 53.0997ZM24.7528 53.1629C24.6741 53.8706 24.5756 54.3318 24.5691 53.978C24.5691 53.8895 24.6084 53.5357 24.6609 53.1881C24.7134 52.8406 24.7594 52.5183 24.7594 52.4678C24.7594 52.4172 24.7725 52.392 24.7922 52.4109C24.8119 52.4299 24.7988 52.7711 24.7528 53.1629ZM24.9234 53.0491C24.9038 53.403 24.8578 53.7947 24.825 53.9148L24.7725 54.136L24.7659 53.9464C24.7594 53.6936 24.9038 52.3983 24.9431 52.3983C24.9563 52.3983 24.9497 52.689 24.9234 53.0491ZM25.0547 53.4535C25.0284 53.8327 24.9825 54.1044 24.9431 54.1044C24.9038 54.1044 24.8906 54.0285 24.9103 53.9148C24.9366 53.8137 24.9759 53.4219 25.0022 53.0491C25.0284 52.6763 25.0613 52.4678 25.0744 52.5879C25.0875 52.7079 25.0809 53.0997 25.0547 53.4535ZM25.1466 54.0665C25.0875 54.117 25.0809 54.0475 25.1138 53.7884C25.1334 53.5989 25.1597 53.2008 25.1663 52.9038C25.1794 52.5057 25.1859 52.5752 25.1991 53.1818C25.2188 53.7442 25.1991 54.0222 25.1466 54.0665ZM24.2081 53.4914C24.1097 53.9843 24.0047 54.4898 23.9719 54.6162C23.9325 54.7426 23.9063 54.989 23.9063 55.1659C23.9063 55.3429 23.8734 55.5071 23.8341 55.5324C23.7159 55.6019 23.8406 54.7426 24.1491 53.2956C24.3853 52.1961 24.4313 52.3414 24.2081 53.4914ZM25.4091 53.2829C25.4091 53.4725 25.3828 53.7442 25.3566 53.8832C25.3172 54.0665 25.2975 53.8958 25.2975 53.2829C25.2975 52.67 25.3172 52.4994 25.3566 52.6826C25.3828 52.8217 25.4091 53.0934 25.4091 53.2829ZM25.5403 53.4346C25.5469 53.8137 25.5338 54.1107 25.5075 54.0917C25.4878 54.0728 25.4681 53.6936 25.4616 53.2513C25.455 52.809 25.4681 52.512 25.4878 52.5942C25.5141 52.6763 25.5338 53.0554 25.5403 53.4346ZM25.6781 52.5563L25.6847 52.4299L25.7438 52.5563L25.8028 52.6826L25.8094 52.5563C25.8356 52.2909 26.0063 53.0049 26.0456 53.5546C26.0784 53.978 26.0719 54.1107 26.0194 54.0791C25.9734 54.0538 25.9406 53.8327 25.9341 53.5167C25.9275 53.2324 25.9013 52.9101 25.875 52.809C25.8488 52.7016 25.8356 52.9607 25.8488 53.3777L25.8684 54.136L25.8094 53.4156C25.7766 53.0239 25.7306 52.6826 25.7044 52.6574C25.6847 52.6384 25.6847 52.9354 25.7109 53.3208C25.7438 53.8137 25.7372 54.0349 25.6847 54.0665C25.6322 54.098 25.6125 53.9148 25.6125 53.4283C25.6125 53.0554 25.5928 52.6763 25.5797 52.5879C25.5469 52.4488 25.5534 52.4488 25.6059 52.5563L25.6716 52.6826L25.6781 52.5563ZM26.1966 53.5041C26.2294 53.7821 26.2294 54.0349 26.2031 54.0601C26.1769 54.0854 26.1375 53.8769 26.1178 53.5862C26.0981 53.2956 26.0588 52.9607 26.0391 52.8406C26.0063 52.6195 26.0063 52.6195 26.0719 52.809C26.1113 52.9101 26.1638 53.2261 26.1966 53.5041ZM26.3738 53.6557C26.4328 54.3129 26.3672 54.2055 26.2753 53.5041C26.2359 53.1881 26.19 52.8659 26.1703 52.7774C26.1506 52.689 26.1834 52.7458 26.2359 52.8975C26.2884 53.0491 26.3475 53.3903 26.3738 53.6557ZM26.5378 52.7142C26.5378 52.6384 26.5509 52.6384 26.5772 52.7079C26.6034 52.7711 26.6231 52.7711 26.6625 52.7142C26.6953 52.6637 26.7675 52.7901 26.8463 53.0365C27.03 53.5925 27.1153 54.0349 27.0497 54.0791C27.0169 54.0981 26.9906 54.0538 26.9906 53.978C26.9906 53.7884 26.7872 52.9543 26.7478 52.9859C26.7347 53.0049 26.7675 53.2324 26.82 53.4978C26.9316 54.0096 26.9447 54.1486 26.8856 54.0854C26.8134 54.0222 26.6691 53.0681 26.7019 52.9038C26.7281 52.7648 26.7216 52.7648 26.6691 52.8722C26.61 52.9923 26.6034 52.9923 26.6034 52.8785C26.5969 52.809 26.5838 52.7711 26.5641 52.7901C26.5444 52.809 26.5706 53.0239 26.6297 53.2766C26.6822 53.5294 26.7216 53.8263 26.7216 53.9338C26.715 54.0917 26.7019 54.0665 26.6559 53.82C26.5838 53.4283 26.4591 52.8406 26.4197 52.7142C26.3934 52.6321 26.3934 52.6321 26.4591 52.7142C26.5181 52.7964 26.5313 52.7964 26.5378 52.7142ZM26.9906 52.8406C26.9906 52.7585 26.9972 52.7585 27.0563 52.8406C27.1153 52.9228 27.1219 52.9228 27.1219 52.8406C27.1219 52.7585 27.1284 52.7585 27.1875 52.8406C27.2466 52.9228 27.2531 52.9228 27.2531 52.8406C27.2597 52.7837 27.2925 52.809 27.3516 52.9038C27.4106 52.9986 27.45 53.0239 27.45 52.967C27.45 52.9101 27.4894 52.9354 27.5484 53.0302C27.6075 53.125 27.6469 53.1502 27.6469 53.0934C27.6469 53.0365 27.6863 53.0618 27.7453 53.1565C27.8044 53.2513 27.8438 53.2766 27.8438 53.2197C27.8438 53.1629 27.8831 53.1881 27.9422 53.2829C28.0472 53.4535 28.08 53.3461 27.9816 53.1629C27.9291 53.0681 27.9553 53.0554 28.2047 53.0618C28.3622 53.0618 28.5131 53.087 28.5459 53.1186C28.5722 53.1502 28.5656 53.1565 28.5197 53.1313C28.4738 53.106 28.4344 53.106 28.4344 53.1376C28.4409 53.2324 28.7559 53.7568 28.7625 53.6747C28.7625 53.6305 28.7297 53.5294 28.6903 53.4599C28.6313 53.3588 28.6378 53.3398 28.7034 53.3777C28.7625 53.4156 28.7756 53.3967 28.7428 53.3272C28.7231 53.264 28.7166 53.2197 28.7297 53.2197C28.7822 53.2197 29.1563 53.9654 29.1497 54.0538C29.1497 54.0981 29.0775 53.9906 28.9922 53.82C28.9069 53.6431 28.8347 53.542 28.8347 53.5862C28.8281 53.6305 28.8741 53.7568 28.9331 53.8579C28.9856 53.9654 29.0184 54.0665 28.9988 54.0854C28.9791 54.1044 28.92 54.0222 28.8609 53.9085L28.7625 53.6936L28.7953 53.8832C28.8216 54.0349 28.7888 54.0033 28.6706 53.7568C28.4869 53.3903 28.4475 53.4093 28.605 53.7884C28.6641 53.9338 28.6969 54.0601 28.6838 54.0791C28.6641 54.0917 28.5788 53.9338 28.4934 53.7189C28.4147 53.4978 28.3359 53.3524 28.3228 53.3903C28.3097 53.4219 28.3622 53.5862 28.4344 53.7568C28.5066 53.9211 28.5525 54.0728 28.5394 54.0917C28.5197 54.1107 28.4738 54.0412 28.4344 53.9401C28.395 53.839 28.3359 53.7 28.3031 53.6305C28.2309 53.4978 28.2309 53.4788 28.3359 53.978C28.3556 54.0665 28.3097 53.9717 28.2309 53.7695C28.0669 53.3335 27.975 53.3272 28.1325 53.7632C28.1916 53.9274 28.2244 54.0728 28.2113 54.0854C28.1981 54.1044 28.1194 53.9211 28.0406 53.6936C27.9619 53.4662 27.8831 53.2892 27.8634 53.3082C27.8438 53.3272 27.8766 53.4725 27.9356 53.6368C27.9947 53.8011 28.0406 53.9843 28.0406 54.0349C28.0341 54.0917 27.9619 53.9148 27.87 53.6431C27.7781 53.3651 27.6863 53.1565 27.6731 53.1755C27.6534 53.1945 27.7059 53.3967 27.7847 53.6241C27.8569 53.8579 27.9094 54.0665 27.8897 54.0854C27.87 54.0981 27.8044 53.9401 27.7388 53.7316C27.6009 53.245 27.5353 53.264 27.6666 53.7505C27.7256 53.9464 27.7453 54.1044 27.7191 54.1044C27.6928 54.1044 27.6338 53.9464 27.5878 53.7505C27.5091 53.4156 27.3253 52.9354 27.3188 53.0491C27.3188 53.0807 27.3778 53.3019 27.4566 53.542C27.5288 53.7821 27.5813 54.0096 27.5616 54.0538C27.5484 54.0981 27.5091 54.0475 27.4828 53.9464C27.3778 53.4978 27.1744 52.8912 27.1481 52.9228C27.1284 52.9417 27.1744 53.1439 27.2466 53.3777C27.3253 53.6115 27.3844 53.8769 27.3778 53.9717C27.3713 54.0981 27.3581 54.0791 27.3122 53.8832C27.2072 53.4346 27.1022 53.087 27.0759 53.1123C27.0628 53.125 27.1022 53.3272 27.1547 53.5673C27.2138 53.8011 27.2466 54.0222 27.2334 54.0665C27.2138 54.1044 27.1809 54.0475 27.1613 53.9464C27.0234 53.3588 26.925 52.9733 26.8856 52.8659C26.8528 52.7648 26.8594 52.7648 26.9184 52.8406C26.9775 52.9228 26.9906 52.9228 26.9906 52.8406ZM26.4984 53.384C26.61 53.9717 26.6166 54.1233 26.5378 54.0791C26.5116 54.0601 26.4656 53.8516 26.4394 53.6178C26.4197 53.384 26.3803 53.0997 26.3606 52.9986C26.3344 52.8912 26.3344 52.828 26.3606 52.8469C26.3869 52.8722 26.4525 53.1123 26.4984 53.384ZM22.6659 59.2542C22.7381 59.7344 22.8366 60.3031 22.8825 60.5243C22.935 60.7454 22.9481 60.9287 22.9219 60.9287C22.8431 60.9287 22.6069 59.766 22.4953 58.8435C22.4691 58.6539 22.4363 58.4391 22.4166 58.3696C22.3903 58.2748 22.4034 58.2621 22.4559 58.3127C22.4953 58.3506 22.5938 58.774 22.6659 59.2542ZM22.8497 59.1721C22.8956 59.5322 22.9809 60.0693 23.0466 60.3726C23.1647 60.9476 23.1188 61.1562 22.9941 60.6254C22.7972 59.7913 22.62 58.5275 22.7053 58.5275C22.7381 58.5275 22.8038 58.8182 22.8497 59.1721ZM22.9875 58.6981C22.9875 58.7992 23.0531 59.2605 23.1253 59.7281C23.2041 60.1957 23.2763 60.6633 23.2959 60.7707C23.3156 60.9034 23.3025 60.935 23.2631 60.8655C23.1975 60.7707 22.9613 59.5385 22.8825 58.8877C22.8563 58.6413 22.8628 58.5275 22.9153 58.5275C22.9547 58.5275 22.9875 58.6034 22.9875 58.6981ZM23.2106 59.0141C23.25 59.4501 23.3747 60.2147 23.4863 60.7707C23.5125 60.9097 23.5059 60.9413 23.4534 60.8971C23.4141 60.8592 23.3091 60.3726 23.2172 59.8229C23.04 58.7297 23.0203 58.5275 23.1122 58.5275C23.1384 58.5275 23.1844 58.7487 23.2106 59.0141ZM23.4141 59.0457C23.4338 59.3363 23.5059 59.8482 23.5716 60.1894C23.6372 60.5306 23.6634 60.8213 23.6438 60.8339C23.5847 60.8655 23.4863 60.3916 23.3484 59.4754C23.2369 58.7045 23.2303 58.5275 23.3091 58.5275C23.3419 58.5275 23.3878 58.7613 23.4141 59.0457ZM23.5781 58.7613C23.5781 58.894 23.6372 59.3806 23.7094 59.8482C23.8209 60.6064 23.8341 60.8213 23.7488 60.7328C23.7225 60.7075 23.5453 59.5322 23.4731 58.9193C23.4403 58.6476 23.4534 58.5275 23.5059 58.5275C23.5453 58.5275 23.5781 58.6286 23.5781 58.7613ZM23.8013 59.0457C23.8275 59.3363 23.8603 59.7281 23.8866 59.9177C23.9063 60.1072 23.8997 60.2463 23.8734 60.221C23.8275 60.1767 23.6503 58.9762 23.6438 58.6665C23.6438 58.5907 23.67 58.5275 23.7028 58.5275C23.7291 58.5275 23.775 58.7613 23.8013 59.0457ZM23.8866 58.7297C23.8669 58.774 23.8538 58.7424 23.8538 58.6539C23.8538 58.5654 23.8669 58.5339 23.8866 58.5718C23.8997 58.616 23.8997 58.6918 23.8866 58.7297ZM60.8531 70.1794C60.8531 70.2932 60.8334 70.5206 60.8138 70.6849L60.7678 70.9756L57.8738 70.9629L54.9797 70.944L54.96 70.508C54.9469 70.2679 54.9534 70.0404 54.9666 70.0025C54.9863 69.9519 55.8394 69.9393 57.9263 69.9519L60.8531 69.9646V70.1794Z" fill="#F1DDD8"/>
</g>
<path d="M26.9971 53.0049C26.9971 53.0744 27.016 53.0933 27.0349 53.0428C27.0539 52.9986 27.0476 52.9417 27.0286 52.9227C27.0097 52.8975 26.9908 52.9354 26.9971 53.0049Z" fill="#A46E3B"/>
<path d="M27.4565 53.0618C27.4631 53.1818 27.5747 53.384 27.5747 53.2829C27.5747 53.2324 27.5484 53.1439 27.5156 53.0934C27.4828 53.0428 27.4565 53.0239 27.4565 53.0618Z" fill="#A46E3B"/>
<path d="M28.08 53.2197C28.1653 53.523 28.2178 53.5609 28.2638 53.3714L28.3163 53.1881L28.4016 53.3461C28.4541 53.4346 28.4934 53.4725 28.4934 53.4409C28.4934 53.3335 28.3097 53.0554 28.3031 53.1565C28.3031 53.2387 28.2966 53.2387 28.2375 53.1565C28.1784 53.0744 28.1719 53.0744 28.1719 53.1565C28.1719 53.2387 28.1653 53.2387 28.0997 53.1565C28.0472 53.087 28.0406 53.0997 28.08 53.2197Z" fill="#A46E3B"/>
<path d="M22.1475 57.9588C22.1475 58.0473 22.1601 58.0789 22.179 58.0347C22.1916 57.9967 22.1916 57.9209 22.179 57.8767C22.1601 57.8388 22.1475 57.8704 22.1475 57.9588Z" fill="#A46E3B"/>
</g>
</g>
<defs>
<filter id="filter0_d_1_12" x="0" y="0" width="120" height="120" filterUnits="userSpaceOnUse" color-interpolation-filters="sRGB">
<feFlood flood-opacity="0" result="BackgroundImageFix"/>
<feColorMatrix in="SourceAlpha" type="matrix" values="0 0 0 0 0 0 0 0 0 0 0 0 0 0 0 0 0 0 127 0" result="hardAlpha"/>
<feOffset dy="4"/>
<feGaussianBlur stdDeviation="5"/>
<feComposite in2="hardAlpha" operator="out"/>
<feColorMatrix type="matrix" values="0 0 0 0 0 0 0 0 0 0 0 0 0 0 0 0 0 0 0.25 0"/>
<feBlend mode="normal" in2="BackgroundImageFix" result="effect1_dropShadow_1_12"/>
<feBlend mode="normal" in="SourceGraphic" in2="effect1_dropShadow_1_12" result="shape"/>
</filter>
<filter id="filter1_d_1_12" x="-2" y="14.0929" width="124" height="91.7787" filterUnits="userSpaceOnUse" color-interpolation-filters="sRGB">
<feFlood flood-opacity="0" result="BackgroundImageFix"/>
<feColorMatrix in="SourceAlpha" type="matrix" values="0 0 0 0 0 0 0 0 0 0 0 0 0 0 0 0 0 0 127 0" result="hardAlpha"/>
<feOffset dy="4"/>
<feGaussianBlur stdDeviation="10"/>
<feComposite in2="hardAlpha" operator="out"/>
<feColorMatrix type="matrix" values="0 0 0 0 0 0 0 0 0 0 0 0 0 0 0 0 0 0 0.25 0"/>
<feBlend mode="normal" in2="BackgroundImageFix" result="effect1_dropShadow_1_12"/>
<feBlend mode="normal" in="SourceGraphic" in2="effect1_dropShadow_1_12" result="shape"/>
</filter>
<clipPath id="clip0_1_12">
<rect width="84" height="51.8142" fill="white" transform="translate(18 30.0929)"/>
</clipPath>
</defs>
</svg>
