<svg xmlns="http://www.w3.org/2000/svg" version="1.1" viewBox="-5.0 -10.0 110.0 135.0">
 <path d="m27.48 65.875c0 2.3555-1.4219 4.4766-3.5977 5.3789-2.1758 0.90234-4.6797 0.40234-6.3438-1.2617-1.6641-1.6641-2.1641-4.168-1.2617-6.3438 0.90234-2.1758 3.0234-3.5977 5.3789-3.5977 3.2148 0.007813 5.8164 2.6094 5.8242 5.8242zm29.594-5.8242c-2.3555 0-4.4805 1.4219-5.3828 3.5977-0.89844 2.1758-0.40234 4.6797 1.2656 6.3438 1.6641 1.6641 4.168 2.1641 6.3438 1.2617s3.5938-3.0234 3.5938-5.3789c0-1.543-0.61328-3.0273-1.7031-4.1172-1.0938-1.0938-2.5742-1.707-4.1172-1.707zm16.918 0h-0.003907c-2.3555-0.003906-4.4805 1.4141-5.3867 3.5898-0.90234 2.1758-0.40625 4.6797 1.2578 6.3477s4.168 2.168 6.3477 1.2656c2.1758-0.89844 3.5938-3.0234 3.5938-5.3789 0-1.5469-0.61328-3.0312-1.7109-4.125s-2.582-1.7031-4.1328-1.6992zm16.387-9.6992-0.003906 0.003907c0.011719 1.8906-0.84766 3.6836-2.332 4.8516-0.25391-1.0469-1.1914-1.7891-2.2734-1.7891h-48.789v-15.98c-0.007813-1.6367 0.63281-3.207 1.7852-4.3711 1.1562-1.1602 2.7227-1.8125 4.3594-1.8164h41.105c3.3945 0 6.1445 2.75 6.1445 6.1445zm-41.832-12.5-0.003906 0.003907c0-0.43359-0.35156-0.78125-0.78125-0.78125-0.43359 0-0.78125 0.34766-0.78125 0.78125v12.145c0 0.42969 0.34766 0.78125 0.78125 0.78125 0.42969 0 0.78125-0.35156 0.78125-0.78125zm7.957 0-0.003906 0.003907c0-0.43359-0.35156-0.78125-0.78125-0.78125s-0.78125 0.34766-0.78125 0.78125v12.145c0 0.42969 0.35156 0.78125 0.78125 0.78125s0.78125-0.35156 0.78125-0.78125zm7.957 0-0.003907 0.003907c0-0.43359-0.34766-0.78125-0.78125-0.78125-0.42969 0-0.78125 0.34766-0.78125 0.78125v12.145c0 0.42969 0.35156 0.78125 0.78125 0.78125 0.43359 0 0.78125-0.35156 0.78125-0.78125zm7.957 0v0.003907c0-0.43359-0.35156-0.78125-0.78125-0.78125-0.43359 0-0.78125 0.34766-0.78125 0.78125v12.145c0 0.42969 0.34766 0.78125 0.78125 0.78125 0.42969 0 0.78125-0.35156 0.78125-0.78125zm7.957 0v0.003907c0-0.43359-0.35156-0.78125-0.78125-0.78125s-0.78125 0.34766-0.78125 0.78125v12.145c0 0.42969 0.35156 0.78125 0.78125 0.78125s0.78125-0.35156 0.78125-0.78125zm-55.125-6.4141v0.48047h4.3242c0.67188 0 1.3359 0.16406 1.9375 0.46875v-0.92969c0-1.7227-1.4023-3.125-3.125-3.125-1.7266 0-3.125 1.4023-3.125 3.125zm-2.4375 15.625v-13.301c-3.5742 0.70312-6.8086 2.582-9.1875 5.3359-2.3828 2.7539-3.7773 6.2227-3.957 9.8594h11.227c1.043 0 1.8945-0.83203 1.918-1.875zm-13.188 15.895v-12.406h11.27c1.918 0 3.4766-1.5508 3.4805-3.4688v-13.543c0.51172 0 1.043-0.074218 1.5625-0.074218h3.6367v0.003906c1.5586 0 2.8281 1.2617 2.832 2.8242v28.707c0 0.42969-0.35156 0.78125-0.78125 0.78125h-2.582c-0.15234-3.9688-3.4102-7.1094-7.3828-7.1094-3.9688 0-7.2305 3.1406-7.3789 7.1094h-1.7812c-0.75781 0.015625-1.4883-0.27734-2.0312-0.80859-0.53906-0.53125-0.84375-1.2578-0.84375-2.0156zm7.293-7.8867v0.003907c0 0.42969 0.34766 0.78125 0.78125 0.78125h4.3945c0.42969 0 0.78125-0.35156 0.78125-0.78125 0-0.43359-0.35156-0.78125-0.78125-0.78125h-4.3867c-0.21094-0.007813-0.41406 0.074219-0.56641 0.21875-0.15625 0.14844-0.24219 0.34766-0.24609 0.5625zm40.176 3.418c4.0391 0.007813 7.3281 3.2539 7.3867 7.293h2.1445c0.14844-3.9688 3.4102-7.1094 7.3789-7.1094 3.9727 0 7.2305 3.1406 7.3828 7.1094h1.4258c2.0742 0 3.7539-1.6758 3.7617-3.75v-6.3125c-0.007813-0.42969-0.35156-0.77734-0.78125-0.78125h-51.824v10.062c-0.003906 0.26562-0.054688 0.53125-0.14453 0.78125h15.875c0.054687-4.0352 3.3359-7.2812 7.375-7.293z"/>
</svg>