<svg xmlns="http://www.w3.org/2000/svg" xml:space="preserve" style="shape-rendering:geometricPrecision;text-rendering:geometricPrecision;image-rendering:optimizeQuality" viewBox="0 0 8.467 10.583" fill-rule="evenodd" clip-rule="evenodd"><path d="M3.079 1.417a.084.084 0 0 1 .03-.006h.926l-.002-.043-.001-.058a.4.4 0 1 1 .168 0 1.435 1.435 0 0 0 .004.1h.963a.67.67 0 0 1 .292.163c.07.07.127.154.176.255.007.012.011.026.011.042v1.797c0 .015-.004.029-.01.041h-.001v.001a1.314 1.314 0 0 1-.171.274.607.607 0 0 1-.266.188.086.086 0 0 1-.031.006h-.032a.232.232 0 0 1 .087.084.403.403 0 0 1 .246-.056h.003c.05.006.096.024.133.05.041.03.072.07.09.118a.327.327 0 0 1-.03.264c.163.2.312.323.446.367.123.04.236.01.34-.093.022-.044.058-.102.11-.173a5.24 5.24 0 0 1 .214-.274l.001-.002h.001V4.46l.002-.002.001-.001.002-.002.001-.001.003-.003.002-.002h.001l.002-.002.002-.001.001-.002h.002l.002-.002.002-.001.002-.001.001-.001h.002v-.001h.002l.002-.002h.002l.002-.001h.002v-.001h.002a.376.376 0 0 1 .136-.027h.001c.05.002.09.02.12.052.027.03.042.07.044.12.001.019 0 .039-.002.061.183-.028.314-.034.393-.018.15.028.194.096.134.203a.245.245 0 0 1 .094.144.168.168 0 0 1-.042.141c.017.02.03.04.038.059.023.055.014.102-.026.141a.21.21 0 0 1-.116.051c-.101.017-.278.006-.532-.031a.35.35 0 0 1-.168.068.508.508 0 0 1-.198-.016 1.212 1.212 0 0 1-.107.074c-.2.123-.396.16-.59.109-.189-.05-.37-.18-.546-.393a2.474 2.474 0 0 1-.176-.245.284.284 0 0 1-.022-.004v1.342a.29.29 0 0 1-.018.147.222.222 0 0 1-.133.117l-.002.001a.073.073 0 0 1-.011.004h-.002a.083.083 0 0 1-.02.003h-.072a.596.596 0 0 1-.102.177 22.89 22.89 0 0 1 .001.688h.147l.013.001.014.004.01.004h.002l.001.002h.002l.002.002h.002l.002.002.003.002.002.001.001.002.002.001.001.001.002.002.005.005.002.002v.002h.001c.069.078.1.16.095.246v.002a.378.378 0 0 1-.121.237l-.001.001a.084.084 0 0 1-.064.028h-.638a.084.084 0 0 1-.05-.017h-.002c-.094-.065-.14-.143-.14-.236 0-.078.036-.16.107-.249a18.731 18.731 0 0 1-.002-.29l.003-.463a.53.53 0 0 1-.055-.085l-.003-.005a.555.555 0 0 1-.029-.067H4.01a.697.697 0 0 1-.063.116l.002.41-.002.4a.607.607 0 0 1 .032.061c.034.079.043.15.025.216a.284.284 0 0 1-.132.168.49.49 0 0 1-.059.032H3.81v.001h-.002l-.001.001h-.001l-.001.001h-.002l-.002.002h-.002l-.005.002h-.001l-.007.001h-.002l-.011.001h-.574a.085.085 0 0 1-.036-.008h-.001a.082.082 0 0 1-.017-.011l-.001-.001-.002-.002a.523.523 0 0 1-.093-.094.265.265 0 0 1-.058-.162c.001-.056.022-.11.062-.161a.492.492 0 0 1 .09-.087l.002-.001a.084.084 0 0 1 .054-.02h.098v-.736a.581.581 0 0 1-.067-.13h-.087a.236.236 0 0 1-.17-.073l-.005-.006a.265.265 0 0 1-.055-.183V4.98c-.188.294-.39.477-.606.548-.24.079-.489.02-.747-.174a1.386 1.386 0 0 1-.168.032.733.733 0 0 1-.177.003l-.008-.002a2.629 2.629 0 0 0-.236-.017 5.217 5.217 0 0 0-.302 0H.666a.22.22 0 0 1-.08-.005.13.13 0 0 1-.083-.062L.5 5.296a.161.161 0 0 1-.011-.101.335.335 0 0 1 .016-.058.2.2 0 0 1-.033-.023.128.128 0 0 1-.049-.099c0-.034.014-.066.041-.097A.29.29 0 0 1 .51 4.88a.17.17 0 0 1-.016-.076c0-.062.033-.136.1-.224h.001v-.001l.002-.001v-.001l.002-.002v-.001L.6 4.572l.001-.002.003-.003.005-.004.004-.002.008-.005.002-.002h.002l.002-.001.003-.002h.002l.002-.001h.002l.002-.001H.64v-.001h.004l.002-.001h.002l.004-.001H.677v.001h.004l.002.001c.115.026.22.048.314.064H1l.102.018a.315.315 0 0 1-.006-.048V4.58a.163.163 0 0 1 .034-.113.149.149 0 0 1 .109-.053c.04-.003.09.005.147.025a.084.084 0 0 1 .04.027v.001c.033.037.074.085.124.145l.179.22c.137.144.27.199.4.165.131-.035.268-.16.409-.373a.268.268 0 0 1 .038-.266.34.34 0 0 1 .09-.083l.004-.003a.325.325 0 0 1 .12-.044c.061-.01.124 0 .18.033a.27.27 0 0 1 .112-.09h-.003a.653.653 0 0 1-.257-.168 1.143 1.143 0 0 1-.201-.295.084.084 0 0 1-.011-.042V1.87c0-.015.004-.03.01-.042h.001a.833.833 0 0 1 .19-.256.75.75 0 0 1 .268-.155zm.734 6.156h-.585a.291.291 0 0 0-.043.042.098.098 0 0 0-.025.058c0 .018.008.038.024.06a.32.32 0 0 0 .046.048h.524l.027-.015c.033-.02.052-.043.06-.068.006-.027 0-.062-.018-.104l-.01-.021zm-.346-.17h.31l.002-.339-.001-.256a.351.351 0 0 1-.312.006v.59zm1.327.169a4.51 4.51 0 0 0-.377-.01c-.042.053-.063.098-.063.135 0 .03.017.057.05.084h.575a.193.193 0 0 0 .054-.109v-.001a.154.154 0 0 0-.034-.098h-.203l-.002-.001zm-.333-.179a4.7 4.7 0 0 1 .263.006 26.553 26.553 0 0 0 0-.565.341.341 0 0 1-.263-.007l-.001.331v.235zm.348-.855h-.418c.013.025.03.049.049.07l.004.004c.04.042.09.07.142.075a.205.205 0 0 0 .156-.06l.007-.007a.312.312 0 0 0 .058-.078l.002-.004zm-.988 0h-.405c.009.016.018.03.029.044v.002h.001l.001.001.001.002.004.005.369-.054zm-.369.054c.015.018.03.032.046.045.038.029.08.043.12.042a.203.203 0 0 0 .123-.047.314.314 0 0 0 .054-.056l.003-.004a.429.429 0 0 0 .023-.034l-.369.055zm3.67-3.094h.015l-.006-.001h-.008zm.196.004a.162.162 0 0 1-.113.153l-.005.002a.22.22 0 0 1-.139 0c-.064-.022-.115-.073-.118-.153V3.491c.003-.08.054-.13.118-.152a.214.214 0 0 1 .139 0l.005.002a.162.162 0 0 1 .113.152V3.502zm-.096-.31a.085.085 0 0 1-.169 0v-.479a.085.085 0 0 1 .17 0v.478zm.801.288a.447.447 0 0 1 0 .261.404.404 0 0 1-.159.205.083.083 0 0 1-.052.018H6.464a.084.084 0 0 1-.053-.018.416.416 0 0 1-.161-.203.437.437 0 0 1-.003-.263l.001-.003v-.002l.001-.002v-.002h.001v-.002l.001-.002.001-.002.001-.002v-.002h.001V3.46l.002-.002v-.001l.002-.002.001-.002c.245-.42.477-.798.696-1.132l.001-.002.003-.003v-.002l.002-.002.001-.001.002-.002.001-.001.001-.002.002-.001.001-.002.003-.003.006-.004h.001l.006-.004a.274.274 0 0 1 .142-.04c.05 0 .1.013.15.035.017.007.03.02.04.035v.002c.22.333.45.71.695 1.129v.002l.002.001v.002l.002.002v.002l.002.002v.002l.001.002.001.002v.002l.001.002.001.002v.002l.001.002zm-.239.315a.229.229 0 0 0 .08-.106.28.28 0 0 0-.002-.158 24.246 24.246 0 0 0-.675-1.099.187.187 0 0 0-.06-.011.113.113 0 0 0-.041.007c-.212.322-.437.69-.677 1.103a.27.27 0 0 0 0 .156c.014.04.041.076.082.108h1.293zm-.247 1.397a3.11 3.11 0 0 1-.23-.003l-.038-.001c.123.013.215.017.275.01l-.007-.006zm-.476-.19c.092.01.176.015.253.019.085.004.16.004.227.002.02-.013.03-.022.029-.027-.003-.014-.024-.035-.063-.062a2.3 2.3 0 0 1-.446.031v.038zm.194-.21h.007a2.232 2.232 0 0 0-.007 0zm-.33-.076v-.002a.396.396 0 0 0 .024-.126v-.011h-.003a.178.178 0 0 0-.055.01 5.06 5.06 0 0 0-.195.25 1.028 1.028 0 0 0-.095.15c-.02.064-.021.113-.005.147l.001.003c.015.03.049.054.1.071h.001l.002.001h.002l.002.001.002.001c.062.02.116.027.162.021a.19.19 0 0 0 .06-.018l-.004-.015-.003-.007a.598.598 0 0 1-.022-.099V5.09a.818.818 0 0 1 0-.22l.009-.07.013-.072.002-.005v-.001l.002-.006zm-.504.425a.453.453 0 0 1-.363.024c-.154-.05-.317-.177-.49-.378a.473.473 0 0 1-.117.105c.043.064.086.122.128.174.152.184.305.297.458.336.148.039.301.01.46-.088l.02-.013a.271.271 0 0 1-.072-.09l-.003-.006a.28.28 0 0 1-.02-.064zm-.927-.548.001-.002c.044-.069.054-.124.04-.16a.078.078 0 0 0-.028-.038.123.123 0 0 0-.056-.02h-.002a.262.262 0 0 0-.198.075v.3a.179.179 0 0 0 .02.007.13.13 0 0 0 .044.007h.002a.132.132 0 0 0 .077-.035.44.44 0 0 0 .093-.124l.004-.005.003-.005zm-4.33.607a13.15 13.15 0 0 0-.493-.022.278.278 0 0 0-.009.022h.002a5.28 5.28 0 0 1 .497.012l.003-.012zm-.531-.192a11.267 11.267 0 0 1 .552.024v-.036a3.768 3.768 0 0 0-.249-.023H.935a2.56 2.56 0 0 0-.253-.002.604.604 0 0 0-.06.034l.011.003zm.717-.097v.008a.933.933 0 0 1-.004.212v.002a1.18 1.18 0 0 1-.014.088 1.297 1.297 0 0 0 .211-.038.131.131 0 0 0 .047-.08.449.449 0 0 0-.004-.178L1.42 4.72a5.287 5.287 0 0 0-.108-.127.242.242 0 0 0-.047-.01.429.429 0 0 0 .037.113l.001.002.002.004v.002l.001.001v.002c.012.032.021.066.028.099l.001.004a.91.91 0 0 1 .015.099v.002zm-.687-.108a2.65 2.65 0 0 1 .28.002h.002c.07.004.143.01.22.019l-.004-.016a3.265 3.265 0 0 1-.19-.028l-.004-.001a7.225 7.225 0 0 1-.27-.055c-.023.035-.035.061-.035.079zm1.045.449c.194.132.377.17.547.114.181-.06.357-.224.526-.494a.465.465 0 0 1-.14-.1c-.153.217-.31.346-.47.389a.486.486 0 0 1-.407-.077.44.44 0 0 1-.009.057.322.322 0 0 1-.047.11zm1.205-.512v-.303a.1.1 0 0 0-.098-.042.158.158 0 0 0-.057.022l-.002.002a.17.17 0 0 0-.044.04.105.105 0 0 0-.008.122l.002.002v.002h.001c.03.046.064.081.1.107.033.024.068.04.106.048zm.17 1.152a139.647 139.647 0 0 0 2 0v-1.49c0-.024 0-.042-.005-.053l-.001-.002c-.004-.008-.014-.017-.032-.027H3.166a.127.127 0 0 0-.053.034.142.142 0 0 0-.03.065v1.473zm2 .168a134.272 134.272 0 0 1-2 0v.218l-.001.002c0 .034.004.057.015.07l.002.002c.01.01.027.015.052.016h1.898c.017-.007.027-.015.03-.024a.141.141 0 0 0 .004-.063.09.09 0 0 1 0-.015V6.06zm-1.09-2.507a.084.084 0 0 1-.13-.11l.03-.032a.337.337 0 0 1 .237-.112c.082 0 .164.034.245.104l.039.035a.085.085 0 0 1-.12.12l-.028-.027c-.05-.042-.094-.063-.134-.063-.038 0-.078.021-.119.062l-.02.023zm.635-.757c.001.027.018.044.04.052a.122.122 0 0 0 .08 0c.023-.009.042-.026.043-.052v-.004c-.001-.025-.02-.043-.044-.05a.126.126 0 0 0-.08-.001.055.055 0 0 0-.039.051v.004zm.332.005c-.003.106-.07.175-.157.206a.297.297 0 0 1-.192 0 .216.216 0 0 1-.152-.21v-.005c0-.111.067-.18.152-.21a.29.29 0 0 1 .192 0c.086.03.154.1.157.206V2.8zm-1.589-.005c.001.027.018.044.04.052a.122.122 0 0 0 .08 0c.023-.01.042-.026.043-.052v-.004c-.001-.025-.02-.043-.043-.05a.126.126 0 0 0-.08-.001c-.022.007-.039.024-.04.051v.004zm.332.005c-.002.106-.07.175-.157.206a.306.306 0 0 1-.192 0 .216.216 0 0 1-.152-.21v-.005c0-.111.067-.18.152-.21a.291.291 0 0 1 .192 0c.086.03.155.1.157.206V2.8zm.761-.486a.084.084 0 0 1 .158-.06c.007.018.031.036.072.052.057.023.138.04.242.05a.084.084 0 0 1-.016.168 1.063 1.063 0 0 1-.29-.06c-.086-.036-.142-.086-.166-.15zm-.854-.088a.084.084 0 0 1 .121.117.579.579 0 0 1-.2.136.655.655 0 0 1-.244.045.084.084 0 0 1 0-.168.488.488 0 0 0 .181-.034.41.41 0 0 0 .142-.096zM4.28.754a.232.232 0 1 0-.328.327.232.232 0 0 0 .328-.327zm1.196 2.894v-1.76a.722.722 0 0 0-.137-.193.5.5 0 0 0-.187-.115h-2.03a.581.581 0 0 0-.2.117.66.66 0 0 0-.144.192v1.759c.044.087.1.171.164.238a.491.491 0 0 0 .18.122h2.03a.443.443 0 0 0 .182-.134c.055-.065.1-.144.142-.226z" style="fill:#000;fill-rule:nonzero"/></svg>