<svg xmlns="http://www.w3.org/2000/svg" version="1.1" viewBox="-5.0 -10.0 110.0 135.0">
 <path d="m37 59c-1.1016 0-2 0.89844-2 2s0.89844 2 2 2 2-0.89844 2-2-0.89844-2-2-2zm34 7c1.1016 0 2-0.89844 2-2s-0.89844-2-2-2-2 0.89844-2 2 0.89844 2 2 2zm24-31v7h-3l-2.5-5h-18.828l0.26172 1.5586 14.969-1.5586c0.5-0.050781 0.96875 0.28125 1.0781 0.78125l2 9c0.007812 0.070312 0.019531 0.14844 0.019531 0.21875v0.82812c0 0.44922-0.30078 0.85156-0.73828 0.96875l-12.039 3.2305c1.3789 0.82812 2.6094 1.8906 3.6289 3.1406l-1.7812 1.7812c-1.8086-1.8281-4.3086-2.9492-7.0703-2.9492-0.66016 0-1.2891 0.070312-1.9219 0.19141-0.46094 0.23047-0.89062 0.48828-1.3086 0.78125l0.87109 2.4492c0.73828-0.27344 1.5312-0.42188 2.3594-0.42188 3.8711 0 7 3.1289 7 7s-3.1289 7-7 7-7-3.1289-7-7h-17.461c-1.2695 4.0586-5.0586 7-9.5391 7-5.1602 0-9.3984-3.8984-9.9414-8.9102l-3.3086 1.6484 2.1602 4.8516c0.14062 0.30859 0.10938 0.67188-0.078125 0.94922-0.19141 0.28125-0.49219 0.46094-0.83203 0.46094h-18c-0.55078 0-1-0.44922-1-1v-2c0-0.37891 0.21094-0.71875 0.55078-0.89062l4.2109-2.1094h-0.64844l-2.8906-5 2.8906-5h5.7695l1.9883 3.4414 14.891-7.4414h-8.7617c-0.48828 0-0.91016-0.35156-0.98828-0.83984l-3-18c-0.050781-0.28906 0.03125-0.58984 0.21875-0.80859 0.19922-0.22266 0.48047-0.35156 0.76953-0.35156h19c0.058594 0 0.10938 0.03125 0.16016 0.039062l0.83984-5.0391h17l1.3281 8h33.672c1.1016 0 2 0.89844 2 2zm-69-3h-3.8203l2.6719 16h1.1484zm11.871 5.7188 0.94922-5.7188h-10.82v12zm-14.41 30.281-2.9492-6.6406-12.512 6.2617v0.37891zm7.1406-14.68-12.02 6.0117-0.58203 1.0078v0.039062l2.5508-1.2812c0.23828-0.12109 0.53125-0.14062 0.78906-0.050781 0.26172 0.089844 0.46094 0.28906 0.57812 0.53906l1.0312 2.3203 4.1289-2.0586c0.29297-2.6172 1.6016-4.9258 3.5234-6.5273zm11.398 7.6797c0-2.7617-2.2383-5-5-5s-5 2.2383-5 5 2.2383 5 5 5 5-2.2383 5-5zm25 3c0 2.2109 1.7891 4 4 4s4-1.7891 4-4-1.7891-4-4-4-4 1.7891-4 4zm-28.141-20.078-0.69141 4.1406c6.2891 0.55859 11.309 5.6289 11.789 11.949h11.68c1.3516-4.1719 4.7383-7.4219 9-8.5586l16.352-4.3789-1.7695-7.9688z"/>
</svg>