<svg xmlns="http://www.w3.org/2000/svg" xmlns:xlink="http://www.w3.org/1999/xlink" version="1.1" x="0px" y="0px" viewBox="0 0 69 86.25" style="enable-background:new 0 0 69 69;" xml:space="preserve">
    <g>
        <path d="M66.22527,34.72164l-9.34115-9.44188c-0.174-0.174-0.41212-0.26556-0.65024-0.26556H43.72411   c-0.51284,0-0.9158,0.40295-0.9158,0.9158v9.43271c0,0.13739,0.02745,0.27473,0.09156,0.40295l1.87737,3.91964H18.36566   c-0.50368,0-0.9158,0.41206-0.9158,0.9158v4.55149c0,0.50368,0.41212,0.9158,0.9158,0.9158h47.15443   c0.50368,0,0.9158-0.41212,0.9158-0.9158v-4.26759C66.48167,40.78421,66.5,40.67432,66.5,40.55526v-5.19256   C66.5,35.12459,66.39928,34.88647,66.22527,34.72164z M46.91107,37.30419v-9.1122h5.91607l9.02059,9.1122H46.91107z"/>
        <path d="M33.64116,23.73206l-2.08799-1.26381l-7.16401,12.40911h-4.98865c-0.50368,0-0.9158,0.41206-0.9158,0.9158v2.06055   h14.98244v-2.06055c0-0.50373-0.41212-0.9158-0.9158-0.9158h-4.15983l6.2112-10.75151   C34.2639,24.04346,33.94339,23.91523,33.64116,23.73206z"/>
        <path d="M5.27892,39.50213l1.33613-2.3118l1.50589,1.47163c0.36075,0.35349,0.94201,0.3475,1.295-0.01431   c0.35416-0.36221,0.347-0.94173-0.01431-1.295l-1.84071-1.7989l0.92038-1.59241l2.3924,2.33779   c0.36752,0.35835,0.94688,0.34253,1.295-0.01431c0.35416-0.36221,0.347-0.94173-0.01431-1.29499l-2.72721-2.66506l1.04274-1.80409   l0.02549,0.01895l3.44945,3.37164c0.36752,0.35835,0.94688,0.34253,1.295-0.01431c0.35416-0.36221,0.347-0.94173-0.01431-1.295   l-3.49416-3.41457c-0.02951-0.02862-0.06081-0.05545-0.09391-0.08049l-0.2451-0.18233l0.73576-1.27303l4.4407,4.33959   c0.36752,0.35835,0.94688,0.34253,1.295-0.01431c0.35416-0.36221,0.347-0.94173-0.01431-1.295l-4.71761-4.61029   c-0.01906-0.01845-0.04002-0.03493-0.06059-0.05193l1.70007-2.94146l0.07758,0.15025   c0.22414,0.42347,0.75169,0.63151,1.22719,0.39379l1.60265-0.79674c0.42129-0.21062,0.61357-0.70518,0.44873-1.13558   l-0.99025-2.70519l3.17902-5.50038c2.59172,1.5752,6.96921,4.24015,14.26815,8.6818   c0.79674,0.47618,1.89565,0.22895,2.39939-0.64107c0.47618-0.82424,0.19228-1.90487-0.65024-2.38111L18.46638,8.25511   c-0.58132-0.31017-1.10031-0.30564-1.6226-0.05237c-0.20955-0.1024-0.45734-0.1261-0.69439-0.04561l-3.97442,1.34597   c-0.32375,0.11-0.55985,0.38993-0.61172,0.72799l-0.15025,0.97359l-1.3628,0.57623   c-0.22895,0.10072-0.41212,0.29306-0.50368,0.53118c-0.08245,0.23812-0.06411,0.50368,0.04578,0.73263l4.18107,8.09987   l-2.17972,3.77213l-0.14399-0.1071c-0.06529-0.04829-0.13773-0.08854-0.21375-0.11805l-5.54487-2.15982   c-0.46953-0.18513-1.00165,0.04919-1.18589,0.5205c-0.18334,0.47132,0.04919,1.00255,0.5205,1.18589l5.4304,2.1151l0.21503,0.15998   l-0.83274,1.44099l-3.69746-1.43999c-0.47489-0.18513-1.00344,0.05008-1.18589,0.5205   c-0.18334,0.47131,0.04919,1.00255,0.5205,1.18589l3.43581,1.33798l-0.98639,1.70689l-3.17919-1.23742   c-0.46953-0.18513-1.00255,0.04919-1.18499,0.5214c-0.18334,0.47132,0.05008,1.00166,0.5214,1.18499L6.998,32.86958   l-0.92614,1.60276l-2.32331-0.9054c-0.46863-0.18513-1.00165,0.04829-1.18589,0.5205   c-0.18334,0.47131,0.04919,1.00255,0.5205,1.18589l2.06161,0.80334l-1.45022,2.50967   c-0.25639,0.43956-0.10989,0.99819,0.32967,1.25464C4.43814,40.07361,5.00984,39.96953,5.27892,39.50213z M15.8935,10.17737   c0.10548,0.44711,0.38339,0.85319,0.81457,1.10903c0.05349,0.03264,0.12146,0.07412,0.18764,0.11448l-0.01364-0.00458   c0.02744,0.01833,0.03661,0.02744,0.05494,0.03661l-0.01772-0.01766c0.68914,0.42034,1.9179,1.16962,1.83098,1.11663   l-2.43354,4.21131l-2.08134-5.68573c-0.0351-0.09754-0.09642-0.18334-0.16383-0.26333L15.8935,10.17737z"/>
        <path d="M58.5051,50.50087c0-1.14475-0.66857-2.12466-1.63931-2.60089h-2.52761c-0.97075,0.47623-1.63926,1.45614-1.63926,2.60089   c0,1.60265,1.30042,2.91223,2.90306,2.91223S58.5051,52.10352,58.5051,50.50087z"/>
        <path d="M31.18683,50.78477c0-1.53049-1.20316-2.78635-2.71799-2.88434H28.0987c-1.51484,0.09799-2.71805,1.35386-2.71805,2.88434   c0,1.60265,1.30047,2.91223,2.90312,2.91223C29.88641,53.697,31.18683,52.38742,31.18683,50.78477z"/>
        <path d="M64.05483,55.32709c1.1997-2.28033,1.45609-4.98194,0.86086-7.42711h-5.36662   c0.49457,0.75096,0.78763,1.63926,0.78763,2.60089c0,2.61917-2.12466,4.74383-4.73471,4.74383   c-2.61,0-4.73466-2.12466-4.73466-4.74383c0-0.96163,0.29306-1.84993,0.78757-2.60089h-5.36656   c-0.22895,0.83341-0.35717,1.70337-0.35717,2.60089c0,3.77079,2.15646,7.03696,5.29809,8.65028H33.22172   c2.86115-1.69353,4.78782-4.80101,4.78782-8.35722c0-0.98908-0.15573-1.95982-0.44873-2.89396h-5.54974   c0.62274,0.80591,1.00735,1.79499,1.00735,2.88479c0,2.61917-2.12466,4.74382-4.73466,4.74382   c-2.61006,0-4.73472-2.12466-4.73472-4.74382c0-1.0898,0.38468-2.07888,1.00741-2.88479h-5.54973   c-0.29306,0.93413-0.44873,1.90488-0.44873,2.89396c0,3.55621,1.92668,6.66368,4.78782,8.35722H4.99168   c-0.50619,0-0.9158,0.4096-0.9158,0.9158c0,0.50619,0.40961,0.9158,0.9158,0.9158H64.0052c0.5062,0,0.9158-0.40961,0.9158-0.9158   c0-0.5062-0.40961-0.9158-0.9158-0.9158h-3.78879C61.83448,58.31747,63.16363,57.0294,64.05483,55.32709z"/>
    </g>
</svg>