<?xml version="1.0" encoding="UTF-8"?>
<svg version="1.1" xmlns="http://www.w3.org/2000/svg" width="260" height="129">
<path d="M0 0 C2.2300156 1.6482724 4.18452751 3.43459787 6.16796875 5.37109375 C8.00626252 7.22099913 8.00626252 7.22099913 11 8 C11.3711977 14.55782603 11.3711977 14.55782603 9.69484806 16.55470848 C9.1355482 17.03165468 8.57624834 17.50860088 8 18 C7.20349486 18.6901995 7.20349486 18.6901995 6.3908987 19.39434242 C5.83122937 19.86222364 5.27156004 20.33010487 4.69493103 20.81216431 C1.26529132 23.73238528 -1.94612129 26.81053957 -5.11889648 30.00537109 C-5.68562576 30.57195435 -6.25235504 31.1385376 -6.83625793 31.72229004 C-8.68358747 33.57030868 -10.52736301 35.42182903 -12.37109375 37.2734375 C-13.66124403 38.56545552 -14.95161724 39.85725096 -16.24220276 41.14883423 C-19.61944189 44.52987043 -22.99366562 47.91390014 -26.36724854 51.29858398 C-29.81786929 54.75947959 -33.27136338 58.21750543 -36.72460938 61.67578125 C-43.48587186 68.44773144 -50.24394899 75.22285083 -57 82 C-54.81170957 82.22293325 -54.81170957 82.22293325 -53.0546875 80.25 C-52.33539063 79.5075 -51.61609375 78.765 -50.875 78 C-50.15054688 77.2575 -49.42609375 76.515 -48.6796875 75.75 C-48.12539062 75.1725 -47.57109375 74.595 -47 74 C-46.07767578 74.46792969 -46.07767578 74.46792969 -45.13671875 74.9453125 C-43.01662569 76.02630771 -43.01662569 76.02630771 -40.8125 76.875 C-38.44683845 78.34334165 -38.65285862 79.3885655 -38 82 C-37.01 82.495 -37.01 82.495 -36 83 C-35.01 83.495 -35.01 83.495 -34 84 C-33.66666667 85.33333333 -33.33333333 86.66666667 -33 88 C-32.01 88.495 -32.01 88.495 -31 89 C-30.01 89.495 -30.01 89.495 -29 90 C-28.66666667 91.33333333 -28.33333333 92.66666667 -28 94 C-26.68352881 94.69937532 -25.34977849 95.36729133 -24 96 C-23.67 96.99 -23.34 97.98 -23 99 C-21.515 99.99 -21.515 99.99 -20 101 C-19.835 101.680625 -19.67 102.36125 -19.5 103.0625 C-19.335 103.701875 -19.17 104.34125 -19 105 C-17.515 105.495 -17.515 105.495 -16 106 C-16.33 106.66 -16.66 107.32 -17 108 C-21.03833789 108.0992502 -25.07619872 108.17164562 -29.11547852 108.21972656 C-30.48800023 108.2397799 -31.86043717 108.26703028 -33.23266602 108.30175781 C-35.21072044 108.35054552 -37.18941119 108.37088876 -39.16796875 108.390625 C-40.35672607 108.41157227 -41.5454834 108.43251953 -42.77026367 108.45410156 C-46.62762552 107.91175573 -48.18276061 106.61227529 -51 104 C-51.99 103.505 -51.99 103.505 -53 103 C-53.12375 102.360625 -53.2475 101.72125 -53.375 101.0625 C-53.58125 100.381875 -53.7875 99.70125 -54 99 C-54.99 98.505 -54.99 98.505 -56 98 C-56.99 97.505 -56.99 97.505 -58 97 C-58.36162029 95.67405895 -58.69728039 94.34061543 -59 93 C-59.99 92.67 -60.98 92.34 -62 92 C-62.33 91.01 -62.66 90.02 -63 89 C-63.33 89 -63.66 89 -64 89 C-64.33 94.94 -64.66 100.88 -65 107 C-67.53446873 108.26723437 -69.32226954 108.12941328 -72.15625 108.1328125 C-73.17847656 108.13410156 -74.20070312 108.13539062 -75.25390625 108.13671875 C-76.32511719 108.13285156 -77.39632812 108.12898438 -78.5 108.125 C-80.10681641 108.13080078 -80.10681641 108.13080078 -81.74609375 108.13671875 C-82.76832031 108.13542969 -83.79054688 108.13414063 -84.84375 108.1328125 C-85.78412109 108.13168457 -86.72449219 108.13055664 -87.69335938 108.12939453 C-90 108 -90 108 -92 107 C-92 92.81 -92 78.62 -92 64 C-91.01 63.505 -91.01 63.505 -90 63 C-90.33 62.484375 -90.66 61.96875 -91 61.4375 C-92.38499723 58.06156926 -92.37508781 55.62584884 -92 52 C-89.85551253 47.94079158 -88.21507866 45.7283281 -84 44 C-73.09444021 40.95658797 -73.09444021 40.95658797 -68.8515625 43.0703125 C-66.5919271 45.26381223 -65.22270169 46.97480431 -64.546875 50.0859375 C-64.11096733 52.39376786 -64.11096733 52.39376786 -61 54 C-60.34045319 53.33823257 -59.68090637 52.67646515 -59.00137329 51.99464417 C-52.79439234 45.76741747 -46.58479229 39.54281321 -40.37259865 33.32078648 C-37.17871094 30.1216736 -33.98576281 26.92163442 -30.79492188 23.71948242 C-27.71726215 20.63098087 -24.63718707 17.54490746 -21.55540085 14.46052361 C-20.37833136 13.28160222 -19.20214436 12.10179908 -18.02684402 10.92111397 C-16.38429785 9.27134023 -14.73868083 7.62469062 -13.09228516 5.97875977 C-12.60388657 5.4867659 -12.11548798 4.99477203 -11.61228943 4.48786926 C-7.73706648 0.62451869 -5.59234058 -0.8284949 0 0 Z M9 9 C9 10.98 9 12.96 9 15 C9.33 15 9.66 15 10 15 C10 13.02 10 11.04 10 9 C9.67 9 9.34 9 9 9 Z M-91 52 C-91 53.98 -91 55.96 -91 58 C-90.67 58 -90.34 58 -90 58 C-90 56.02 -90 54.04 -90 52 C-90.33 52 -90.66 52 -91 52 Z M-70 81 C-70 81.99 -70 82.98 -70 84 C-66.3791799 85.01382963 -62.72188582 85.49897691 -59 86 C-61.22825644 83.77174356 -62.65761628 83.30760631 -65.625 82.375 C-66.44226563 82.11460938 -67.25953125 81.85421875 -68.1015625 81.5859375 C-69.04128906 81.29589844 -69.04128906 81.29589844 -70 81 Z " fill="#00DE00" transform="translate(204,13)"/>
<path d="M0 0 C1.19009039 0.95055949 2.35908959 1.92844009 3.5 2.9375 C4.05429688 3.4221875 4.60859375 3.906875 5.1796875 4.40625 C7.32668862 6.89626314 7.16416968 9.74711192 7.5 12.9375 C7.75558937 13.86462799 7.75558937 13.86462799 8.01634216 14.81048584 C8.61275307 17.43336165 8.61958484 19.84183074 8.61352539 22.53222656 C8.61341209 24.21351654 8.61341209 24.21351654 8.61329651 25.92877197 C8.60813522 27.13305847 8.60297394 28.33734497 8.59765625 29.578125 C8.5962413 30.81544373 8.59482635 32.05276245 8.59336853 33.32757568 C8.5887211 36.60894941 8.57974347 39.89027373 8.56866455 43.17163086 C8.5584152 46.52327011 8.55394859 49.87491148 8.54882812 53.2265625 C8.53780024 59.7968968 8.52053617 66.36718881 8.5 72.9375 C1.57 72.9375 -5.36 72.9375 -12.5 72.9375 C-13.16 70.6275 -13.82 68.3175 -14.5 65.9375 C-15.09167969 66.34742187 -15.68335938 66.75734375 -16.29296875 67.1796875 C-17.08316406 67.71851562 -17.87335937 68.25734375 -18.6875 68.8125 C-19.46480469 69.34617187 -20.24210937 69.87984375 -21.04296875 70.4296875 C-28.29578755 74.88054292 -36.91288033 75.84676161 -45.25 74.3125 C-49.19283766 73.26250519 -52.35750304 71.45612566 -55.70703125 69.15625 C-57.62622961 67.78990987 -57.62622961 67.78990987 -60.4375 66.5 C-62.5 64.9375 -62.5 64.9375 -63.25 62 C-63.37375 60.4840625 -63.37375 60.4840625 -63.5 58.9375 C-63.7784375 57.9784375 -63.7784375 57.9784375 -64.0625 57 C-64.71201259 53.93801208 -64.60416882 51.06256447 -64.5 47.9375 C-64.49484375 47.28265625 -64.4896875 46.6278125 -64.484375 45.953125 C-64.20995529 40.89596177 -62.5523067 38.08213853 -59.265625 34.28515625 C-57.5 32.9375 -57.5 32.9375 -55.17236328 32.47338867 C-52.52724252 31.94296294 -50.4303058 31.1167508 -47.9765625 30.015625 C-42.07568705 27.59396702 -36.15860614 26.61897017 -29.875 25.6875 C-28.77542969 25.51476562 -27.67585938 25.34203125 -26.54296875 25.1640625 C-23.86342258 24.74465527 -21.18271623 24.33603105 -18.5 23.9375 C-18.5 23.2775 -18.5 22.6175 -18.5 21.9375 C-17.84 21.9375 -17.18 21.9375 -16.5 21.9375 C-16.995 18.4725 -16.995 18.4725 -17.5 14.9375 C-19.15 14.9375 -20.8 14.9375 -22.5 14.9375 C-22.5 14.2775 -22.5 13.6175 -22.5 12.9375 C-24.10517097 13.02483576 -25.70921662 13.13302224 -27.3125 13.25 C-28.20582031 13.30800781 -29.09914062 13.36601563 -30.01953125 13.42578125 C-32.86611312 14.01302885 -33.7690072 14.64393453 -35.5 16.9375 C-36.70049407 20.03757201 -36.70049407 20.03757201 -37.5 22.9375 C-42.61715463 23.09015182 -47.32515395 22.56694468 -52.3125 21.5 C-52.97958984 21.36529297 -53.64667969 21.23058594 -54.33398438 21.09179688 C-59.20783133 20.08358434 -59.20783133 20.08358434 -61.5 18.9375 C-61.88160272 14.16746598 -61.9609004 10.84284008 -59.75 6.5 C-57.55282307 3.99765961 -56.38835501 3.33371589 -53.5 1.9375 C-52.11611363 0.97093345 -50.74157411 -0.0091077 -49.375 -1 C-34.92878062 -10.52984472 -14.02185609 -10.13110683 0 0 Z M-20.5 39.9375 C-16.5 40.9375 -16.5 40.9375 -16.5 40.9375 Z M-38.75 44.5 C-40.00707774 48.58550266 -38.09318653 52.11385234 -36.5 55.9375 C-30.47959378 57.34653124 -26.09056763 56.62097246 -20.5 53.9375 C-17.62127487 51.50857567 -17.30105666 49.28505359 -16.8125 45.6875 C-16.709375 44.45 -16.60625 43.2125 -16.5 41.9375 C-23.42737951 39.72073856 -32.67439723 40.28083141 -38.75 44.5 Z M-15.5 40.9375 C-14.5 44.9375 -14.5 44.9375 -14.5 44.9375 Z " fill="#003084" transform="translate(70.5,48.0625)"/>
<path d="M0 0 C1.68609375 -0.06960937 1.68609375 -0.06960937 3.40625 -0.140625 C12.09864708 -0.41699756 19.00211915 0.18689674 27 4 C28.134375 4.53625 29.26875 5.0725 30.4375 5.625 C31.283125 6.07875 32.12875 6.5325 33 7 C34.0828125 7.495 34.0828125 7.495 35.1875 8 C38.49492093 9.82478396 39.80198787 11.4059636 41 15 C41.99 15.86625 41.99 15.86625 43 16.75 C45.69530131 19.78221397 45.60556783 21.98993961 46 26 C46.34088824 27.41992031 46.69585284 28.836512 47.0625 30.25 C49.43487159 40.7918918 48.56959316 54.13929896 44 64 C35.07123526 74.5044291 22.59721647 80.96374682 8.9453125 82.18359375 C-1.84040066 82.55178075 -12.98715653 79.20546519 -21.2109375 72.0859375 C-22.37285305 70.89460636 -23.50713515 69.67498162 -24.59765625 68.41796875 C-26.05528225 66.73037151 -26.05528225 66.73037151 -29 66 C-32.98352372 60.49336426 -33.72983948 55.71348904 -34 49 C-34.66 49 -35.32 49 -36 49 C-36.495 41.575 -36.495 41.575 -37 34 C-35.02 32.68 -33.04 31.36 -31 30 C-29.95238243 28.36284539 -28.95459492 26.6930819 -28 25 C-26.15005851 22.95372038 -24.29288069 20.98869594 -22.34375 19.04296875 C-21.80020874 18.49514236 -21.25666748 17.94731598 -20.69665527 17.38288879 C-19.55275573 16.23327222 -18.40626162 15.08623209 -17.25732422 13.94165039 C-15.49683131 12.18433703 -13.75013094 10.41405711 -12.00390625 8.64257812 C-10.88883145 7.52523211 -9.77297296 6.40866752 -8.65625 5.29296875 C-8.13430054 4.76180954 -7.61235107 4.23065033 -7.07458496 3.68339539 C-3.3438237 0 -3.3438237 0 0 0 Z M-5 26 C-5.33 26.825 -5.66 27.65 -6 28.5 C-7 31 -7 31 -8.5390625 32.25 C-10.74288507 34.88987302 -10.39782426 37.12200982 -10.375 40.5 C-10.38273437 41.6446875 -10.39046875 42.789375 -10.3984375 43.96875 C-9.96080081 47.29822131 -9.47862153 47.92708634 -7 50 C-6.731875 50.969375 -6.46375 51.93875 -6.1875 52.9375 C-4.60816909 57.01051129 -2.85523363 58.03601306 1 60 C6.77994217 61.63583269 11.71320681 60.71338469 17 58 C19.04576794 55.17201547 19.04576794 55.17201547 20 52.375 C21 50 21 50 23 49 C24.40889693 44.75489226 24.76641707 40.40162466 24 36 C22.69341733 33.48332076 21.21369833 31.3051217 19.5078125 29.04296875 C18 27 18 27 16.93359375 24.81640625 C16.10734708 22.81892274 16.10734708 22.81892274 13.9375 21.75 C6.87920961 19.9478833 -0.09581427 19.9812266 -5 26 Z M-32 56 C-31 58 -31 58 -31 58 Z " fill="#003083" transform="translate(206,39)"/>
<path d="M0 0 C7.92 0 15.84 0 24 0 C24 25.74 24 51.48 24 78 C16.08 78 8.16 78 0 78 C0 52.26 0 26.52 0 0 Z " fill="#003184" transform="translate(84,43)"/>
<path d="M0 0 C4 0 4 0 5.640625 1.46875 C6.17171875 2.1390625 6.7028125 2.809375 7.25 3.5 C9.81418056 6.60022693 12.42751583 9.56832032 15.25 12.4375 C16.21679688 13.42556641 16.21679688 13.42556641 17.203125 14.43359375 C19.02037599 16.22069205 19.02037599 16.22069205 22 17 C22.33 17.99 22.66 18.98 23 20 C29.27127355 21.23069009 29.27127355 21.23069009 35 19 C36.21829434 18.05942437 37.40659214 17.07876799 38.5625 16.0625 C39.14128906 15.55847656 39.72007812 15.05445312 40.31640625 14.53515625 C41.92669359 13.0668432 43.47325679 11.55458655 45 10 C46.33333333 10.66666667 47.66666667 11.33333333 49 12 C49.721875 12.28875 50.44375 12.5775 51.1875 12.875 C53.55316155 14.34334165 53.34714138 15.3885655 54 18 C54.66 18.33 55.32 18.66 56 19 C56.66 19.33 57.32 19.66 58 20 C58.33333333 21.33333333 58.66666667 22.66666667 59 24 C59.66 24.33 60.32 24.66 61 25 C61.66 25.33 62.32 25.66 63 26 C63.33333333 27.33333333 63.66666667 28.66666667 64 30 C65.31647119 30.69937532 66.65022151 31.36729133 68 32 C68.33 32.99 68.66 33.98 69 35 C70.485 35.99 70.485 35.99 72 37 C72.165 37.680625 72.33 38.36125 72.5 39.0625 C72.665 39.701875 72.83 40.34125 73 41 C74.485 41.495 74.485 41.495 76 42 C75.505 42.99 75.505 42.99 75 44 C70.96166211 44.0992502 66.92380128 44.17164562 62.88452148 44.21972656 C61.51199977 44.2397799 60.13956283 44.26703028 58.76733398 44.30175781 C56.78927956 44.35054552 54.81058881 44.37088876 52.83203125 44.390625 C51.64327393 44.41157227 50.4545166 44.43251953 49.22973633 44.45410156 C45.37237448 43.91175573 43.81723939 42.61227529 41 40 C40.01 39.505 40.01 39.505 39 39 C38.87625 38.360625 38.7525 37.72125 38.625 37.0625 C38.41875 36.381875 38.2125 35.70125 38 35 C37.01 34.505 37.01 34.505 36 34 C35.01 33.505 35.01 33.505 34 33 C33.63837971 31.67405895 33.30271961 30.34061543 33 29 C32.01 28.67 31.02 28.34 30 28 C29.67 27.01 29.34 26.02 29 25 C28.67 25 28.34 25 28 25 C27.67 30.94 27.34 36.88 27 43 C24.46553127 44.26723437 22.67773046 44.12941328 19.84375 44.1328125 C18.82152344 44.13410156 17.79929688 44.13539062 16.74609375 44.13671875 C15.67488281 44.13285156 14.60367188 44.12898438 13.5 44.125 C11.89318359 44.13080078 11.89318359 44.13080078 10.25390625 44.13671875 C9.23167969 44.13542969 8.20945312 44.13414063 7.15625 44.1328125 C6.21587891 44.13168457 5.27550781 44.13055664 4.30664062 44.12939453 C2 44 2 44 0 43 C0 28.81 0 14.62 0 0 Z " fill="#003285" transform="translate(112,77)"/>
<path d="M0 0 C3.375 1.875 3.375 1.875 6 4 C7.32070628 4.69134444 8.65208723 5.36332631 10 6 C10.13494246 8.6058889 10.23402299 11.20482111 10.3125 13.8125 C10.35439453 14.55048828 10.39628906 15.28847656 10.43945312 16.04882812 C10.48828125 18.20703125 10.48828125 18.20703125 10 22 C7.6171875 23.90625 7.6171875 23.90625 5 25 C4.278125 25.556875 3.55625 26.11375 2.8125 26.6875 C-1.42602515 28.6654784 -5.40357035 28.68614439 -10 28 C-13.375 26.125 -13.375 26.125 -16 24 C-17.32070628 23.30865556 -18.65208723 22.63667369 -20 22 C-20.0809723 19.56183415 -20.14046972 17.12635616 -20.1875 14.6875 C-20.21263672 13.99720703 -20.23777344 13.30691406 -20.26367188 12.59570312 C-20.33792986 7.47190206 -20.33792986 7.47190206 -18.6796875 5.15625 C-18.12539062 4.7746875 -17.57109375 4.393125 -17 4 C-15.989375 3.278125 -14.97875 2.55625 -13.9375 1.8125 C-9.44374405 -0.65335337 -5.00367932 -0.84359552 0 0 Z " fill="#003084" transform="translate(101,5)"/>
<path d="M0 0 C7.59 0 15.18 0 23 0 C23.495 7.92 23.495 7.92 24 16 C21.98871288 14.99435644 19.97608231 13.9863395 18.0234375 12.87109375 C14.35732416 11.29282488 10.76910117 11.95845218 7 13 C4.63006066 14.46733515 2.99061337 16.00938663 1 18 C0.34 17.67 -0.32 17.34 -1 17 C-0.67 11.39 -0.34 5.78 0 0 Z " fill="#003185" transform="translate(114,42)"/>
<path d="M0 0 C0.33 0 0.66 0 1 0 C1 25.41 1 50.82 1 77 C0.67 77 0.34 77 0 77 C0 51.59 0 26.18 0 0 Z " fill="#0055A9" transform="translate(109,43)"/>
<path d="M0 0 C0.33 0 0.66 0 1 0 C1 25.41 1 50.82 1 77 C0.67 77 0.34 77 0 77 C0 51.59 0 26.18 0 0 Z " fill="#0000FF" transform="translate(82,43)"/>
<path d="M0 0 C0.33 0 0.66 0 1 0 C1 18.15 1 36.3 1 55 C0.67 55 0.34 55 0 55 C0 36.85 0 18.7 0 0 Z " fill="#003B7E" transform="translate(80,65)"/>
<path d="M0 0 C0 3 0 3 -1.58886719 4.92944336 C-2.31750977 5.64237549 -3.04615234 6.35530762 -3.796875 7.08984375 C-4.5909375 7.87423828 -5.385 8.65863281 -6.203125 9.46679688 C-7.04359375 10.28212891 -7.8840625 11.09746094 -8.75 11.9375 C-9.575 12.74896484 -10.4 13.56042969 -11.25 14.39648438 C-12.79448318 15.91481098 -14.34202322 17.43003866 -15.89355469 18.94116211 C-17.94448959 20.94574417 -19.97598735 22.96827301 -22 25 C-22 22 -22 22 -19.98046875 19.63989258 C-19.05878906 18.73392334 -18.13710937 17.8279541 -17.1875 16.89453125 C-16.69918701 16.4104631 -16.21087402 15.92639496 -15.70776367 15.42765808 C-14.14540174 13.8820986 -12.57293673 12.34728893 -11 10.8125 C-9.93942238 9.76696718 -8.87951771 8.72075127 -7.8203125 7.67382812 C-5.22130566 5.10791098 -2.6131361 2.55153533 0 0 Z " fill="#005C64" transform="translate(203,39)"/>
<path d="M0 0 C8.91 0 17.82 0 27 0 C27 0.33 27 0.66 27 1 C18.09 1 9.18 1 0 1 C0 0.67 0 0.34 0 0 Z " fill="#00007F" transform="translate(158,122)"/>
<path d="M0 0 C0.66 0.33 1.32 0.66 2 1 C1.67 1.33 1.34 1.66 1 2 C1.66 2.66 2.32 3.32 3 4 C-1.625 8 -1.625 8 -5 8 C-3.8141763 4.62496331 -2.72426311 2.35277269 0 0 Z " fill="#00AF2A" transform="translate(118,57)"/>
<path d="M0 0 C7.59 0 15.18 0 23 0 C23 0.33 23 0.66 23 1 C15.41 1 7.82 1 0 1 C0 0.67 0 0.34 0 0 Z " fill="#00008A" transform="translate(114,122)"/>
<path d="M0 0 C7.59 0 15.18 0 23 0 C23 0.33 23 0.66 23 1 C15.41 1 7.82 1 0 1 C0 0.67 0 0.34 0 0 Z " fill="#000079" transform="translate(85,122)"/>
<path d="M0 0 C7.59 0 15.18 0 23 0 C23 0.33 23 0.66 23 1 C15.41 1 7.82 1 0 1 C0 0.67 0 0.34 0 0 Z " fill="#00008A" transform="translate(114,40)"/>
<path d="M0 0 C7.26 0 14.52 0 22 0 C22 0.33 22 0.66 22 1 C14.74 1 7.48 1 0 1 C0 0.67 0 0.34 0 0 Z " fill="#00007F" transform="translate(85,41)"/>
<path d="M0 0 C6.93 0 13.86 0 21 0 C21 0.33 21 0.66 21 1 C14.07 1 7.14 1 0 1 C0 0.67 0 0.34 0 0 Z " fill="#00007F" transform="translate(58,122)"/>
<path d="M0 0 C0.66 0.33 1.32 0.66 2 1 C-0.64 3.97 -3.28 6.94 -6 10 C-6.66 9.34 -7.32 8.68 -8 8 C-5.36 5.36 -2.72 2.72 0 0 Z " fill="#005A97" transform="translate(188,54)"/>
<path d="M0 0 C2.31 0.33 4.62 0.66 7 1 C7.33 2.65 7.66 4.3 8 6 C6.02 5.34 4.04 4.68 2 4 C2 3.34 2 2.68 2 2 C1.34 1.34 0.68 0.68 0 0 Z " fill="#005962" transform="translate(138,98)"/>
<path d="M0 0 C6.27 0 12.54 0 19 0 C19 0.33 19 0.66 19 1 C12.73 1 6.46 1 0 1 C0 0.67 0 0.34 0 0 Z " fill="#00399C" transform="translate(36,39)"/>
<path d="M0 0 C5.28 0.33 10.56 0.66 16 1 C16 1.33 16 1.66 16 2 C10.39 2 4.78 2 -1 2 C-0.67 1.34 -0.34 0.68 0 0 Z " fill="#004B71" transform="translate(206,36)"/>
<path d="M0 0 C0.33 0 0.66 0 1 0 C1 5.28 1 10.56 1 16 C0.67 16 0.34 16 0 16 C0 10.72 0 5.44 0 0 Z " fill="#0055AA" transform="translate(112,43)"/>
<path d="M0 0 C0.33 0 0.66 0 1 0 C1 4.29 1 8.58 1 13 C0.67 13 0.34 13 0 13 C0 8.71 0 4.42 0 0 Z " fill="#002D7F" transform="translate(197,73)"/>
<path d="M0 0 C0.33 0 0.66 0 1 0 C1 3.63 1 7.26 1 11 C0.67 11 0.34 11 0 11 C0 7.37 0 3.74 0 0 Z " fill="#000073" transform="translate(255,74)"/>
<path d="M0 0 C3.3 0 6.6 0 10 0 C10 0.33 10 0.66 10 1 C6.7 1 3.4 1 0 1 C0 0.67 0 0.34 0 0 Z " fill="#002A7F" transform="translate(91,34)"/>
<path d="M0 0 C3.3 0 6.6 0 10 0 C10 0.33 10 0.66 10 1 C6.7 1 3.4 1 0 1 C0 0.67 0 0.34 0 0 Z " fill="#002E7A" transform="translate(91,3)"/>
<path d="M0 0 C0.33 0 0.66 0 1 0 C1 1.98 1 3.96 1 6 C0.67 5.01 0.34 4.02 0 3 C-0.66 2.67 -1.32 2.34 -2 2 C-1.34 1.34 -0.68 0.68 0 0 Z " fill="#001E71" transform="translate(55,114)"/>
<path d="M0 0 C0.33 0 0.66 0 1 0 C1 2.97 1 5.94 1 9 C0.67 9 0.34 9 0 9 C0 6.03 0 3.06 0 0 Z " fill="#003375" transform="translate(228,75)"/>
<path d="M0 0 C0.33 0 0.66 0 1 0 C1 2.97 1 5.94 1 9 C0.67 9 0.34 9 0 9 C0 6.03 0 3.06 0 0 Z " fill="#001C7F" transform="translate(138,43)"/>
<path d="M0 0 C2.64 0 5.28 0 8 0 C8 0.33 8 0.66 8 1 C5.36 1 2.72 1 0 1 C0 0.67 0 0.34 0 0 Z " fill="#00009F" transform="translate(209,122)"/>
<path d="M0 0 C2.64 0 5.28 0 8 0 C8 0.33 8 0.66 8 1 C5.36 1 2.72 1 0 1 C0 0.67 0 0.34 0 0 Z " fill="#003984" transform="translate(209,61)"/>
<path d="M0 0 C2.31 0 4.62 0 7 0 C7 0.33 7 0.66 7 1 C4.69 1 2.38 1 0 1 C0 0.67 0 0.34 0 0 Z " fill="#002A67" transform="translate(43,90)"/>
<path d="M0 0 C2.31 0 4.62 0 7 0 C7 0.33 7 0.66 7 1 C4.69 1 2.38 1 0 1 C0 0.67 0 0.34 0 0 Z " fill="#00D100" transform="translate(198,11)"/>
<path d="M0 0 C1.98 0 3.96 0 6 0 C6 0.33 6 0.66 6 1 C4.02 1 2.04 1 0 1 C0 0.67 0 0.34 0 0 Z " fill="#0000AA" transform="translate(30,124)"/>
<path d="M0 0 C1.98 0 3.96 0 6 0 C6 0.33 6 0.66 6 1 C4.02 1 2.04 1 0 1 C0 0.67 0 0.34 0 0 Z " fill="#0031B8" transform="translate(217,121)"/>
<path d="M0 0 C1.98 0 3.96 0 6 0 C6 0.33 6 0.66 6 1 C4.02 1 2.04 1 0 1 C0 0.67 0 0.34 0 0 Z " fill="#002371" transform="translate(202,121)"/>
<path d="M0 0 C1.98 0 3.96 0 6 0 C6 0.33 6 0.66 6 1 C4.02 1 2.04 1 0 1 C0 0.67 0 0.34 0 0 Z " fill="#001863" transform="translate(40,102)"/>
<path d="M0 0 C1.98 0 3.96 0 6 0 C6 0.33 6 0.66 6 1 C4.02 1 2.04 1 0 1 C0 0.67 0 0.34 0 0 Z " fill="#00184D" transform="translate(213,97)"/>
<path d="M0 0 C1.98 0 3.96 0 6 0 C6 0.33 6 0.66 6 1 C4.02 1 2.04 1 0 1 C0 0.67 0 0.34 0 0 Z " fill="#00235B" transform="translate(37,91)"/>
<path d="M0 0 C0.33 0 0.66 0 1 0 C1 1.98 1 3.96 1 6 C0.67 6 0.34 6 0 6 C0 4.02 0 2.04 0 0 Z " fill="#00235B" transform="translate(254,85)"/>
<path d="M0 0 C1.98 0 3.96 0 6 0 C6 0.33 6 0.66 6 1 C4.02 1 2.04 1 0 1 C0 0.67 0 0.34 0 0 Z " fill="#00316A" transform="translate(32,73)"/>
<path d="M0 0 C1.98 0 3.96 0 6 0 C6 0.33 6 0.66 6 1 C4.02 1 2.04 1 0 1 C0 0.67 0 0.34 0 0 Z " fill="#002394" transform="translate(39,72)"/>
<path d="M0 0 C1.98 0 3.96 0 6 0 C6 0.33 6 0.66 6 1 C4.02 1 2.04 1 0 1 C0 0.67 0 0.34 0 0 Z " fill="#0023B0" transform="translate(46,71)"/>
<path d="M0 0 C1.98 0 3.96 0 6 0 C6 0.33 6 0.66 6 1 C4.02 1 2.04 1 0 1 C0 0.67 0 0.34 0 0 Z " fill="#00318D" transform="translate(42,61)"/>
<path d="M0 0 C1.98 0 3.96 0 6 0 C6 0.33 6 0.66 6 1 C4.02 1 2.04 1 0 1 C0 0.67 0 0.34 0 0 Z " fill="#00843C" transform="translate(124,54)"/>
<path d="M0 0 C0.33 0 0.66 0 1 0 C1 1.98 1 3.96 1 6 C0.67 6 0.34 6 0 6 C0 4.02 0 2.04 0 0 Z " fill="#00007F" transform="translate(112,16)"/>
<path d="M0 0 C1.65 0 3.3 0 5 0 C5 0.33 5 0.66 5 1 C3.35 1 1.7 1 0 1 C0 0.67 0 0.34 0 0 Z " fill="#002AA1" transform="translate(37,123)"/>
<path d="M0 0 C1.65 0 3.3 0 5 0 C5 0.33 5 0.66 5 1 C3.35 1 1.7 1 0 1 C0 0.67 0 0.34 0 0 Z " fill="#002A90" transform="translate(24,123)"/>
<path d="M0 0 C1.65 0 3.3 0 5 0 C5 0.33 5 0.66 5 1 C3.35 1 1.7 1 0 1 C0 0.67 0 0.34 0 0 Z " fill="#001D76" transform="translate(34,102)"/>
<path d="M0 0 C0.33 0 0.66 0 1 0 C1 1.65 1 3.3 1 5 C0.67 5 0.34 5 0 5 C0 3.35 0 1.7 0 0 Z " fill="#000099" transform="translate(4,97)"/>
<path d="M0 0 C1.65 0 3.3 0 5 0 C5 0.33 5 0.66 5 1 C3.35 1 1.7 1 0 1 C0 0.67 0 0.34 0 0 Z " fill="#002290" transform="translate(207,97)"/>
<path d="M0 0 C0.33 0 0.66 0 1 0 C1 1.65 1 3.3 1 5 C0.67 5 0.34 5 0 5 C0 3.35 0 1.7 0 0 Z " fill="#002A87" transform="translate(254,69)"/>
<path d="M0 0 C1.65 0 3.3 0 5 0 C5 0.33 5 0.66 5 1 C3.35 1 1.7 1 0 1 C0 0.67 0 0.34 0 0 Z " fill="#001998" transform="translate(26,72)"/>
<path d="M0 0 C1.65 0 3.3 0 5 0 C5 0.33 5 0.66 5 1 C3.35 1 1.7 1 0 1 C0 0.67 0 0.34 0 0 Z " fill="#001965" transform="translate(21,71)"/>
<path d="M0 0 C1.65 0 3.3 0 5 0 C5 0.33 5 0.66 5 1 C3.35 1 1.7 1 0 1 C0 0.67 0 0.34 0 0 Z " fill="#001D6E" transform="translate(16,70)"/>
<path d="M0 0 C1.65 0 3.3 0 5 0 C5 0.33 5 0.66 5 1 C3.35 1 1.7 1 0 1 C0 0.67 0 0.34 0 0 Z " fill="#001D6E" transform="translate(11,69)"/>
<path d="M0 0 C1.65 0 3.3 0 5 0 C5 0.33 5 0.66 5 1 C3.35 1 1.7 1 0 1 C0 0.67 0 0.34 0 0 Z " fill="#00194C" transform="translate(31,40)"/>
<path d="M0 0 C4 1 4 1 4 1 Z " fill="#00258A" transform="translate(223,120)"/>
<path d="M0 0 C1 4 1 4 1 4 Z " fill="#003A74" transform="translate(5,103)"/>
<path d="M0 0 C1 4 1 4 1 4 Z " fill="#003A5F" transform="translate(5,92)"/>
<path d="M0 0 C1 4 1 4 1 4 Z " fill="#002589" transform="translate(171,88)"/>
<path d="M0 0 C1 4 1 4 1 4 Z " fill="#001F5F" transform="translate(227,84)"/>
<path d="M0 0 C4 1 4 1 4 1 Z " fill="#002535" transform="translate(24,75)"/>
<path d="M0 0 C4 1 4 1 4 1 Z " fill="#002589" transform="translate(28,74)"/>
<path d="M0 0 C1 4 1 4 1 4 Z " fill="#00258A" transform="translate(253,65)"/>
<path d="M0 0 C1 4 1 4 1 4 Z " fill="#001F7F" transform="translate(7,63)"/>
<path d="M0 0 C1 4 1 4 1 4 Z " fill="#001F7F" transform="translate(79,61)"/>
<path d="M0 0 C4 1 4 1 4 1 Z " fill="#002A5F" transform="translate(38,62)"/>
<path d="M0 0 C1 4 1 4 1 4 Z " fill="#000000" transform="translate(139,53)"/>
<path d="M0 0 C4 1 4 1 4 1 Z " fill="#001F5F" transform="translate(55,40)"/>
<path d="M0 0 C4 1 4 1 4 1 Z " fill="#003A4A" transform="translate(222,38)"/>
<path d="M0 0 C3 1 3 1 3 1 Z " fill="#00157F" transform="translate(42,122)"/>
<path d="M0 0 C3 1 3 1 3 1 Z " fill="#00319B" transform="translate(21,122)"/>
<path d="M0 0 C3 1 3 1 3 1 Z " fill="#00318D" transform="translate(199,120)"/>
<path d="M0 0 C3 1 3 1 3 1 Z " fill="#003871" transform="translate(227,119)"/>
<path d="M0 0 C3 1 3 1 3 1 Z " fill="#0015A9" transform="translate(196,119)"/>
<path d="M0 0 C0.66 0.66 1.32 1.32 2 2 C1.34 2 0.68 2 0 2 C0 1.34 0 0.68 0 0 Z " fill="#003163" transform="translate(182,109)"/>
<path d="" fill="#001554" transform="translate(0,0)"/>
<path d="" fill="#00157F" transform="translate(0,0)"/>
<path d="" fill="#00318D" transform="translate(0,0)"/>
<path d="M0 0 C3 1 3 1 3 1 Z " fill="#00157F" transform="translate(34,92)"/>
<path d="M0 0 C0.33 0.66 0.66 1.32 1 2 C0.34 1.67 -0.32 1.34 -1 1 C-0.67 0.67 -0.34 0.34 0 0 Z " fill="#008D55" transform="translate(158,84)"/>
<path d="M0 0 C3 1 3 1 3 1 Z " fill="#003146" transform="translate(217,62)"/>
<path d="" fill="#00157F" transform="translate(0,0)"/>
<path d="" fill="#0015A9" transform="translate(0,0)"/>
<path d="M0 0 C3 1 3 1 3 1 Z " fill="#003163" transform="translate(28,41)"/>
<path d="M0 0 C3 1 3 1 3 1 Z " fill="#003871" transform="translate(226,39)"/>
<path d="M0 0 C3 1 3 1 3 1 Z " fill="#001C38" transform="translate(101,33)"/>
<path d="" fill="#00157F" transform="translate(0,0)"/>
<path d="" fill="#00318D" transform="translate(0,0)"/>
<path d="" fill="#00317F" transform="translate(0,0)"/>
<path d="" fill="#00319B" transform="translate(0,0)"/>
<path d="M0 0 C2 1 2 1 2 1 Z " fill="#002A94" transform="translate(45,121)"/>
<path d="M0 0 C2 1 2 1 2 1 Z " fill="#002A94" transform="translate(19,121)"/>
<path d="M0 0 C2 1 2 1 2 1 Z " fill="#00007F" transform="translate(17,120)"/>
<path d="M0 0 C2 1 2 1 2 1 Z " fill="#0000BF" transform="translate(49,119)"/>
<path d="M0 0 C2 1 2 1 2 1 Z " fill="#001FBF" transform="translate(230,118)"/>
<path d="M0 0 C2 1 2 1 2 1 Z " fill="#002A94" transform="translate(194,118)"/>
<path d="M0 0 C2 1 2 1 2 1 Z " fill="#002AD4" transform="translate(232,117)"/>
<path d="M0 0 C2 1 2 1 2 1 Z " fill="#002A6A" transform="translate(192,117)"/>
<path d="M0 0 C2 1 2 1 2 1 Z " fill="#003F7F" transform="translate(190,116)"/>
<path d="M0 0 C2 1 2 1 2 1 Z " fill="#0000BF" transform="translate(187,114)"/>
<path d="M0 0 C2 1 2 1 2 1 Z " fill="#0000BF" transform="translate(238,113)"/>
<path d="" fill="#006A6A" transform="translate(0,0)"/>
<path d="" fill="#00557F" transform="translate(0,0)"/>
<path d="M0 0 C2 1 2 1 2 1 Z " fill="#001F7F" transform="translate(46,101)"/>
<path d="M0 0 C2 1 2 1 2 1 Z " fill="#001FBF" transform="translate(48,100)"/>
<path d="M0 0 C2 1 2 1 2 1 Z " fill="#001F7F" transform="translate(219,96)"/>
<path d="M0 0 C2 1 2 1 2 1 Z " fill="#009933" transform="translate(135,96)"/>
<path d="M0 0 C2 1 2 1 2 1 Z " fill="#001F7F" transform="translate(221,95)"/>
<path d="" fill="#00557F" transform="translate(0,0)"/>
<path d="M0 0 C2 1 2 1 2 1 Z " fill="#00007F" transform="translate(16,79)"/>
<path d="M0 0 C2 1 2 1 2 1 Z " fill="#002A2A" transform="translate(18,78)"/>
<path d="M0 0 C2 1 2 1 2 1 Z " fill="#002A94" transform="translate(20,77)"/>
<path d="M0 0 C2 1 2 1 2 1 Z " fill="#001F7F" transform="translate(22,76)"/>
<path d="M0 0 C2 1 2 1 2 1 Z " fill="#00557F" transform="translate(9,68)"/>
<path d="" fill="#004A94" transform="translate(0,0)"/>
<path d="M0 0 C2 1 2 1 2 1 Z " fill="#00194C" transform="translate(202,64)"/>
<path d="M0 0 C2 1 2 1 2 1 Z " fill="#001FBF" transform="translate(220,63)"/>
<path d="M0 0 C2 1 2 1 2 1 Z " fill="#001F7F" transform="translate(36,63)"/>
<path d="" fill="#006A94" transform="translate(0,0)"/>
<path d="M0 0 C2 1 2 1 2 1 Z " fill="#005F6A" transform="translate(121,55)"/>
<path d="M0 0 C2 1 2 1 2 1 Z " fill="#002AAA" transform="translate(19,46)"/>
<path d="M0 0 C2 1 2 1 2 1 Z " fill="#002AD4" transform="translate(66,44)"/>
<path d="M0 0 C2 1 2 1 2 1 Z " fill="#002AD4" transform="translate(22,44)"/>
<path d="M0 0 C2 1 2 1 2 1 Z " fill="#002A55" transform="translate(235,43)"/>
<path d="M0 0 C2 1 2 1 2 1 Z " fill="#0000AA" transform="translate(64,43)"/>
<path d="M0 0 C2 1 2 1 2 1 Z " fill="#002A94" transform="translate(24,43)"/>
<path d="M0 0 C2 1 2 1 2 1 Z " fill="#002A6A" transform="translate(233,42)"/>
<path d="M0 0 C2 1 2 1 2 1 Z " fill="#002A6A" transform="translate(62,42)"/>
<path d="M0 0 C2 1 2 1 2 1 Z " fill="#001F7F" transform="translate(26,42)"/>
<path d="M0 0 C2 1 2 1 2 1 Z " fill="#00007F" transform="translate(231,41)"/>
<path d="M0 0 C2 1 2 1 2 1 Z " fill="#001F7F" transform="translate(60,41)"/>
<path d="M0 0 C2 1 2 1 2 1 Z " fill="#002A94" transform="translate(229,40)"/>
<path d="M0 0 C2 1 2 1 2 1 Z " fill="#002A6A" transform="translate(89,33)"/>
<path d="M0 0 C2 1 2 1 2 1 Z " fill="#00007F" transform="translate(87,32)"/>
<path d="" fill="#000000" transform="translate(0,0)"/>
<path d="M0 0 C2 1 2 1 2 1 Z " fill="#00D400" transform="translate(196,12)"/>
<path d="M0 0 C2 1 2 1 2 1 Z " fill="#0000BF" transform="translate(103,5)"/>
<path d="M0 0 C2 1 2 1 2 1 Z " fill="#002A55" transform="translate(87,5)"/>
<path d="M0 0 C2 1 2 1 2 1 Z " fill="#002A94" transform="translate(101,4)"/>
<path d="M0 0 C2 1 2 1 2 1 Z " fill="#001F7F" transform="translate(89,4)"/>
<path d="" fill="#0000FF" transform="translate(0,0)"/>
<path d="" fill="#005555" transform="translate(0,0)"/>
<path d="" fill="#003F7F" transform="translate(0,0)"/>
<path d="" fill="#0055AA" transform="translate(0,0)"/>
<path d="" fill="#003F7F" transform="translate(0,0)"/>
<path d="" fill="#0055AA" transform="translate(0,0)"/>
<path d="" fill="#00007F" transform="translate(0,0)"/>
<path d="" fill="#0055AA" transform="translate(0,0)"/>
<path d="" fill="#0055AA" transform="translate(0,0)"/>
<path d="" fill="#003F7F" transform="translate(0,0)"/>
<path d="" fill="#005555" transform="translate(0,0)"/>
<path d="" fill="#003F7F" transform="translate(0,0)"/>
<path d="" fill="#003F7F" transform="translate(0,0)"/>
<path d="" fill="#003F7F" transform="translate(0,0)"/>
<path d="" fill="#00007F" transform="translate(0,0)"/>
<path d="" fill="#0055AA" transform="translate(0,0)"/>
<path d="" fill="#0055AA" transform="translate(0,0)"/>
<path d="" fill="#003F7F" transform="translate(0,0)"/>
<path d="" fill="#005555" transform="translate(0,0)"/>
<path d="" fill="#0055AA" transform="translate(0,0)"/>
<path d="" fill="#003F7F" transform="translate(0,0)"/>
<path d="" fill="#00007F" transform="translate(0,0)"/>
<path d="" fill="#003F7F" transform="translate(0,0)"/>
<path d="" fill="#003F7F" transform="translate(0,0)"/>
<path d="" fill="#0055AA" transform="translate(0,0)"/>
<path d="" fill="#003F7F" transform="translate(0,0)"/>
<path d="" fill="#003F7F" transform="translate(0,0)"/>
<path d="" fill="#003F7F" transform="translate(0,0)"/>
<path d="" fill="#003F7F" transform="translate(0,0)"/>
<path d="" fill="#0055AA" transform="translate(0,0)"/>
<path d="" fill="#003F7F" transform="translate(0,0)"/>
<path d="" fill="#003F7F" transform="translate(0,0)"/>
<path d="" fill="#003F7F" transform="translate(0,0)"/>
<path d="" fill="#003F7F" transform="translate(0,0)"/>
<path d="" fill="#0055AA" transform="translate(0,0)"/>
<path d="" fill="#0055AA" transform="translate(0,0)"/>
<path d="" fill="#003F7F" transform="translate(0,0)"/>
<path d="" fill="#0055AA" transform="translate(0,0)"/>
<path d="" fill="#003F7F" transform="translate(0,0)"/>
<path d="" fill="#003F7F" transform="translate(0,0)"/>
<path d="" fill="#003399" transform="translate(0,0)"/>
<path d="" fill="#003366" transform="translate(0,0)"/>
<path d="" fill="#003366" transform="translate(0,0)"/>
<path d="" fill="#007F7F" transform="translate(0,0)"/>
<path d="" fill="#007F7F" transform="translate(0,0)"/>
<path d="" fill="#003399" transform="translate(0,0)"/>
<path d="" fill="#003F7F" transform="translate(0,0)"/>
<path d="" fill="#003F7F" transform="translate(0,0)"/>
<path d="" fill="#007F3F" transform="translate(0,0)"/>
<path d="" fill="#003F7F" transform="translate(0,0)"/>
<path d="" fill="#003F7F" transform="translate(0,0)"/>
<path d="" fill="#003F7F" transform="translate(0,0)"/>
<path d="" fill="#007F3F" transform="translate(0,0)"/>
<path d="" fill="#003F7F" transform="translate(0,0)"/>
<path d="" fill="#007F3F" transform="translate(0,0)"/>
<path d="" fill="#007F3F" transform="translate(0,0)"/>
<path d="" fill="#006633" transform="translate(0,0)"/>
<path d="" fill="#0055AA" transform="translate(0,0)"/>
<path d="" fill="#007F3F" transform="translate(0,0)"/>
<path d="" fill="#003F7F" transform="translate(0,0)"/>
<path d="" fill="#007F3F" transform="translate(0,0)"/>
<path d="" fill="#00007F" transform="translate(0,0)"/>
<path d="" fill="#006633" transform="translate(0,0)"/>
<path d="" fill="#00007F" transform="translate(0,0)"/>
<path d="" fill="#00AA55" transform="translate(0,0)"/>
<path d="" fill="#00FF00" transform="translate(0,0)"/>
<path d="" fill="#00FF00" transform="translate(0,0)"/>
<path d="" fill="#00FF00" transform="translate(0,0)"/>
<path d="" fill="#00FF00" transform="translate(0,0)"/>
<path d="" fill="#0055AA" transform="translate(0,0)"/>
<path d="" fill="#00FF00" transform="translate(0,0)"/>
<path d="" fill="#00FF00" transform="translate(0,0)"/>
<path d="" fill="#00FF00" transform="translate(0,0)"/>
<path d="" fill="#00FF00" transform="translate(0,0)"/>
<path d="" fill="#00FF00" transform="translate(0,0)"/>
<path d="" fill="#00FF00" transform="translate(0,0)"/>
<path d="" fill="#007F3F" transform="translate(0,0)"/>
<path d="" fill="#007F3F" transform="translate(0,0)"/>
<path d="" fill="#00BF3F" transform="translate(0,0)"/>
<path d="" fill="#007F3F" transform="translate(0,0)"/>
<path d="" fill="#00DF00" transform="translate(0,0)"/>
<path d="" fill="#00BF00" transform="translate(0,0)"/>
<path d="" fill="#00CC00" transform="translate(0,0)"/>
<path d="" fill="#0055AA" transform="translate(0,0)"/>
<path d="" fill="#00BF00" transform="translate(0,0)"/>
<path d="" fill="#00CC00" transform="translate(0,0)"/>
<path d="" fill="#003399" transform="translate(0,0)"/>
<path d="" fill="#0055AA" transform="translate(0,0)"/>
<path d="" fill="#00BF00" transform="translate(0,0)"/>
<path d="" fill="#00CC00" transform="translate(0,0)"/>
<path d="" fill="#003399" transform="translate(0,0)"/>
<path d="" fill="#00BF00" transform="translate(0,0)"/>
<path d="" fill="#00BF00" transform="translate(0,0)"/>
<path d="" fill="#00BF00" transform="translate(0,0)"/>
<path d="" fill="#00FF00" transform="translate(0,0)"/>
<path d="" fill="#00BF00" transform="translate(0,0)"/>
<path d="" fill="#00BF00" transform="translate(0,0)"/>
<path d="" fill="#00BF00" transform="translate(0,0)"/>
<path d="" fill="#006666" transform="translate(0,0)"/>
<path d="" fill="#00FF00" transform="translate(0,0)"/>
<path d="" fill="#00BF00" transform="translate(0,0)"/>
<path d="" fill="#003F7F" transform="translate(0,0)"/>
<path d="" fill="#00BF00" transform="translate(0,0)"/>
<path d="" fill="#00FF00" transform="translate(0,0)"/>
<path d="" fill="#00FF00" transform="translate(0,0)"/>
<path d="" fill="#0055AA" transform="translate(0,0)"/>
<path d="" fill="#00FF00" transform="translate(0,0)"/>
<path d="" fill="#003F7F" transform="translate(0,0)"/>
<path d="" fill="#003F7F" transform="translate(0,0)"/>
<path d="" fill="#00FF00" transform="translate(0,0)"/>
<path d="" fill="#003F7F" transform="translate(0,0)"/>
<path d="" fill="#003F7F" transform="translate(0,0)"/>
<path d="" fill="#00FF00" transform="translate(0,0)"/>
<path d="" fill="#003F7F" transform="translate(0,0)"/>
<path d="" fill="#0055AA" transform="translate(0,0)"/>
<path d="" fill="#00FF00" transform="translate(0,0)"/>
<path d="" fill="#003F7F" transform="translate(0,0)"/>
<path d="" fill="#00007F" transform="translate(0,0)"/>
<path d="" fill="#00FF00" transform="translate(0,0)"/>
<path d="" fill="#003F7F" transform="translate(0,0)"/>
<path d="" fill="#003F7F" transform="translate(0,0)"/>
<path d="" fill="#00FF00" transform="translate(0,0)"/>
<path d="" fill="#000055" transform="translate(0,0)"/>
<path d="" fill="#0055AA" transform="translate(0,0)"/>
<path d="" fill="#00007F" transform="translate(0,0)"/>
<path d="" fill="#00FF00" transform="translate(0,0)"/>
<path d="" fill="#00FF00" transform="translate(0,0)"/>
<path d="" fill="#00FF00" transform="translate(0,0)"/>
<path d="" fill="#00FF00" transform="translate(0,0)"/>
<path d="" fill="#00FF00" transform="translate(0,0)"/>
<path d="" fill="#00FF00" transform="translate(0,0)"/>
<path d="" fill="#00BF00" transform="translate(0,0)"/>
<path d="" fill="#00FF00" transform="translate(0,0)"/>
<path d="" fill="#00FF00" transform="translate(0,0)"/>
<path d="" fill="#00FF00" transform="translate(0,0)"/>
<path d="" fill="#00FF00" transform="translate(0,0)"/>
<path d="" fill="#00FF00" transform="translate(0,0)"/>
<path d="" fill="#00FF00" transform="translate(0,0)"/>
<path d="" fill="#00FF00" transform="translate(0,0)"/>
<path d="" fill="#00FF00" transform="translate(0,0)"/>
<path d="" fill="#00FF00" transform="translate(0,0)"/>
<path d="" fill="#00FF00" transform="translate(0,0)"/>
<path d="" fill="#00FF00" transform="translate(0,0)"/>
<path d="" fill="#00007F" transform="translate(0,0)"/>
<path d="" fill="#00FF00" transform="translate(0,0)"/>
<path d="" fill="#00FF00" transform="translate(0,0)"/>
<path d="" fill="#0055AA" transform="translate(0,0)"/>
<path d="" fill="#005555" transform="translate(0,0)"/>
<path d="" fill="#00FF00" transform="translate(0,0)"/>
<path d="" fill="#0055AA" transform="translate(0,0)"/>
<path d="" fill="#0055AA" transform="translate(0,0)"/>
<path d="" fill="#00FF00" transform="translate(0,0)"/>
<path d="" fill="#0055AA" transform="translate(0,0)"/>
<path d="" fill="#003F7F" transform="translate(0,0)"/>
<path d="" fill="#00FF00" transform="translate(0,0)"/>
<path d="" fill="#0055AA" transform="translate(0,0)"/>
<path d="" fill="#005555" transform="translate(0,0)"/>
<path d="" fill="#00AA00" transform="translate(0,0)"/>
<path d="" fill="#00FF00" transform="translate(0,0)"/>
<path d="" fill="#00AA00" transform="translate(0,0)"/>
<path d="" fill="#00AA00" transform="translate(0,0)"/>
<path d="" fill="#00FF00" transform="translate(0,0)"/>
<path d="" fill="#00AA00" transform="translate(0,0)"/>
<path d="" fill="#00AA00" transform="translate(0,0)"/>
<path d="" fill="#00AA00" transform="translate(0,0)"/>
<path d="" fill="#00AA00" transform="translate(0,0)"/>
<path d="" fill="#00AA00" transform="translate(0,0)"/>
<path d="" fill="#00BF00" transform="translate(0,0)"/>
<path d="" fill="#00AA00" transform="translate(0,0)"/>
<path d="" fill="#00FF00" transform="translate(0,0)"/>
<path d="" fill="#00AA00" transform="translate(0,0)"/>
<path d="" fill="#00CC00" transform="translate(0,0)"/>
<path d="" fill="#00AA00" transform="translate(0,0)"/>
<path d="" fill="#00CC00" transform="translate(0,0)"/>
<path d="" fill="#00AA00" transform="translate(0,0)"/>
<path d="" fill="#00BF00" transform="translate(0,0)"/>
<path d="" fill="#00FF00" transform="translate(0,0)"/>
<path d="" fill="#00AA00" transform="translate(0,0)"/>
<path d="" fill="#00FF00" transform="translate(0,0)"/>
<path d="" fill="#00FF00" transform="translate(0,0)"/>
<path d="" fill="#0055AA" transform="translate(0,0)"/>
<path d="" fill="#003F7F" transform="translate(0,0)"/>
<path d="" fill="#005555" transform="translate(0,0)"/>
<path d="" fill="#0055AA" transform="translate(0,0)"/>
<path d="" fill="#005555" transform="translate(0,0)"/>
<path d="" fill="#0055AA" transform="translate(0,0)"/>
<path d="" fill="#00007F" transform="translate(0,0)"/>
</svg>
