<svg width="385" height="247" viewBox="0 0 385 247" fill="none" xmlns="http://www.w3.org/2000/svg">
<path d="M192.664 222.392C192.664 220.901 193.267 219.449 194.32 218.403C195.366 217.349 196.819 216.748 198.308 216.748C199.798 216.748 201.251 217.35 202.297 218.403C203.351 219.45 203.952 220.901 203.952 222.392C203.952 223.882 203.35 225.335 202.297 226.38C201.251 227.434 199.798 228.036 198.308 228.036C196.819 228.036 195.365 227.433 194.32 226.38C193.267 225.335 192.664 223.882 192.664 222.392ZM59.8316 216.748C56.716 216.748 54.1869 219.277 54.1869 222.392C54.1869 225.508 56.716 228.037 59.8316 228.037H174.226C177.341 228.037 179.871 225.508 179.871 222.392C179.871 219.277 177.341 216.748 174.226 216.748H59.8316ZM23.707 144.498C20.5914 144.498 18.0623 147.028 18.0623 150.143C18.0623 153.259 20.5914 155.788 23.707 155.788H89.9353C93.0509 155.788 95.58 153.259 95.58 150.143C95.58 147.028 93.0509 144.498 89.9353 144.498H23.707ZM35.7483 228.036C37.231 228.036 38.6912 227.434 39.7368 226.381C40.7906 225.335 41.3923 223.875 41.3923 222.392C41.3923 220.91 40.7899 219.457 39.7368 218.404C38.6905 217.35 37.2385 216.748 35.7483 216.748C34.2581 216.748 32.8054 217.351 31.7598 218.404C30.706 219.45 30.1044 220.91 30.1044 222.392C30.1044 223.875 30.7068 225.335 31.7598 226.381C32.8054 227.434 34.2581 228.036 35.7483 228.036ZM23.3307 222.392C23.3307 215.543 28.8996 209.974 35.7483 209.974H198.309C205.158 209.974 210.727 215.543 210.727 222.392C210.727 229.24 205.158 234.809 198.309 234.809H35.7483C28.8996 234.81 23.3307 229.24 23.3307 222.392ZM384.576 23.707C384.576 10.6344 373.942 0 360.869 0C357.889 0 355.037 0.556584 352.403 1.56534L176.868 51.5002C175.121 51.9966 173.443 52.6591 171.833 53.4493C171.743 53.4944 171.645 53.5395 171.554 53.592C165.917 56.4591 161.273 61.0725 158.414 66.7998L140.63 102.352H114.019C107.584 102.352 102.354 107.583 102.354 114.017V126.435H89.5597V110.488C89.5597 107.372 88.3481 104.444 86.1428 102.239L81.8832 97.9873C79.6854 95.782 76.1108 95.782 73.9055 97.9873C71.7002 100.193 71.7002 103.76 73.9055 105.965L78.1576 110.225C78.2327 110.292 78.2703 110.39 78.2703 110.488V126.435H11.665C5.23009 126.435 0 131.666 0 138.1V174.225C0 180.66 5.23084 185.89 11.665 185.89H84.2905V198.684H35.7483C22.6757 198.684 12.0413 209.318 12.0413 222.391C12.0413 235.463 22.6757 246.098 35.7483 246.098H198.309C211.382 246.098 222.016 235.463 222.016 222.391C222.016 209.318 211.382 198.684 198.309 198.684H149.767V185.89H180.247C183.362 185.89 185.892 183.361 185.892 180.245V145.144L199.559 108.696C201.523 103.458 205.693 99.4467 210.991 97.6778L340.671 54.4491L354.947 178.183L316.385 216.746H306.684C303.568 216.746 301.039 219.275 301.039 222.391C301.039 225.507 303.568 228.036 306.684 228.036H366.892C376.645 228.036 384.578 220.103 384.578 210.35V162.184V23.707H384.576ZM366.89 216.748H332.353L373.287 175.814V210.351C373.288 213.88 370.42 216.748 366.89 216.748ZM365.136 167.994L350.972 45.2388C353.99 46.6314 357.34 47.414 360.869 47.414C365.423 47.414 369.675 46.1198 373.287 43.892V159.845L365.136 167.994ZM360.869 36.1246C355.059 36.1246 350.19 32.1136 348.835 26.7175L348.467 23.4817C348.557 18.4093 351.695 14.0671 356.136 12.2306C356.286 12.1855 356.429 12.1329 356.565 12.0728C357.912 11.5763 359.356 11.2902 360.869 11.2902C367.718 11.2902 373.287 16.859 373.287 23.7078C373.287 30.5565 367.718 36.1246 360.869 36.1246ZM207.423 86.9698C198.873 89.8143 192.152 96.2943 188.991 104.731L180.562 127.211L177.672 118.564C174.444 108.87 165.405 102.353 155.185 102.353H153.258L168.506 71.8429C170.184 68.5011 172.841 65.7618 176.062 63.9711L338.563 36.1779L339.353 42.9891L207.423 86.9698ZM337.163 23.707C337.163 23.722 337.163 23.7371 337.163 23.7521C337.163 23.7746 337.163 23.7971 337.163 23.8197C337.17 24.2035 337.178 24.5798 337.193 24.9636L272.56 36.0119L338.021 17.3931C337.463 19.4098 337.163 21.5242 337.163 23.707ZM113.642 174.602V114.018C113.642 113.807 113.808 113.642 114.019 113.642H126.436V127.429C126.436 139.757 134.188 150.94 145.725 155.267L174.602 166.097V174.601H113.642V174.602ZM149.691 144.694C142.534 142.015 137.725 135.076 137.725 127.429V113.642H144.1C144.107 113.642 144.115 113.642 144.115 113.642C144.122 113.642 144.13 113.642 144.137 113.642H155.186C160.544 113.642 165.278 117.051 166.964 122.131L174.603 145.04V154.041L149.691 144.694ZM95.58 198.685V185.891H107.998H138.477V198.685H95.58ZM11.665 174.602C11.4539 174.602 11.2887 174.437 11.2887 174.226V138.101C11.2887 137.89 11.4539 137.725 11.665 137.725H102.353V174.602H11.665V174.602Z" fill="white"/>
</svg>
