<?xml version="1.0" encoding="UTF-8"?>
<svg version="1.1" viewBox="0 0 2048 1016" width="260" height="129" xmlns="http://www.w3.org/2000/svg">
<path transform="translate(336,325)" d="m0 0h43l28 2 28 4 23 5 30 10 25 12 16 10 13 10 12 11 11 11 10 13 12 19 10 21 7 19 7 28 4 26 2 25 1 393-1 1-110 1h-47l-3-3-3-30-3-43-6 4-10 13-13 15-11 10-17 12-15 9-19 9-27 9-27 6-27 3h-42l-25-3-23-5-24-8-18-8-17-10-13-10-10-9-7-6-7-8-10-13-8-13-10-21-6-20-4-23-1-9v-20l3-24 4-17 7-19 8-15 9-13 8-10 18-18 13-10 19-12 19-10 25-10 18-6 31-8 38-7 112-16 23-4 21-7 8-6 5-8 1-4v-20l-4-15-6-12-7-9-9-8-15-8-20-6-14-2h-32l-18 3-16 5-16 8-10 7-10 9-8 9-9 15-7 16-5 14h-6l-12-3-75-15-58-12-12-3-3-2 2-10 12-36 9-19 11-18 10-14 9-11 14-15 8-7 15-12 15-10 16-9 21-10 25-9 22-6 32-6 26-3zm109 352-24 7-28 6-35 6-46 7-24 5-15 5-17 9-12 11-7 11-4 16v14l4 16 7 12 9 9 11 7 16 6 15 3 9 1h20l25-4 21-7 19-10 11-8 12-11 7-7 10-14 8-15 6-18 4-22 1-15v-20z" fill="#05307C"/>
<path transform="translate(1661,309)" d="m0 0h27l28 2 28 4 27 6 26 8 24 10 20 10 24 15 17 13 15 13 20 20 9 11 13 17 15 25 8 15 11 26 8 25 5 21 4 22 3 27 1 14v28l-3 34-4 25-6 26-9 27-10 23-12 23-16 24-10 13-9 10-7 8-11 11-11 9-15 12-17 11-16 9-16 8-16 7-19 7-30 8-26 5-28 3-15 1h-27l-35-3-24-4-32-8-25-9-20-9-21-11-24-16-14-11-15-14-16-16-9-11-13-17-12-19-7-12-10-22-9-24-7-25-6-29-3-25-1-13v-33l3-40 9-10 3-3h2v-2l8-7 236-236 7-4 17-2zm-1 158-18 3-14 4-18 8-14 9-11 9-12 12-10 14-9 16-9 23-4 15-3 20-1 10v38l4 27 6 21 8 19 9 16 11 14 13 13 14 10 16 9 21 7 22 4 11 1h10l22-3 19-5 16-7 14-8 10-8 10-9 10-11 9-14 8-16 6-15 6-24 3-24v-37l-3-22-5-21-8-21-8-15-9-13-12-14-14-11-13-8-12-6-21-7-20-3z" fill="#05307C"/>
<path transform="translate(1574,105)" d="m0 0h21l12 4 11 7 10 9 34 34 9 14 4 10 1 4v17l-4 12-6 11-13 15-20 20-8 7-127 127h-2l-2 4-5 4-4 5-5 5-8 7-5 5-4 5-8 7-237 237-7 6-64 64-11 7-13 5-5 1h-18l-12-4-10-6-13-11-30-30-7-8-8-8-7-8-8-8-7-8-8-8-7-8-9-9-7-8-12-12-7-8-16-16-7-8-8-9-9-14-4-10-2-8-1-15 3-15 5-12 8-11 9-10 14-14 8-7 10-9 11-7 11-4 15-2 17 1 12 3 15 8 13 12 8 8 7 8 12 12 7 8 15 15 7 8 15 15 5-4 13-13 7-8 20-20h2v-2l8-7 231-231h2l2-4 5-4 5-6 5-5 7-6 5-5 5-6 8-7 82-82 4-5 8-7 11-8 12-5z" fill="#1BD31C"/>
<path transform="translate(670,340)" d="m0 0 174 1 1 3v601l-19 1h-156l-2-6v-585l1-14z" fill="#07327D"/>
<path transform="translate(901,609)" d="m0 0 4 2 12 13 7 8 15 15 7 8 13 13 7 8 12 12 7 8 8 8 7 8 13 13 7 8 16 17 8 8 14 11 16 11 2 3v161l-2 1-95 1h-77l-2-2-1-19 1-314z" fill="#05307C"/>
<path transform="translate(1247,687)" d="m0 0 4 2 9 13 12 14 11 14 12 14 9 11 13 16 9 11 11 13 9 11 8 10 9 11 12 14 13 16 11 14 9 10 11 14 14 17 12 14 7 9 6 8v2l-155 1h-57l-5-3-8-10-11-13-8-10-14-17-11-14-11-13-11-14-12-14-11-14-12-14-11-14-5-6 3-3 16-3 11-4 11-6 13-10z" fill="#05307C"/>
<path transform="translate(739,43)" d="m0 0h35l16 3 20 8 14 9 10 8 10 10 10 15 7 15 5 17 2 13v15l-3 20-6 18-8 15-10 13-11 11-15 10-15 7-17 5-11 2h-32l-15-3-12-4-16-8-13-9-14-14-9-13-8-16-5-17-2-12v-21l3-18 6-17 7-13 10-13 12-12 11-8 10-6 19-7z" fill="#05307C"/>
<path transform="translate(900,338)" d="m0 0h175l1 1 1 30 1 52 1 29-5-2-11-11-14-10-17-8-15-4-5-1h-27l-14 3-13 5-15 9-16 13-23 23-4 1z" fill="#06307C"/>
</svg>
