<svg width="385" height="303" viewBox="0 0 385 303" fill="none" xmlns="http://www.w3.org/2000/svg">
<path d="M377.594 164.991C386.904 174.302 386.904 189.456 377.594 198.766L360.437 215.922C359.33 217.029 357.875 217.582 356.419 217.582C354.964 217.582 353.508 217.029 352.402 215.922C350.181 213.701 350.181 210.1 352.402 207.878L356.958 203.322L337.861 184.225L318.755 203.322L323.311 207.878C325.532 210.1 325.532 213.701 323.311 215.922C322.204 217.029 320.749 217.582 319.294 217.582C317.839 217.582 316.382 217.029 315.276 215.922L298.119 198.766C293.609 194.255 291.122 188.258 291.122 181.875C291.122 175.499 293.609 169.502 298.119 164.991C302.63 160.48 308.627 157.993 315.003 157.993C316.391 157.993 317.763 158.122 319.104 158.349L327.216 140.093C323.676 136.841 321.447 132.171 321.447 126.985C321.447 119.154 326.534 112.483 333.577 110.109V54.4093L205.453 219.91V242.085C205.453 242.093 205.453 242.093 205.453 242.093V254.731H224.027C237.196 254.731 247.908 265.443 247.908 278.612C247.908 291.781 237.196 302.493 224.027 302.493H72.4017C59.233 302.493 48.5204 291.781 48.5204 278.612C48.5204 274.033 49.8244 269.742 52.0688 266.103H11.7514C5.26914 266.103 0 260.834 0 254.352V224.027C0 217.552 5.26914 212.276 11.7514 212.276H24.2606V205.832C24.2606 196.006 32.2511 188.016 42.0765 188.016H52.5915L306.792 31.174C307.414 30.7871 308.081 30.5445 308.763 30.4236L321.598 15.5265C322.728 6.7774 330.218 0 339.262 0C349.088 0 357.078 7.99047 357.078 17.8159C357.078 23.221 354.652 28.0733 350.839 31.3407C350.657 32.0761 350.323 32.7889 349.823 33.4258L344.948 39.7255V110.11C351.992 112.483 357.078 119.155 357.078 126.987C357.078 132.173 354.857 136.842 351.316 140.095L359.292 158.04C359.762 158.017 360.232 157.994 360.709 157.994C367.086 157.994 373.083 160.481 377.594 164.991ZM369.557 190.722C374.432 185.847 374.432 177.909 369.557 173.035C367.192 170.669 364.053 169.365 360.71 169.365C357.367 169.365 354.228 170.669 351.862 173.035L347.306 177.591L364.994 195.278L369.557 190.722ZM348.352 161.436L340.923 144.726C340.377 144.772 339.823 144.802 339.263 144.802C338.702 144.802 338.148 144.772 337.603 144.726L329.522 162.914C330.348 163.551 331.144 164.24 331.894 164.991L337.861 170.958L343.819 164.991C345.207 163.612 346.722 162.421 348.352 161.436ZM345.707 17.8159C345.707 14.2601 342.818 11.372 339.263 11.372C335.715 11.372 332.819 14.2609 332.819 17.8159C332.819 21.371 335.715 24.2599 339.263 24.2599C342.818 24.2599 345.707 21.3718 345.707 17.8159ZM345.707 126.987C345.707 123.431 342.818 120.543 339.263 120.543C335.715 120.543 332.819 123.432 332.819 126.987C332.819 130.542 335.715 133.431 339.263 133.431C342.818 133.431 345.707 130.542 345.707 126.987ZM333.577 35.8369V34.6997C330.241 33.57 327.337 31.4774 325.215 28.7486L186.204 190.002C193.383 192.755 199.244 198.198 202.542 205.09L333.577 35.8369ZM310.72 195.279L328.407 177.592L323.851 173.035C321.485 170.67 318.346 169.366 315.003 169.366C311.667 169.366 308.521 170.67 306.163 173.035C301.281 177.91 301.281 185.848 306.163 190.723L310.72 195.279ZM172.899 188.016L285.012 57.9741L72.4768 189.108C79.285 191.617 84.1523 198.167 84.1523 205.832V212.276H127.365V199.767C127.365 193.292 132.634 188.016 139.117 188.016H172.899V188.016ZM236.536 278.612C236.536 271.72 230.926 266.103 224.027 266.103H157.311H72.401C65.5019 266.103 59.8917 271.72 59.8917 278.612C59.8917 285.511 65.5019 291.121 72.401 291.121H224.027C230.926 291.121 236.536 285.511 236.536 278.612ZM194.081 254.731V246.513L173.346 240.592C169.503 239.493 166.008 237.651 162.998 235.247V254.731H194.081ZM194.081 234.686V217.962C194.081 207.719 185.75 199.388 175.507 199.388H162.998V211.791C162.998 220.047 168.54 227.386 176.47 229.653L194.081 234.686ZM151.687 213.512C151.649 212.943 151.626 212.367 151.626 211.791V199.388H139.117C138.912 199.388 138.737 199.562 138.737 199.767V212.276H145.181C147.479 212.276 149.67 212.716 151.687 213.512ZM151.626 254.731V241.843H48.1411C45.0022 241.843 42.4551 239.296 42.4551 236.157C42.4551 233.018 45.0022 230.471 48.1411 230.471H151.626V230.091C151.626 226.543 148.737 223.648 145.182 223.648H11.7514C11.5388 223.648 11.372 223.822 11.372 224.027V230.471H23.8813C27.0202 230.471 29.5673 233.018 29.5673 236.157C29.5673 239.296 27.0202 241.843 23.8813 241.843H11.372V254.352C11.372 254.565 11.5388 254.731 11.7514 254.731H72.401H151.626ZM72.7803 212.276V205.832C72.7803 202.284 69.8915 199.389 66.3364 199.389H54.2215H54.214C54.2065 199.389 54.2065 199.389 54.1989 199.389H42.0765C38.5207 199.389 35.6326 202.285 35.6326 205.832V212.276H72.7803ZM224.027 272.927C222.534 272.927 221.063 273.533 220.009 274.595C218.948 275.656 218.341 277.119 218.341 278.613C218.341 280.113 218.947 281.577 220.009 282.639C221.07 283.693 222.534 284.299 224.027 284.299C225.528 284.299 226.991 283.693 228.045 282.639C229.106 281.577 229.713 280.114 229.713 278.613C229.713 277.119 229.107 275.656 228.045 274.595C226.992 273.533 225.528 272.927 224.027 272.927ZM72.401 272.927C70.9077 272.927 69.437 273.533 68.3832 274.595C67.3219 275.656 66.715 277.119 66.715 278.613C66.715 280.113 67.3211 281.577 68.3832 282.639C69.437 283.693 70.9077 284.299 72.401 284.299C73.8942 284.299 75.3574 283.693 76.4187 282.639C77.4801 281.577 78.087 280.114 78.087 278.613C78.087 277.119 77.4808 275.656 76.4187 274.595C75.3657 273.533 73.895 272.927 72.401 272.927Z" fill="white"/>
</svg>
