<svg width="385" height="265" viewBox="0 0 385 265" fill="none" xmlns="http://www.w3.org/2000/svg">
<path d="M384.576 138.1V216.37C384.576 222.805 379.345 228.035 372.911 228.035H348.828C348.572 228.035 348.316 228.012 348.068 227.975C345.328 248.378 327.815 264.16 306.682 264.16C285.564 264.16 268.074 248.408 265.304 228.035H234.057V228.411C234.057 238.165 226.124 246.097 216.371 246.097H180.246C170.493 246.097 162.56 238.165 162.56 228.411V228.035H155.395C152.626 248.408 135.135 264.16 114.017 264.16C98.6115 264.16 85.1326 255.768 77.8925 243.32C70.6524 255.768 57.1734 264.16 41.7678 264.16C18.7398 264.16 0 245.42 0 222.391C0 210.38 5.1024 199.535 13.2529 191.911H11.665C5.23009 191.911 0 186.68 0 180.246V47.7888C0 41.354 5.23084 36.1239 11.665 36.1239H228.413C234.848 36.1239 240.078 41.3547 240.078 47.7888V60.2065H246.851V25.1657C246.851 21.8465 245.557 18.7308 243.217 16.3828L236.466 9.63168C234.26 7.42638 234.26 3.85928 236.466 1.65398C238.671 -0.551326 242.238 -0.551326 244.443 1.65398L251.194 8.40509C255.673 12.8833 258.141 18.836 258.141 25.1657V60.2065H269.324C272.568 56.5184 277.317 54.1854 282.6 54.1854H332.286C344.501 54.1854 355.647 61.8469 360.034 73.2415L384.2 136.075C384.215 136.113 384.222 136.158 384.238 136.196C384.283 136.308 384.32 136.429 384.35 136.542C384.373 136.617 384.395 136.692 384.41 136.775C384.433 136.873 384.455 136.971 384.478 137.069C384.493 137.167 384.508 137.273 384.523 137.37C384.53 137.445 384.545 137.528 384.553 137.611C384.56 137.732 384.568 137.845 384.568 137.965C384.569 138.01 384.576 138.055 384.576 138.1ZM373.288 216.37V197.931H366.89C360.455 197.931 355.225 192.7 355.225 186.266V180.245C355.225 173.81 360.456 168.58 366.89 168.58H373.288V139.146L372.739 137.723H312.704C299.631 137.723 288.997 127.089 288.997 114.016V83.9127C288.997 80.7971 291.526 78.268 294.642 78.268H349.874L349.498 77.2968C346.781 70.2227 339.865 65.4733 332.286 65.4733H282.6C279.07 65.4733 276.202 68.3404 276.202 71.8707V180.621H306.682C327.815 180.621 345.328 196.403 348.068 216.806C348.316 216.768 348.572 216.745 348.828 216.745H372.911C373.122 216.746 373.288 216.58 373.288 216.37ZM373.288 186.643V179.869H366.89C366.694 179.869 366.514 180.049 366.514 180.245V186.266C366.514 186.462 366.694 186.643 366.89 186.643H373.288ZM368.396 126.435L354.217 89.5574H300.286V114.017C300.286 120.866 305.855 126.435 312.703 126.435H368.396ZM337.163 222.391C337.163 205.585 323.488 191.911 306.683 191.911C289.878 191.911 276.203 205.586 276.203 222.391C276.203 239.196 289.878 252.871 306.683 252.871C323.488 252.871 337.163 239.196 337.163 222.391ZM278.167 191.91H234.434H142.534C149.383 198.323 154.072 207 155.396 216.746H162.561V216.37C162.561 206.617 170.493 198.684 180.247 198.684H216.371C226.125 198.684 234.057 206.617 234.057 216.37V216.746H265.305C266.629 207 271.319 198.323 278.167 191.91ZM264.914 71.8714C264.914 71.7437 264.921 71.6228 264.921 71.4951H240.078V180.622H264.914V71.8714ZM228.789 180.622V47.7888C228.789 47.5778 228.624 47.4125 228.413 47.4125H11.665C11.4539 47.4125 11.2887 47.5778 11.2887 47.7888V180.245C11.2887 180.456 11.4539 180.622 11.665 180.622H228.789ZM222.768 228.411V216.37C222.768 212.84 219.901 209.973 216.371 209.973H180.246C176.717 209.973 173.849 212.84 173.849 216.37V228.411C173.849 231.941 176.716 234.809 180.246 234.809H216.371C219.901 234.809 222.768 231.941 222.768 228.411ZM144.499 222.391C144.499 205.585 130.824 191.911 114.019 191.911C97.2137 191.911 83.5387 205.586 83.5387 222.391C83.5387 239.196 97.2137 252.871 114.019 252.871C130.824 252.871 144.499 239.196 144.499 222.391ZM85.5021 191.91H70.2843C73.2648 194.695 75.8306 197.916 77.8932 201.461C79.9558 197.916 82.5224 194.695 85.5021 191.91ZM72.2493 222.391C72.2493 205.585 58.5743 191.911 41.7693 191.911C24.9644 191.911 11.2894 205.586 11.2894 222.391C11.2894 239.196 24.9644 252.871 41.7693 252.871C58.5743 252.871 72.2493 239.196 72.2493 222.391ZM313.08 222.391C313.08 225.92 310.213 228.788 306.682 228.788C303.152 228.788 300.285 225.921 300.285 222.391C300.285 218.861 303.152 215.994 306.682 215.994C309.798 215.994 312.327 213.465 312.327 210.349C312.327 207.233 309.798 204.704 306.682 204.704C296.929 204.704 288.996 212.637 288.996 222.39C288.996 232.144 296.929 240.076 306.682 240.076C316.436 240.076 324.368 232.144 324.368 222.39C324.368 219.275 321.839 216.745 318.724 216.745C315.609 216.746 313.08 219.275 313.08 222.391ZM186.267 216.746C184.784 216.746 183.324 217.349 182.279 218.402C181.225 219.448 180.623 220.907 180.623 222.39C180.623 223.873 181.226 225.333 182.279 226.379C183.325 227.432 184.785 228.034 186.267 228.034C187.749 228.034 189.21 227.432 190.256 226.379C191.309 225.332 191.911 223.872 191.911 222.39C191.911 220.907 191.309 219.447 190.256 218.402C189.21 217.348 187.75 216.746 186.267 216.746ZM120.415 222.391C120.415 225.92 117.548 228.788 114.018 228.788C110.488 228.788 107.621 225.921 107.621 222.391C107.621 218.861 110.488 215.994 114.018 215.994C117.134 215.994 119.663 213.465 119.663 210.349C119.663 207.233 117.134 204.704 114.018 204.704C104.264 204.704 96.3318 212.637 96.3318 222.39C96.3318 232.144 104.264 240.076 114.018 240.076C123.771 240.076 131.704 232.144 131.704 222.39C131.704 219.275 129.175 216.745 126.059 216.745C122.943 216.745 120.415 219.275 120.415 222.391ZM48.1659 222.391C48.1659 225.92 45.2989 228.788 41.7686 228.788C38.2383 228.788 35.3713 225.921 35.3713 222.391C35.3713 218.861 38.2383 215.994 41.7686 215.994C44.8843 215.994 47.4133 213.465 47.4133 210.349C47.4133 207.233 44.8843 204.704 41.7686 204.704C32.0152 204.704 24.0826 212.637 24.0826 222.39C24.0826 232.144 32.0152 240.076 41.7686 240.076C51.522 240.076 59.4546 232.144 59.4546 222.39C59.4546 219.275 56.9255 216.745 53.8099 216.745C50.6942 216.745 48.1659 219.275 48.1659 222.391Z" fill="white"/>
</svg>
