<svg width="293" height="62" viewBox="0 0 293 62" fill="none" xmlns="http://www.w3.org/2000/svg">
<path d="M21 0C9.402 0 0 9.56022 0 21.35C0 33.1413 21 61 21 61C21 61 42 33.1413 42 21.35C42 9.56022 32.598 0 21 0ZM21 32.025C18.2152 32.025 15.5445 30.9003 13.5754 28.8984C11.6062 26.8964 10.5 24.1812 10.5 21.35C10.5 18.5188 11.6062 15.8036 13.5754 13.8016C15.5445 11.7997 18.2152 10.675 21 10.675C23.7848 10.675 26.4555 11.7997 28.4246 13.8016C30.3938 15.8036 31.5 18.5188 31.5 21.35C31.5 24.1812 30.3938 26.8964 28.4246 28.8984C26.4555 30.9003 23.7848 32.025 21 32.025Z" fill="white"/>
<path d="M58.8398 51C57.6549 51 57.0625 50.3652 57.0625 49.0957V16.4941C57.0625 15.2246 57.6549 14.5898 58.8398 14.5898H78.9238C80.1934 14.5898 80.8281 15.14 80.8281 16.2402V19.2363C80.8281 20.3366 80.1934 20.8867 78.9238 20.8867H64.4766V29.7227H76.8418C78.1113 29.7227 78.7461 30.2728 78.7461 31.373V34.3691C78.7461 35.4694 78.1113 36.0195 76.8418 36.0195H64.4766V49.0957C64.4766 50.3652 63.8841 51 62.6992 51H58.8398Z" fill="white"/>
<path d="M87.8359 51C86.8203 51 86.3125 50.4922 86.3125 49.4766V25.8633C86.3125 24.8477 86.8203 24.3398 87.8359 24.3398H91.8984C92.9141 24.3398 93.4219 24.8477 93.4219 25.8633V49.4766C93.4219 50.4922 92.9141 51 91.8984 51H87.8359ZM87.8359 20.4297C86.8203 20.4297 86.3125 19.9219 86.3125 18.9062V15.6562C86.3125 14.6406 86.8203 14.1328 87.8359 14.1328H91.8984C92.9141 14.1328 93.4219 14.6406 93.4219 15.6562V18.9062C93.4219 19.9219 92.9141 20.4297 91.8984 20.4297H87.8359Z" fill="white"/>
<path d="M101.852 51C100.836 51 100.328 50.4922 100.328 49.4766V25.8633C100.328 24.8477 100.836 24.3398 101.852 24.3398H105.863C106.879 24.3398 107.387 24.8477 107.387 25.8633V27.3359H107.488C108.267 25.9987 109.257 25.0846 110.459 24.5938C111.661 24.0859 113.108 23.832 114.801 23.832C117.441 23.832 119.625 24.6615 121.352 26.3203C123.078 27.9792 123.941 31.0091 123.941 35.4102V49.4766C123.941 50.4922 123.434 51 122.418 51H118.355C117.34 51 116.832 50.4922 116.832 49.4766V37.2383C116.832 33.5482 116.578 31.2207 116.07 30.2559C115.562 29.291 114.471 28.8086 112.795 28.8086C111.018 28.8086 109.68 29.5026 108.783 30.8906C107.886 32.2617 107.438 35.1224 107.438 39.4727V49.4766C107.438 50.4922 106.93 51 105.914 51H101.852Z" fill="white"/>
<path d="M129.375 37.6699C129.375 33.946 130.179 30.7129 131.787 27.9707C133.412 25.2116 136.214 23.832 140.191 23.832C141.715 23.832 143.018 24.0521 144.102 24.4922C145.185 24.9323 146.167 25.8802 147.047 27.3359H147.148C147.081 26.6589 147.047 25.9818 147.047 25.3047V15.0469C147.047 14.0312 147.555 13.5234 148.57 13.5234H152.633C153.648 13.5234 154.156 14.0312 154.156 15.0469V49.4766C154.156 50.4922 153.648 51 152.633 51H148.621C147.775 51 147.318 50.4922 147.25 49.4766L147.148 48.0039H147.047C146.167 49.4596 145.185 50.4076 144.102 50.8477C143.018 51.2878 141.715 51.5078 140.191 51.5078C136.214 51.5078 133.412 50.1367 131.787 47.3945C130.179 44.6354 129.375 41.3939 129.375 37.6699ZM136.891 37.6699C136.891 40.3783 137.238 42.5365 137.932 44.1445C138.643 45.7357 140.141 46.5312 142.426 46.5312C143.695 46.5312 144.779 45.8203 145.676 44.3984C146.59 42.9596 147.047 41.0977 147.047 38.8125V36.5273C147.047 34.2422 146.59 32.3887 145.676 30.9668C144.779 29.528 143.695 28.8086 142.426 28.8086C140.141 28.8086 138.643 29.6126 137.932 31.2207C137.238 32.8118 136.891 34.9616 136.891 37.6699Z" fill="white"/>
<path d="M163.449 51C162.264 51 161.672 50.3652 161.672 49.0957V16.4941C161.672 15.2246 162.264 14.5898 163.449 14.5898H185.234C186.504 14.5898 187.139 15.14 187.139 16.2402V19.2363C187.139 20.3366 186.504 20.8867 185.234 20.8867H169.086V28.9609H183.889C185.158 28.9609 185.793 29.5111 185.793 30.6113V33.6074C185.793 34.7077 185.158 35.2578 183.889 35.2578H169.086V44.7031H186.047C187.316 44.7031 187.951 45.2533 187.951 46.3535V49.3496C187.951 50.4499 187.316 51 186.047 51H163.449Z" fill="white"/>
<path d="M192.141 37.6699C192.141 33.946 192.945 30.7129 194.553 27.9707C196.178 25.2116 198.979 23.832 202.957 23.832C204.48 23.832 205.784 24.0521 206.867 24.4922C207.951 24.9323 208.932 25.8802 209.812 27.3359H209.914L210.016 25.8633C210.083 24.8477 210.54 24.3398 211.387 24.3398H215.398C216.414 24.3398 216.922 24.8477 216.922 25.8633V59.6328C216.922 60.6484 216.414 61.1562 215.398 61.1562H211.336C210.32 61.1562 209.812 60.6484 209.812 59.6328V50.0352C209.812 49.3581 209.846 48.681 209.914 48.0039H209.812C208.932 49.4596 207.951 50.4076 206.867 50.8477C205.784 51.2878 204.48 51.5078 202.957 51.5078C198.979 51.5078 196.178 50.1367 194.553 47.3945C192.945 44.6354 192.141 41.3939 192.141 37.6699ZM199.656 37.6699C199.656 40.3783 200.003 42.5365 200.697 44.1445C201.408 45.7357 202.906 46.5312 205.191 46.5312C206.461 46.5312 207.544 45.8203 208.441 44.3984C209.355 42.9596 209.812 41.0977 209.812 38.8125V36.5273C209.812 34.2422 209.355 32.3887 208.441 30.9668C207.544 29.528 206.461 28.8086 205.191 28.8086C202.906 28.8086 201.408 29.6126 200.697 31.2207C200.003 32.8118 199.656 34.9616 199.656 37.6699Z" fill="white"/>
<path d="M223.777 39.9297V25.8633C223.777 24.8477 224.285 24.3398 225.301 24.3398H229.363C230.379 24.3398 230.887 24.8477 230.887 25.8633V38.1016C230.887 41.7917 231.141 44.1191 231.648 45.084C232.156 46.0488 233.223 46.5312 234.848 46.5312C236.574 46.5312 237.886 45.8457 238.783 44.4746C239.68 43.0866 240.129 40.2174 240.129 35.8672V25.8633C240.129 24.8477 240.637 24.3398 241.652 24.3398H245.715C246.73 24.3398 247.238 24.8477 247.238 25.8633V49.4766C247.238 50.4922 246.73 51 245.715 51H241.703C240.688 51 240.18 50.4922 240.18 49.4766V48.0039H240.078C239.299 49.3411 238.309 50.2637 237.107 50.7715C235.906 51.2624 234.484 51.5078 232.842 51.5078C230.252 51.5078 228.094 50.6784 226.367 49.0195C224.641 47.3607 223.777 44.3307 223.777 39.9297Z" fill="white"/>
<path d="M255.668 51C254.652 51 254.145 50.4922 254.145 49.4766V25.8633C254.145 24.8477 254.652 24.3398 255.668 24.3398H259.73C260.746 24.3398 261.254 24.8477 261.254 25.8633V49.4766C261.254 50.4922 260.746 51 259.73 51H255.668ZM255.668 20.4297C254.652 20.4297 254.145 19.9219 254.145 18.9062V15.6562C254.145 14.6406 254.652 14.1328 255.668 14.1328H259.73C260.746 14.1328 261.254 14.6406 261.254 15.6562V18.9062C261.254 19.9219 260.746 20.4297 259.73 20.4297H255.668Z" fill="white"/>
<path d="M269.684 61.1562C268.668 61.1562 268.16 60.6484 268.16 59.6328V25.8633C268.16 24.8477 268.668 24.3398 269.684 24.3398H273.695C274.542 24.3398 274.999 24.8477 275.066 25.8633L275.168 27.3359H275.27C276.15 25.8802 277.132 24.9323 278.215 24.4922C279.298 24.0521 280.602 23.832 282.125 23.832C286.103 23.832 288.896 25.2116 290.504 27.9707C292.129 30.7129 292.941 33.946 292.941 37.6699C292.941 41.3939 292.129 44.6354 290.504 47.3945C288.896 50.1367 286.103 51.5078 282.125 51.5078C280.602 51.5078 279.298 51.2878 278.215 50.8477C277.132 50.4076 276.15 49.4596 275.27 48.0039H275.168C275.236 48.681 275.27 49.3581 275.27 50.0352V59.6328C275.27 60.6484 274.762 61.1562 273.746 61.1562H269.684ZM275.27 38.8125C275.27 41.0977 275.718 42.9596 276.615 44.3984C277.529 45.8203 278.621 46.5312 279.891 46.5312C282.176 46.5312 283.665 45.7357 284.359 44.1445C285.07 42.5365 285.426 40.3783 285.426 37.6699C285.426 34.9616 285.07 32.8118 284.359 31.2207C283.665 29.6126 282.176 28.8086 279.891 28.8086C278.621 28.8086 277.529 29.528 276.615 30.9668C275.718 32.3887 275.27 34.2422 275.27 36.5273V38.8125Z" fill="white"/>
</svg>
