<?xml version="1.0" encoding="UTF-8"?>
<!DOCTYPE svg PUBLIC "-//W3C//DTD SVG 1.1//EN" "http://www.w3.org/Graphics/SVG/1.1/DTD/svg11.dtd">
<svg xmlns="http://www.w3.org/2000/svg" version="1.1" width="260px" height="129px" style="shape-rendering:geometricPrecision; text-rendering:geometricPrecision; image-rendering:optimizeQuality; fill-rule:evenodd; clip-rule:evenodd" xmlns:xlink="http://www.w3.org/1999/xlink">
<g><path style="opacity:0.992" fill="#003084" d="M 110.5,21.5 C 109.167,22.5 109.167,23.5 110.5,24.5C 110.573,26.0269 109.906,27.0269 108.5,27.5C 108.167,26.1667 107.833,26.1667 107.5,27.5C 106.833,27.5 106.5,27.8333 106.5,28.5C 105.833,28.5 105.5,28.8333 105.5,29.5C 104.833,29.5 104.5,29.8333 104.5,30.5C 103.833,30.5 103.5,30.8333 103.5,31.5C 102.209,31.2627 101.209,31.596 100.5,32.5C 93.4454,33.8889 87.6121,31.8889 83,26.5C 82.6667,26.8333 82.3333,27.1667 82,27.5C 80.8118,26.4366 80.3118,25.1033 80.5,23.5C 81.8333,22.5 81.8333,21.5 80.5,20.5C 81.4171,17.9952 81.4171,15.6618 80.5,13.5C 80.795,11.5767 81.6283,9.91008 83,8.5C 83.3333,8.83333 83.6667,9.16667 84,9.5C 92.284,2.59433 100.284,2.92766 108,10.5C 108.667,9.16667 109.333,9.16667 110,10.5C 109.91,14.0503 110.076,17.717 110.5,21.5 Z"/></g>
<g><path style="opacity:0.016" fill="#06357e" d="M 80.5,13.5 C 80.6495,14.552 80.4828,15.552 80,16.5C 79.2599,15.2506 79.4265,14.2506 80.5,13.5 Z"/></g>
<g><path style="opacity:0.998" fill="#04de04" d="M 211.5,30.5 C 211.167,29.1667 210.833,29.1667 210.5,30.5C 209.833,30.5 209.5,30.8333 209.5,31.5C 208.833,31.5 208.5,31.8333 208.5,32.5C 207.833,32.5 207.5,32.8333 207.5,33.5C 206.833,33.5 206.5,33.8333 206.5,34.5C 205.833,34.5 205.5,34.8333 205.5,35.5C 204.833,35.5 204.5,35.8333 204.5,36.5C 203.5,36.8333 202.833,37.5 202.5,38.5C 201.833,38.5 201.5,38.8333 201.5,39.5C 200.833,39.5 200.5,39.8333 200.5,40.5C 199.833,40.5 199.5,40.8333 199.5,41.5C 198.833,41.5 198.5,41.8333 198.5,42.5C 197.833,42.5 197.5,42.8333 197.5,43.5C 196.833,43.5 196.5,43.8333 196.5,44.5C 195.833,44.5 195.5,44.8333 195.5,45.5C 194.833,45.5 194.5,45.8333 194.5,46.5C 193.833,46.5 193.5,46.8333 193.5,47.5C 192.833,47.5 192.5,47.8333 192.5,48.5C 191.833,48.5 191.5,48.8333 191.5,49.5C 190.833,49.5 190.5,49.8333 190.5,50.5C 189.833,50.5 189.5,50.8333 189.5,51.5C 188.833,51.5 188.5,51.8333 188.5,52.5C 187.833,52.5 187.5,52.8333 187.5,53.5C 186.833,53.5 186.5,53.8333 186.5,54.5C 185.833,54.5 185.5,54.8333 185.5,55.5C 184.833,55.5 184.5,55.8333 184.5,56.5C 183.833,56.5 183.5,56.8333 183.5,57.5C 182.833,57.5 182.5,57.8333 182.5,58.5C 181.833,58.5 181.5,58.8333 181.5,59.5C 180.833,59.5 180.5,59.8333 180.5,60.5C 179.833,60.5 179.5,60.8333 179.5,61.5C 178.833,61.5 178.5,61.8333 178.5,62.5C 177.833,62.5 177.5,62.8333 177.5,63.5C 176.833,63.5 176.5,63.8333 176.5,64.5C 175.833,64.5 175.5,64.8333 175.5,65.5C 173.5,66.8333 171.833,68.5 170.5,70.5C 169.833,70.5 169.5,70.8333 169.5,71.5C 168.833,71.5 168.5,71.8333 168.5,72.5C 167.833,72.5 167.5,72.8333 167.5,73.5C 166.833,73.5 166.5,73.8333 166.5,74.5C 165.833,74.5 165.5,74.8333 165.5,75.5C 164.833,75.5 164.5,75.8333 164.5,76.5C 163.833,76.5 163.5,76.8333 163.5,77.5C 162.833,77.5 162.5,77.8333 162.5,78.5C 161.833,78.5 161.5,78.8333 161.5,79.5C 160.833,79.5 160.5,79.8333 160.5,80.5C 159.833,80.5 159.5,80.8333 159.5,81.5C 158.833,81.5 158.5,81.8333 158.5,82.5C 157.833,82.5 157.5,82.8333 157.5,83.5C 156.833,83.5 156.5,83.8333 156.5,84.5C 152.668,88.1638 148.668,91.6638 144.5,95C 145.416,95.2784 146.082,95.7784 146.5,96.5C 145.833,96.5 145.5,96.8333 145.5,97.5C 145.167,97.5 144.833,97.5 144.5,97.5C 140.542,96.9286 136.876,95.5953 133.5,93.5C 133.5,92.8333 133.167,92.5 132.5,92.5C 132.167,91.1667 131.833,91.1667 131.5,92.5C 131.167,92.5 130.833,92.5 130.5,92.5C 130.5,91.8333 130.167,91.5 129.5,91.5C 129.5,90.8333 129.167,90.5 128.5,90.5C 128.5,90.1667 128.5,89.8333 128.5,89.5C 128.5,89.1667 128.5,88.8333 128.5,88.5C 129.833,88.1667 129.833,87.8333 128.5,87.5C 128.5,86.8333 128.167,86.5 127.5,86.5C 127.5,85.8333 127.167,85.5 126.5,85.5C 126.5,84.8333 126.167,84.5 125.5,84.5C 125.5,83.8333 125.167,83.5 124.5,83.5C 124.5,82.8333 124.167,82.5 123.5,82.5C 123.5,81.8333 123.167,81.5 122.5,81.5C 122.5,80.8333 122.167,80.5 121.5,80.5C 121.5,79.8333 121.167,79.5 120.5,79.5C 120.5,78.8333 120.167,78.5 119.5,78.5C 119.5,77.8333 119.167,77.5 118.5,77.5C 118.5,76.8333 118.167,76.5 117.5,76.5C 117.5,75.8333 117.167,75.5 116.5,75.5C 116.167,74.1667 115.833,74.1667 115.5,75.5C 112.777,73.8956 111.444,71.3956 111.5,68C 111.801,64.903 112.801,62.0696 114.5,59.5C 115.167,59.5 115.5,59.1667 115.5,58.5C 116.167,58.5 116.5,58.1667 116.5,57.5C 117.167,57.5 117.5,57.1667 117.5,56.5C 119.477,57.8715 121.144,57.5382 122.5,55.5C 125.167,55.5 127.833,55.5 130.5,55.5C 130.842,54.6618 131.508,54.3284 132.5,54.5C 132.5,55.1667 132.833,55.5 133.5,55.5C 133.5,56.1667 133.833,56.5 134.5,56.5C 134.5,57.1667 134.833,57.5 135.5,57.5C 136.476,58.8149 137.476,60.1482 138.5,61.5C 138.291,62.086 137.957,62.586 137.5,63C 139,64.5 140.5,66 142,67.5C 160.195,48.9712 178.695,30.8045 197.5,13C 199.5,12.3333 201.5,12.3333 203.5,13C 206.63,15.128 209.463,17.628 212,20.5C 212.667,19.1667 213.333,19.1667 214,20.5C 215.137,24.4631 214.303,27.7964 211.5,30.5 Z"/></g>
<g><path style="opacity:0.008" fill="#10047c" d="M 111.5,21.5 C 111.338,19.4727 111.505,17.4727 112,15.5C 112.789,17.7116 112.622,19.7116 111.5,21.5 Z"/></g>
<g><path style="opacity:0.004" fill="#000000" d="M 78.5,17.5 C 79.525,17.8966 79.6917,18.5632 79,19.5C 78.5357,18.9056 78.369,18.2389 78.5,17.5 Z"/></g>
<g><path style="opacity:0.016" fill="#0a3789" d="M 80.5,20.5 C 80.5,21.5 80.5,22.5 80.5,23.5C 79.1667,22.5 79.1667,21.5 80.5,20.5 Z"/></g>
<g><path style="opacity:0.016" fill="#0b257f" d="M 110.5,21.5 C 110.833,21.5 111.167,21.5 111.5,21.5C 111.737,22.791 111.404,23.791 110.5,24.5C 110.5,23.5 110.5,22.5 110.5,21.5 Z"/></g>
<g><path style="opacity:0.012" fill="#0054aa" d="M 107.5,27.5 C 107.833,27.5 108.167,27.5 108.5,27.5C 108.315,28.1701 107.981,28.1701 107.5,27.5 Z"/></g>
<g><path style="opacity:0.012" fill="#0054aa" d="M 106.5,28.5 C 106.833,28.5 107.167,28.5 107.5,28.5C 107.315,29.1701 106.981,29.1701 106.5,28.5 Z"/></g>
<g><path style="opacity:0.012" fill="#0054aa" d="M 105.5,29.5 C 105.833,29.5 106.167,29.5 106.5,29.5C 106.315,30.1701 105.981,30.1701 105.5,29.5 Z"/></g>
<g><path style="opacity:0.012" fill="#0054aa" d="M 104.5,30.5 C 104.833,30.5 105.167,30.5 105.5,30.5C 105.315,31.1701 104.981,31.1701 104.5,30.5 Z"/></g>
<g><path style="opacity:0.012" fill="#00ff00" d="M 210.5,30.5 C 210.833,30.5 211.167,30.5 211.5,30.5C 211.315,31.1701 210.981,31.1701 210.5,30.5 Z"/></g>
<g><path style="opacity:0.008" fill="#00007f" d="M 103.5,31.5 C 103.833,31.5 104.167,31.5 104.5,31.5C 104.315,32.1701 103.981,32.1701 103.5,31.5 Z"/></g>
<g><path style="opacity:0.012" fill="#00ff00" d="M 209.5,31.5 C 209.833,31.5 210.167,31.5 210.5,31.5C 210.315,32.1701 209.981,32.1701 209.5,31.5 Z"/></g>
<g><path style="opacity:0.012" fill="#182b52" d="M 100.5,33.5 C 100.5,33.1667 100.5,32.8333 100.5,32.5C 101.5,32.5 102.5,32.5 103.5,32.5C 102.791,33.404 101.791,33.7373 100.5,33.5 Z"/></g>
<g><path style="opacity:0.012" fill="#00ff00" d="M 208.5,32.5 C 208.833,32.5 209.167,32.5 209.5,32.5C 209.315,33.1701 208.981,33.1701 208.5,32.5 Z"/></g>
<g><path style="opacity:0.016" fill="#11357c" d="M 100.5,33.5 C 97.3601,34.6408 94.0267,34.8075 90.5,34C 93.8168,33.5017 97.1501,33.335 100.5,33.5 Z"/></g>
<g><path style="opacity:0.012" fill="#00ff00" d="M 207.5,33.5 C 207.833,33.5 208.167,33.5 208.5,33.5C 208.315,34.1701 207.981,34.1701 207.5,33.5 Z"/></g>
<g><path style="opacity:0.012" fill="#00ff00" d="M 206.5,34.5 C 206.833,34.5 207.167,34.5 207.5,34.5C 207.315,35.1701 206.981,35.1701 206.5,34.5 Z"/></g>
<g><path style="opacity:0.016" fill="#1c4179" d="M 205.5,35.5 C 205.833,35.5 206.167,35.5 206.5,35.5C 211.316,36.3261 216.316,36.8261 221.5,37C 215.651,37.8184 209.985,37.6517 204.5,36.5C 205.167,36.5 205.5,36.1667 205.5,35.5 Z"/></g>
<g><path style="opacity:0.016" fill="#122964" d="M 54.5,40.5 C 55.6009,39.4017 56.9343,39.235 58.5,40C 57.2068,40.49 55.8734,40.6567 54.5,40.5 Z"/></g>
<g><path style="opacity:0.008" fill="#000089" d="M 113.5,40.5 C 120.989,39.3443 128.655,39.1777 136.5,40C 128.841,40.4997 121.174,40.6664 113.5,40.5 Z"/></g>
<g><path style="opacity:0.996" fill="#033184" d="M 202.5,38.5 C 203.281,40.6281 204.281,40.7947 205.5,39C 217.455,36.8646 228.288,39.3646 238,46.5C 238.718,45.5494 239.551,45.3828 240.5,46C 242,47.5 243.5,49 245,50.5C 244.383,52.0948 244.716,53.4281 246,54.5C 246.333,54.1667 246.667,53.8333 247,53.5C 248.333,55.5 249.667,57.5 251,59.5C 252.378,67.6292 253.211,75.9626 253.5,84.5C 252.539,86.2646 252.205,88.2646 252.5,90.5C 251.596,91.209 251.263,92.209 251.5,93.5C 250.167,94.5 250.167,95.5 251.5,96.5C 250.343,100.976 248.01,104.642 244.5,107.5C 244.167,106.167 243.833,106.167 243.5,107.5C 242.833,107.5 242.5,107.833 242.5,108.5C 241.833,108.5 241.5,108.833 241.5,109.5C 240.833,109.5 240.5,109.833 240.5,110.5C 239.833,110.5 239.5,110.833 239.5,111.5C 238.508,111.328 237.842,111.662 237.5,112.5C 236.833,112.5 236.5,112.833 236.5,113.5C 235.833,113.5 235.5,113.833 235.5,114.5C 234.508,114.328 233.842,114.662 233.5,115.5C 232.508,115.328 231.842,115.662 231.5,116.5C 230.508,116.328 229.842,116.662 229.5,117.5C 228.209,117.263 227.209,117.596 226.5,118.5C 224.901,118.232 223.568,118.566 222.5,119.5C 220.265,119.205 218.265,119.539 216.5,120.5C 211.493,120.249 206.493,119.916 201.5,119.5C 194.954,117.225 188.954,113.892 183.5,109.5C 183.5,108.833 183.167,108.5 182.5,108.5C 181.149,105.908 179.315,104.574 177,104.5C 174.676,101.52 173.176,98.1867 172.5,94.5C 173.833,93.5 173.833,92.5 172.5,91.5C 172.768,89.901 172.434,88.5676 171.5,87.5C 171.167,67.5 170.833,67.5 170.5,87.5C 169.833,82.8333 169.167,78.1667 168.5,73.5C 168.5,73.1667 168.5,72.8333 168.5,72.5C 169.167,72.5 169.5,72.1667 169.5,71.5C 170.167,71.5 170.5,71.1667 170.5,70.5C 171.117,70.6107 171.617,70.944 172,71.5C 173.5,70 175,68.5 176.5,67C 175.944,66.6174 175.611,66.1174 175.5,65.5C 176.167,65.5 176.5,65.1667 176.5,64.5C 177.167,64.5 177.5,64.1667 177.5,63.5C 178.167,63.5 178.5,63.1667 178.5,62.5C 179.167,62.5 179.5,62.1667 179.5,61.5C 180.167,61.5 180.5,61.1667 180.5,60.5C 181.167,60.5 181.5,60.1667 181.5,59.5C 182.167,59.5 182.5,59.1667 182.5,58.5C 183.167,58.5 183.5,58.1667 183.5,57.5C 184.167,57.5 184.5,57.1667 184.5,56.5C 185.167,56.5 185.5,56.1667 185.5,55.5C 186.167,55.5 186.5,55.1667 186.5,54.5C 187.167,54.5 187.5,54.1667 187.5,53.5C 188.167,53.5 188.5,53.1667 188.5,52.5C 189.167,52.5 189.5,52.1667 189.5,51.5C 190.167,51.5 190.5,51.1667 190.5,50.5C 191.167,50.5 191.5,50.1667 191.5,49.5C 192.167,49.5 192.5,49.1667 192.5,48.5C 193.167,48.5 193.5,48.1667 193.5,47.5C 194.167,47.5 194.5,47.1667 194.5,46.5C 195.167,46.5 195.5,46.1667 195.5,45.5C 196.167,45.5 196.5,45.1667 196.5,44.5C 197.167,44.5 197.5,44.1667 197.5,43.5C 198.167,43.5 198.5,43.1667 198.5,42.5C 199.167,42.5 199.5,42.1667 199.5,41.5C 200.167,41.5 200.5,41.1667 200.5,40.5C 201.167,40.5 201.5,40.1667 201.5,39.5C 202.167,39.5 202.5,39.1667 202.5,38.5 Z M 216.5,60.5 C 213.813,60.3359 211.146,60.5026 208.5,61C 213.495,61.0358 218.161,62.2025 222.5,64.5C 222.833,65.5 223.5,66.1667 224.5,66.5C 225.512,69.2572 226.512,71.9239 227.5,74.5C 227.533,78.8689 227.2,83.2022 226.5,87.5C 225.596,88.209 225.263,89.209 225.5,90.5C 224.094,90.9731 223.427,91.9731 223.5,93.5C 220.204,95.7207 216.537,96.8873 212.5,97C 214.473,97.4955 216.473,97.6621 218.5,97.5C 216.657,98.2829 214.657,98.9495 212.5,99.5C 210.343,98.9495 208.343,98.2829 206.5,97.5C 213.167,97.1667 213.167,96.8333 206.5,96.5C 205.791,95.596 204.791,95.2627 203.5,95.5C 202.833,94.1667 201.833,93.1667 200.5,92.5C 199.736,89.9823 198.736,87.649 197.5,85.5C 197.5,81.1667 197.5,76.8333 197.5,72.5C 198.814,69.8721 200.147,67.2054 201.5,64.5C 203.027,64.573 204.027,63.9063 204.5,62.5C 207.598,62.5875 207.932,62.0875 205.5,61C 209.229,59.2996 212.895,59.1329 216.5,60.5 Z"/></g>
<g><path style="opacity:0.008" fill="#091b7f" d="M 59.5,41.5 C 59.8966,40.475 60.5632,40.3083 61.5,41C 60.9056,41.4643 60.2389,41.631 59.5,41.5 Z"/></g>
<g><path style="opacity:0.008" fill="#00007f" d="M 84.5,41.5 C 91.6549,40.3448 98.9882,40.1782 106.5,41C 99.1742,41.4997 91.8409,41.6663 84.5,41.5 Z"/></g>
<g><path style="opacity:0.991" fill="#003184" d="M 54.5,40.5 C 61.7327,42.2062 67.8993,45.8729 73,51.5C 73.3333,51.1667 73.6667,50.8333 74,50.5C 76.0568,52.2337 76.5568,54.2337 75.5,56.5C 76.5156,59.2821 77.5156,61.9487 78.5,64.5C 78.5,83.1667 78.5,101.833 78.5,120.5C 71.4921,120.666 64.4921,120.5 57.5,120C 56.8828,117.723 56.2161,115.556 55.5,113.5C 55.1667,112.167 54.8333,112.167 54.5,113.5C 53.8333,113.5 53.5,113.833 53.5,114.5C 52.8333,114.5 52.5,114.833 52.5,115.5C 51.8333,115.5 51.5,115.833 51.5,116.5C 50.8333,116.5 50.5,116.833 50.5,117.5C 49.5084,117.328 48.8417,117.662 48.5,118.5C 46.847,118.66 45.5137,119.326 44.5,120.5C 43.209,120.263 42.209,120.596 41.5,121.5C 35.5,122.833 29.5,122.833 23.5,121.5C 20.6865,119.93 17.6865,118.597 14.5,117.5C 13.2073,115.704 11.7073,114.037 10,112.5C 8.37453,113.412 7.5412,112.745 7.5,110.5C 8.83333,109.833 8.83333,109.167 7.5,108.5C 7.67158,107.508 7.33825,106.842 6.5,106.5C 6.76781,104.901 6.43448,103.568 5.5,102.5C 5.5,100.167 5.5,97.8333 5.5,95.5C 6.96101,93.324 7.29435,90.9907 6.5,88.5C 7.92995,85.5673 9.92995,83.0673 12.5,81C 16.2394,80.6655 19.906,79.3322 23.5,77C 33.8207,74.9068 44.154,72.9068 54.5,71C 53.5,70.6667 52.5,70.3333 51.5,70C 52.5156,69.4806 53.1822,68.6473 53.5,67.5C 52.5697,65.8953 52.5697,64.3953 53.5,63C 53,62.5 52.5,62 52,61.5C 50.6124,62.5536 49.1124,62.7203 47.5,62C 48.5,61.6667 49.5,61.3333 50.5,61C 45.9715,58.9894 41.6381,59.156 37.5,61.5C 36.5084,61.3284 35.8417,61.6618 35.5,62.5C 34.8333,62.5 34.5,62.8333 34.5,63.5C 33.1667,63.8333 33.1667,64.1667 34.5,64.5C 33.6873,69.5241 30.6873,71.5241 25.5,70.5C 20.7017,69.0361 15.7017,67.8694 10.5,67C 8.89339,65.951 8.22672,64.451 8.5,62.5C 9.83333,61.5 9.83333,60.5 8.5,59.5C 9.34314,56.4838 10.8431,53.8171 13,51.5C 13.3333,51.8333 13.6667,52.1667 14,52.5C 19.8083,46.1785 26.9749,42.3452 35.5,41C 41.8246,40.5005 48.1579,40.3338 54.5,40.5 Z M 49.5,89.5 C 50.8333,89.5 52.1667,89.5 53.5,89.5C 53.4162,92.3274 52.7496,94.994 51.5,97.5C 48.0641,100.38 44.0641,101.88 39.5,102C 41.4727,102.495 43.4727,102.662 45.5,102.5C 43.6568,103.283 41.6568,103.95 39.5,104.5C 37.3432,103.95 35.3432,103.283 33.5,102.5C 40.1667,102.167 40.1667,101.833 33.5,101.5C 32.0605,99.412 31.3939,97.0786 31.5,94.5C 32.8816,93.1995 34.5483,92.3661 36.5,92C 41.0148,91.3855 45.3481,90.5522 49.5,89.5 Z"/></g>
<g><path style="opacity:0.988" fill="#003184" d="M 135.5,57.5 C 134.833,57.5 134.5,57.1667 134.5,56.5C 133.833,56.5 133.5,56.1667 133.5,55.5C 132.833,55.5 132.5,55.1667 132.5,54.5C 131.791,53.596 130.791,53.2627 129.5,53.5C 127.5,52.1667 125.5,52.1667 123.5,53.5C 122.209,53.2627 121.209,53.596 120.5,54.5C 119.29,54.9321 118.29,55.5987 117.5,56.5C 116.833,56.5 116.5,56.8333 116.5,57.5C 115.833,57.5 115.5,57.8333 115.5,58.5C 114.833,58.5 114.5,58.8333 114.5,59.5C 113.508,59.6716 112.842,59.3382 112.5,58.5C 113.489,53.0247 113.822,47.358 113.5,41.5C 121.167,41.5 128.833,41.5 136.5,41.5C 136.322,46.0395 136.655,50.5395 137.5,55C 137.316,56.3756 136.649,57.2089 135.5,57.5 Z M 120.5,54.5 C 121.209,53.596 122.209,53.2627 123.5,53.5C 125.5,54.8333 127.5,54.8333 129.5,53.5C 130.791,53.2627 131.791,53.596 132.5,54.5C 131.508,54.3284 130.842,54.6618 130.5,55.5C 127.833,55.5 125.167,55.5 122.5,55.5C 122.158,54.6618 121.492,54.3284 120.5,54.5 Z"/></g>
<g><path style="opacity:0.004" fill="#0000ff" d="M 81.5,42.5 C 82.6634,67.9967 82.8301,93.6634 82,119.5C 81.5,93.8355 81.3334,68.1688 81.5,42.5 Z"/></g>
<g><path style="opacity:0.012" fill="#0054aa" d="M 112.5,58.5 C 111.349,53.3497 111.183,48.0164 112,42.5C 112.499,47.8229 112.666,53.1563 112.5,58.5 Z"/></g>
<g><path style="opacity:0.997" fill="#003184" d="M 83.5,42.5 C 91.5,42.5 99.5,42.5 107.5,42.5C 107.5,68.5 107.5,94.5 107.5,120.5C 99.5,120.5 91.5,120.5 83.5,120.5C 83.5,94.5 83.5,68.5 83.5,42.5 Z"/></g>
<g><path style="opacity:0.012" fill="#0155a9" d="M 108.5,42.5 C 109.663,67.9967 109.83,93.6634 109,119.5C 108.5,93.8355 108.333,68.1688 108.5,42.5 Z"/></g>
<g><path style="opacity:0.008" fill="#181e7e" d="M 137.5,42.5 C 138.638,45.3035 138.805,48.3035 138,51.5C 137.502,48.5184 137.335,45.5184 137.5,42.5 Z"/></g>
<g><path style="opacity:0.004" fill="#000000" d="M 138.5,52.5 C 139.598,53.6009 139.765,54.9343 139,56.5C 138.51,55.2068 138.343,53.8734 138.5,52.5 Z"/></g>
<g><path style="opacity:0.016" fill="#0b257f" d="M 8.5,59.5 C 8.5,60.5 8.5,61.5 8.5,62.5C 8.16667,62.5 7.83333,62.5 7.5,62.5C 7.26269,61.209 7.59603,60.209 8.5,59.5 Z"/></g>
<g><path style="opacity:0.012" fill="#1a366c" d="M 37.5,62.5 C 37.5,62.1667 37.5,61.8333 37.5,61.5C 42.8333,61.8333 42.8333,62.1667 37.5,62.5 Z"/></g>
<g><path style="opacity:0.016" fill="#0b2a7f" d="M 79.5,64.5 C 79.1667,64.5 78.8333,64.5 78.5,64.5C 78.8333,59.1667 79.1667,59.1667 79.5,64.5 Z"/></g>
<g><path style="opacity:0.008" fill="#091b7f" d="M 35.5,63.5 C 35.5,63.1667 35.5,62.8333 35.5,62.5C 36.1667,62.5 36.8333,62.5 37.5,62.5C 37.1583,63.3382 36.4916,63.6716 35.5,63.5 Z"/></g>
<g><path style="opacity:0.016" fill="#0b2a7f" d="M 7.5,62.5 C 7.65668,63.8734 7.49001,65.2068 7,66.5C 6.23502,64.9343 6.40168,63.6009 7.5,62.5 Z"/></g>
<g><path style="opacity:0.02" fill="#003299" d="M 34.5,63.5 C 34.8333,63.5 35.1667,63.5 35.5,63.5C 35.3147,64.1701 34.9813,64.1701 34.5,63.5 Z"/></g>
<g><path style="opacity:0.016" fill="#053d7f" d="M 79.5,64.5 C 80.6621,82.662 80.8288,100.995 80,119.5C 79.5001,101.17 79.3334,82.8364 79.5,64.5 Z"/></g>
<g><path style="opacity:0.016" fill="#102672" d="M 25.5,70.5 C 25.5,70.8333 25.5,71.1667 25.5,71.5C 18.8333,71.1667 18.8333,70.8333 25.5,70.5 Z"/></g>
<g><path style="opacity:0.016" fill="#0d298a" d="M 25.5,71.5 C 27.1992,71.3398 28.8659,71.5065 30.5,72C 28.6131,72.7796 26.9464,72.6129 25.5,71.5 Z"/></g>
<g><path style="opacity:0.016" fill="#0c2e88" d="M 38.5,72.5 C 40.2884,71.3775 42.2884,71.2109 44.5,72C 42.5273,72.4955 40.5273,72.6621 38.5,72.5 Z"/></g>
<g><path style="opacity:0.016" fill="#133873" d="M 31.5,73.5 C 33.2884,72.3775 35.2884,72.2109 37.5,73C 35.5273,73.4955 33.5273,73.6621 31.5,73.5 Z"/></g>
<g><path style="opacity:0.008" fill="#00ff00" d="M 167.5,73.5 C 167.833,73.5 168.167,73.5 168.5,73.5C 168.315,74.1701 167.981,74.1701 167.5,73.5 Z"/></g>
<g><path style="opacity:0.008" fill="#00ff00" d="M 166.5,74.5 C 166.833,74.5 167.167,74.5 167.5,74.5C 167.315,75.1701 166.981,75.1701 166.5,74.5 Z"/></g>
<g><path style="opacity:0.008" fill="#00ff00" d="M 165.5,75.5 C 165.833,75.5 166.167,75.5 166.5,75.5C 166.315,76.1701 165.981,76.1701 165.5,75.5 Z"/></g>
<g><path style="opacity:0.004" fill="#448563" d="M 115.5,75.5 C 115.833,75.5 116.167,75.5 116.5,75.5C 117.167,75.5 117.5,75.8333 117.5,76.5C 118.167,76.5 118.5,76.8333 118.5,77.5C 119.167,77.5 119.5,77.8333 119.5,78.5C 120.167,78.5 120.5,78.8333 120.5,79.5C 121.167,79.5 121.5,79.8333 121.5,80.5C 122.167,80.5 122.5,80.8333 122.5,81.5C 123.167,81.5 123.5,81.8333 123.5,82.5C 124.167,82.5 124.5,82.8333 124.5,83.5C 125.167,83.5 125.5,83.8333 125.5,84.5C 126.167,84.5 126.5,84.8333 126.5,85.5C 127.167,85.5 127.5,85.8333 127.5,86.5C 128.167,86.5 128.5,86.8333 128.5,87.5C 128.5,87.8333 128.5,88.1667 128.5,88.5C 128.5,88.8333 128.5,89.1667 128.5,89.5C 128.167,89.5 127.833,89.5 127.5,89.5C 127.5,88.8333 127.167,88.5 126.5,88.5C 126.5,87.8333 126.167,87.5 125.5,87.5C 125.5,86.8333 125.167,86.5 124.5,86.5C 124.5,85.8333 124.167,85.5 123.5,85.5C 123.5,84.8333 123.167,84.5 122.5,84.5C 122.5,83.8333 122.167,83.5 121.5,83.5C 121.5,82.8333 121.167,82.5 120.5,82.5C 120.5,81.8333 120.167,81.5 119.5,81.5C 119.5,80.8333 119.167,80.5 118.5,80.5C 118.5,79.8333 118.167,79.5 117.5,79.5C 117.5,78.8333 117.167,78.5 116.5,78.5C 116.5,77.8333 116.167,77.5 115.5,77.5C 115.5,77.1667 115.5,76.8333 115.5,76.5C 115.5,76.1667 115.5,75.8333 115.5,75.5 Z"/></g>
<g><path style="opacity:0.008" fill="#00ff00" d="M 164.5,76.5 C 164.833,76.5 165.167,76.5 165.5,76.5C 165.315,77.1701 164.981,77.1701 164.5,76.5 Z"/></g>
<g><path style="opacity:0.008" fill="#150773" d="M 254.5,84.5 C 254.335,80.8183 254.501,77.1516 255,73.5C 255.81,77.3575 255.643,81.0242 254.5,84.5 Z"/></g>
<g><path style="opacity:0.008" fill="#00ff00" d="M 163.5,77.5 C 163.833,77.5 164.167,77.5 164.5,77.5C 164.315,78.1701 163.981,78.1701 163.5,77.5 Z"/></g>
<g><path style="opacity:0.008" fill="#00ff00" d="M 162.5,78.5 C 162.833,78.5 163.167,78.5 163.5,78.5C 163.315,79.1701 162.981,79.1701 162.5,78.5 Z"/></g>
<g><path style="opacity:0.008" fill="#00ff00" d="M 161.5,79.5 C 161.833,79.5 162.167,79.5 162.5,79.5C 162.315,80.1701 161.981,80.1701 161.5,79.5 Z"/></g>
<g><path style="opacity:0.008" fill="#00ff00" d="M 160.5,80.5 C 160.833,80.5 161.167,80.5 161.5,80.5C 161.315,81.1701 160.981,81.1701 160.5,80.5 Z"/></g>
<g><path style="opacity:0.008" fill="#00ff00" d="M 159.5,81.5 C 159.833,81.5 160.167,81.5 160.5,81.5C 160.315,82.1701 159.981,82.1701 159.5,81.5 Z"/></g>
<g><path style="opacity:0.008" fill="#00ff00" d="M 158.5,82.5 C 158.833,82.5 159.167,82.5 159.5,82.5C 159.315,83.1701 158.981,83.1701 158.5,82.5 Z"/></g>
<g><path style="opacity:0.998" fill="#053385" d="M 115.5,76.5 C 115.5,76.8333 115.5,77.1667 115.5,77.5C 116.167,77.5 116.5,77.8333 116.5,78.5C 117.167,78.5 117.5,78.8333 117.5,79.5C 118.167,79.5 118.5,79.8333 118.5,80.5C 119.167,80.5 119.5,80.8333 119.5,81.5C 120.167,81.5 120.5,81.8333 120.5,82.5C 121.167,82.5 121.5,82.8333 121.5,83.5C 122.167,83.5 122.5,83.8333 122.5,84.5C 123.167,84.5 123.5,84.8333 123.5,85.5C 124.167,85.5 124.5,85.8333 124.5,86.5C 125.167,86.5 125.5,86.8333 125.5,87.5C 126.167,87.5 126.5,87.8333 126.5,88.5C 127.167,88.5 127.5,88.8333 127.5,89.5C 127.5,90.1667 127.833,90.5 128.5,90.5C 129.167,90.5 129.5,90.8333 129.5,91.5C 130.167,91.5 130.5,91.8333 130.5,92.5C 130.833,93.8333 131.167,93.8333 131.5,92.5C 131.833,92.5 132.167,92.5 132.5,92.5C 133.167,92.5 133.5,92.8333 133.5,93.5C 132.294,94.8804 132.627,96.0471 134.5,97C 136.897,96.6786 139.231,97.1786 141.5,98.5C 141.167,98.5 140.833,98.5 140.5,98.5C 139.833,98.5 139.167,98.5 138.5,98.5C 138.167,98.5 137.833,98.5 137.5,98.5C 136.508,105.648 136.175,112.981 136.5,120.5C 128.833,120.5 121.167,120.5 113.5,120.5C 113.667,106.163 113.5,91.8295 113,77.5C 112.667,91.5 112.333,105.5 112,119.5C 111.5,105.171 111.333,90.8372 111.5,76.5C 112.833,76.5 114.167,76.5 115.5,76.5 Z"/></g>
<g><path style="opacity:0.012" fill="#587381" d="M 157.5,83.5 C 157.833,83.5 158.167,83.5 158.5,83.5C 158.289,85.4241 157.623,85.7574 156.5,84.5C 157.167,84.5 157.5,84.1667 157.5,83.5 Z"/></g>
<g><path style="opacity:0.016" fill="#142d67" d="M 253.5,84.5 C 253.833,84.5 254.167,84.5 254.5,84.5C 254.795,86.7354 254.461,88.7354 253.5,90.5C 253.5,88.5 253.5,86.5 253.5,84.5 Z"/></g>
<g><path style="opacity:0.999" fill="#023184" d="M 156.5,119.5 C 155.149,116.908 153.315,115.574 151,115.5C 150.383,114.551 150.549,113.718 151.5,113C 150.531,111.242 149.364,110.742 148,111.5C 145.832,110.371 145.332,108.871 146.5,107C 145.257,104.966 143.757,104.133 142,104.5C 142.617,102.905 142.284,101.572 141,100.5C 140.333,101.833 139.667,101.833 139,100.5C 138.667,106.833 138.333,113.167 138,119.5C 137.5,112.508 137.334,105.508 137.5,98.5C 137.833,98.5 138.167,98.5 138.5,98.5C 139.167,99.8333 139.833,99.8333 140.5,98.5C 140.833,98.5 141.167,98.5 141.5,98.5C 142.791,98.7373 143.791,98.404 144.5,97.5C 144.833,97.5 145.167,97.5 145.5,97.5C 146.167,97.5 146.5,97.1667 146.5,96.5C 150.147,93.1887 153.813,89.8554 157.5,86.5C 159.149,87.6477 160.649,88.981 162,90.5C 163.131,89.3961 163.965,89.7295 164.5,91.5C 164.291,92.086 163.957,92.586 163.5,93C 165.184,94.7396 167.018,95.9063 169,96.5C 169.617,97.4491 169.451,98.2825 168.5,99C 170.184,100.74 172.018,101.906 174,102.5C 174.617,103.449 174.451,104.282 173.5,105C 175.184,106.74 177.018,107.906 179,108.5C 178.383,110.095 178.716,111.428 180,112.5C 181.557,111.795 182.723,112.461 183.5,114.5C 183.291,115.086 182.957,115.586 182.5,116C 184.109,117.801 185.776,118.967 187.5,119.5C 177.512,120.785 167.178,120.785 156.5,119.5 Z"/></g>
<g><path style="opacity:0.016" fill="#0c2e87" d="M 170.5,87.5 C 170.833,87.5 171.167,87.5 171.5,87.5C 171.5,88.8333 171.5,90.1667 171.5,91.5C 170.566,90.4324 170.232,89.099 170.5,87.5 Z"/></g>
<g><path style="opacity:0.016" fill="#0a3789" d="M 252.5,90.5 C 252.833,90.5 253.167,90.5 253.5,90.5C 253.737,91.791 253.404,92.791 252.5,93.5C 252.5,92.5 252.5,91.5 252.5,90.5 Z"/></g>
<g><path style="opacity:0.012" fill="#15406c" d="M 5.5,95.5 C 4.40168,94.3991 4.23502,93.0657 5,91.5C 5.49001,92.7932 5.65668,94.1266 5.5,95.5 Z"/></g>
<g><path style="opacity:0.016" fill="#0b257f" d="M 171.5,91.5 C 171.833,91.5 172.167,91.5 172.5,91.5C 172.5,92.5 172.5,93.5 172.5,94.5C 171.596,93.791 171.263,92.791 171.5,91.5 Z"/></g>
<g><path style="opacity:0.016" fill="#14245e" d="M 251.5,93.5 C 251.833,93.5 252.167,93.5 252.5,93.5C 252.737,94.791 252.404,95.791 251.5,96.5C 251.5,95.5 251.5,94.5 251.5,93.5 Z"/></g>
<g><path style="opacity:0.004" fill="#240fa2" d="M 3.5,96.5 C 4.61295,97.9464 4.77961,99.6131 4,101.5C 3.50649,99.8659 3.33982,98.1992 3.5,96.5 Z"/></g>
<g><path style="opacity:0.016" fill="#113b74" d="M 5.5,102.5 C 5.5,103.833 5.5,105.167 5.5,106.5C 4.16667,105.167 4.16667,103.833 5.5,102.5 Z"/></g>
<g><path style="opacity:0.012" fill="#0f5570" d="M 5.5,106.5 C 5.83333,106.5 6.16667,106.5 6.5,106.5C 6.5,107.167 6.5,107.833 6.5,108.5C 5.66175,108.158 5.32842,107.492 5.5,106.5 Z"/></g>
<g><path style="opacity:0.012" fill="#0054aa" d="M 243.5,107.5 C 243.833,107.5 244.167,107.5 244.5,107.5C 244.315,108.17 243.981,108.17 243.5,107.5 Z"/></g>
<g><path style="opacity:0.016" fill="#003e7f" d="M 242.5,108.5 C 242.833,108.5 243.167,108.5 243.5,108.5C 243.315,109.17 242.981,109.17 242.5,108.5 Z"/></g>
<g><path style="opacity:0.012" fill="#006262" d="M 6.5,108.5 C 6.83333,108.5 7.16667,108.5 7.5,108.5C 7.5,109.167 7.5,109.833 7.5,110.5C 6.66175,110.158 6.32842,109.492 6.5,108.5 Z"/></g>
<g><path style="opacity:0.004" fill="#152648" d="M 182.5,108.5 C 183.167,108.5 183.5,108.833 183.5,109.5C 183.44,110.043 183.107,110.376 182.5,110.5C 181.227,109.743 181.227,109.077 182.5,108.5 Z"/></g>
<g><path style="opacity:0.016" fill="#003e7f" d="M 241.5,109.5 C 241.833,109.5 242.167,109.5 242.5,109.5C 242.315,110.17 241.981,110.17 241.5,109.5 Z"/></g>
<g><path style="opacity:0.012" fill="#0054aa" d="M 240.5,110.5 C 240.833,110.5 241.167,110.5 241.5,110.5C 241.315,111.17 240.981,111.17 240.5,110.5 Z"/></g>
<g><path style="opacity:0.008" fill="#00007f" d="M 239.5,111.5 C 239.833,111.5 240.167,111.5 240.5,111.5C 240.315,112.17 239.981,112.17 239.5,111.5 Z"/></g>
<g><path style="opacity:0.004" fill="#0000d2" d="M 237.5,113.5 C 237.5,113.167 237.5,112.833 237.5,112.5C 238.167,112.5 238.833,112.5 239.5,112.5C 239.158,113.338 238.492,113.672 237.5,113.5 Z"/></g>
<g><path style="opacity:0.016" fill="#003e7f" d="M 236.5,113.5 C 236.833,113.5 237.167,113.5 237.5,113.5C 237.315,114.17 236.981,114.17 236.5,113.5 Z"/></g>
<g><path style="opacity:0.008" fill="#00007f" d="M 235.5,114.5 C 235.833,114.5 236.167,114.5 236.5,114.5C 236.315,115.17 235.981,115.17 235.5,114.5 Z"/></g>
<g><path style="opacity:0.008" fill="#1a1b6c" d="M 54.5,113.5 C 54.8333,113.5 55.1667,113.5 55.5,113.5C 55.6621,115.527 55.4955,117.527 55,119.5C 54.7645,117.881 53.9311,116.881 52.5,116.5C 52.5,116.167 52.5,115.833 52.5,115.5C 53.1667,115.5 53.5,115.167 53.5,114.5C 54.1667,114.5 54.5,114.167 54.5,113.5 Z"/></g>
<g><path style="opacity:0.016" fill="#003e7f" d="M 233.5,115.5 C 234.833,116.167 234.833,116.167 233.5,115.5 Z"/></g>
<g><path style="opacity:0.016" fill="#003e7f" d="M 51.5,116.5 C 51.8333,116.5 52.1667,116.5 52.5,116.5C 52.3147,117.17 51.9813,117.17 51.5,116.5 Z"/></g>
<g><path style="opacity:0.004" fill="#1731e2" d="M 231.5,117.5 C 231.5,117.167 231.5,116.833 231.5,116.5C 232.167,116.5 232.833,116.5 233.5,116.5C 233.158,117.338 232.492,117.672 231.5,117.5 Z"/></g>
<g><path style="opacity:0.008" fill="#00007f" d="M 14.5,117.5 C 13.8333,118.167 13.8333,118.167 14.5,117.5 Z"/></g>
<g><path style="opacity:0.012" fill="#0054aa" d="M 50.5,117.5 C 50.8333,117.5 51.1667,117.5 51.5,117.5C 51.3147,118.17 50.9813,118.17 50.5,117.5 Z"/></g>
<g><path style="opacity:0.004" fill="#1429d2" d="M 229.5,118.5 C 229.5,118.167 229.5,117.833 229.5,117.5C 230.167,117.5 230.833,117.5 231.5,117.5C 231.158,118.338 230.492,118.672 229.5,118.5 Z"/></g>
<g><path style="opacity:0.004" fill="#0000d2" d="M 48.5,119.5 C 48.5,119.167 48.5,118.833 48.5,118.5C 49.1667,118.5 49.8333,118.5 50.5,118.5C 50.1583,119.338 49.4916,119.672 48.5,119.5 Z"/></g>
<g><path style="opacity:0.012" fill="#153f7c" d="M 226.5,119.5 C 226.5,119.167 226.5,118.833 226.5,118.5C 227.5,118.5 228.5,118.5 229.5,118.5C 228.791,119.404 227.791,119.737 226.5,119.5 Z"/></g>
<g><path style="opacity:0.012" fill="#005554" d="M 48.5,119.5 C 47.8333,120.167 47.8333,120.167 48.5,119.5 Z"/></g>
<g><path style="opacity:0.004" fill="#0000ff" d="M 156.5,119.5 C 155.833,120.167 155.833,120.167 156.5,119.5 Z"/></g>
<g><path style="opacity:0.016" fill="#0a3789" d="M 201.5,119.5 C 201.5,119.833 201.5,120.167 201.5,120.5C 197.5,120.167 197.5,119.833 201.5,119.5 Z"/></g>
<g><path style="opacity:0.016" fill="#1a3384" d="M 222.5,120.5 C 222.5,120.167 222.5,119.833 222.5,119.5C 223.833,119.5 225.167,119.5 226.5,119.5C 225.432,120.434 224.099,120.768 222.5,120.5 Z"/></g>
<g><path style="opacity:0.012" fill="#0e3c9b" d="M 44.5,121.5 C 44.5,121.167 44.5,120.833 44.5,120.5C 47.1667,120.833 47.1667,121.167 44.5,121.5 Z"/></g>
<g><path style="opacity:0.016" fill="#102d7a" d="M 201.5,120.5 C 203.527,120.338 205.527,120.505 207.5,121C 205.288,121.789 203.288,121.622 201.5,120.5 Z"/></g>
<g><path style="opacity:0.016" fill="#1141a9" d="M 216.5,121.5 C 216.5,121.167 216.5,120.833 216.5,120.5C 218.5,120.5 220.5,120.5 222.5,120.5C 220.735,121.461 218.735,121.795 216.5,121.5 Z"/></g>
<g><path style="opacity:0.016" fill="#1d4092" d="M 23.5,121.5 C 23.5,121.833 23.5,122.167 23.5,122.5C 19.5,122.167 19.5,121.833 23.5,121.5 Z"/></g>
<g><path style="opacity:0.016" fill="#0b257f" d="M 41.5,122.5 C 41.5,122.167 41.5,121.833 41.5,121.5C 42.5,121.5 43.5,121.5 44.5,121.5C 43.791,122.404 42.791,122.737 41.5,122.5 Z"/></g>
<g><path style="opacity:0.008" fill="#05017e" d="M 57.5,122.5 C 64.3209,121.345 71.3209,121.179 78.5,122C 71.5079,122.5 64.5079,122.666 57.5,122.5 Z"/></g>
<g><path style="opacity:0.008" fill="#040179" d="M 84.5,122.5 C 91.9887,121.344 99.6554,121.178 107.5,122C 99.8406,122.5 92.1739,122.666 84.5,122.5 Z"/></g>
<g><path style="opacity:0.008" fill="#000089" d="M 113.5,122.5 C 120.989,121.344 128.655,121.178 136.5,122C 128.841,122.5 121.174,122.666 113.5,122.5 Z"/></g>
<g><path style="opacity:0.008" fill="#00007f" d="M 157.5,122.5 C 166.324,121.343 175.324,121.176 184.5,122C 175.506,122.5 166.506,122.666 157.5,122.5 Z"/></g>
<g><path style="opacity:0.004" fill="#240fa7" d="M 216.5,121.5 C 214.034,122.634 211.367,122.801 208.5,122C 211.146,121.503 213.813,121.336 216.5,121.5 Z"/></g>
<g><path style="opacity:0.016" fill="#163882" d="M 23.5,122.5 C 25.1992,122.34 26.8659,122.506 28.5,123C 26.6131,123.78 24.9464,123.613 23.5,122.5 Z"/></g>
<g><path style="opacity:0.016" fill="#0f369a" d="M 41.5,122.5 C 40.0536,123.613 38.3869,123.78 36.5,123C 38.1341,122.506 39.8008,122.34 41.5,122.5 Z"/></g>
<g><path style="opacity:0.004" fill="#230faf" d="M 29.5,124.5 C 31.2884,123.378 33.2884,123.211 35.5,124C 33.5273,124.495 31.5273,124.662 29.5,124.5 Z"/></g>
</svg>
