<?xml version="1.0" encoding="iso-8859-1"?>
<!-- Uploaded to: SVG Repo, www.svgrepo.com, Generator: SVG Repo Mixer Tools -->
<!DOCTYPE svg PUBLIC "-//W3C//DTD SVG 1.1//EN" "http://www.w3.org/Graphics/SVG/1.1/DTD/svg11.dtd">
<svg fill="#000000" height="800px" width="800px" version="1.1" id="Capa_1" xmlns="http://www.w3.org/2000/svg" xmlns:xlink="http://www.w3.org/1999/xlink" 
	 viewBox="0 0 297 297" xml:space="preserve">
<g>
	<path d="M287.116,24.462h-32.616c-2.863,0-5.585,1.241-7.462,3.402L217.472,61.9l-2.145-12.872
		c-0.794-4.766-4.918-8.259-9.749-8.259h-65.231c-4.832,0-8.955,3.493-9.749,8.259l-4.059,24.357H83.928
		c-28.294,0-51.312,23.019-51.312,51.312v46.535h-0.247C14.52,171.232,0,185.752,0,203.601v26.438c0,5.458,4.425,9.884,9.884,9.884
		h260.925c5.458,0,9.884-4.425,9.884-9.884v-26.438c0-17.848-14.52-32.369-32.369-32.369h-32.863v-12.849h6.424
		c2.905,0,5.664-1.278,7.541-3.495c1.878-2.217,2.686-5.147,2.208-8.013l-9.947-59.685l37.32-42.961h28.109
		c5.458,0,9.884-4.425,9.884-9.884S292.575,24.462,287.116,24.462z M197.204,60.537l13.014,78.08h-74.513l13.014-78.08H197.204z
		 M260.925,203.601v16.555H19.767v-16.555c0-6.948,5.653-12.602,12.601-12.602h215.955
		C255.272,190.999,260.925,196.652,260.925,203.601z M195.694,171.232H52.383v-46.535c0-17.394,14.152-31.545,31.545-31.545h39.315
		l-8.954,53.723c-0.478,2.866,0.33,5.796,2.208,8.013c1.877,2.217,4.636,3.495,7.541,3.495h71.656V171.232z"/>
	<path d="M270.809,252.771H9.884c-5.458,0-9.884,4.425-9.884,9.884c0,5.458,4.425,9.884,9.884,9.884h260.925
		c5.458,0,9.884-4.425,9.884-9.884C280.692,257.197,276.267,252.771,270.809,252.771z"/>
</g>
</svg>