<svg width="218" height="32" viewBox="0 0 218 32" fill="none" xmlns="http://www.w3.org/2000/svg">
<path d="M12.094 25.8524C10.3708 25.8524 8.7647 25.572 7.27555 25.0111C5.80768 24.4287 4.53126 23.609 3.44631 22.5521C2.36136 21.4951 1.51042 20.2548 0.893489 18.8311C0.29783 17.4075 0 15.8436 0 14.1395C0 12.4355 0.29783 10.8716 0.893489 9.44793C1.51042 8.02427 2.36136 6.78396 3.44631 5.727C4.55254 4.67004 5.83959 3.86114 7.30746 3.3003C8.77533 2.7179 10.3815 2.4267 12.1259 2.4267C14.0618 2.4267 15.8062 2.77183 17.3592 3.46208C18.9334 4.13077 20.2524 5.12302 21.3161 6.43883L17.9974 9.545C17.2316 8.6606 16.3806 8.0027 15.4446 7.57129C14.5086 7.1183 13.4874 6.89181 12.3812 6.89181C11.3388 6.89181 10.3815 7.06438 9.50927 7.40951C8.63706 7.75463 7.88185 8.25076 7.24364 8.89788C6.60543 9.545 6.10551 10.3108 5.74386 11.1951C5.40348 12.0795 5.23329 13.061 5.23329 14.1395C5.23329 15.2181 5.40348 16.1995 5.74386 17.0839C6.10551 17.9683 6.60543 18.7341 7.24364 19.3812C7.88185 20.0283 8.63706 20.5244 9.50927 20.8696C10.3815 21.2147 11.3388 21.3873 12.3812 21.3873C13.4874 21.3873 14.5086 21.1716 15.4446 20.7401C16.3806 20.2872 17.2316 19.6077 17.9974 18.7017L21.3161 21.8079C20.2524 23.1237 18.9334 24.1267 17.3592 24.817C15.8062 25.5072 14.0512 25.8524 12.094 25.8524Z" fill="#333333"/>
<path d="M24.456 25.4641V1.45602H29.434V25.4641H24.456Z" fill="#333333"/>
<path d="M34.054 25.4641V8.05662H39.032V25.4641H34.054ZM36.543 5.62993C35.6283 5.62993 34.8837 5.3603 34.3093 4.82103C33.7349 4.28177 33.4477 3.61308 33.4477 2.81497C33.4477 2.01685 33.7349 1.34816 34.3093 0.808899C34.8837 0.269633 35.6283 0 36.543 0C37.4578 0 38.2024 0.258848 38.7768 0.776544C39.3511 1.27267 39.6383 1.91979 39.6383 2.7179C39.6383 3.55915 39.3511 4.2602 38.7768 4.82103C38.2236 5.3603 37.4791 5.62993 36.543 5.62993Z" fill="#333333"/>
<path d="M52.1721 25.723C50.2149 25.723 48.4918 25.3347 47.0026 24.5581C45.5348 23.7816 44.3966 22.7246 43.5882 21.3873C42.7798 20.0283 42.3756 18.486 42.3756 16.7604C42.3756 15.0131 42.7692 13.4708 43.5563 12.1335C44.3647 10.7745 45.4603 9.71756 46.8431 8.96259C48.2259 8.18605 49.7895 7.79778 51.5339 7.79778C53.2145 7.79778 54.7249 8.16448 56.0652 8.89788C57.4267 9.60971 58.501 10.6451 59.2881 12.004C60.0752 13.3414 60.4688 14.9484 60.4688 16.8251C60.4688 17.0192 60.4581 17.2457 60.4369 17.5046C60.4156 17.7418 60.3943 17.9683 60.3731 18.184H46.4282V15.2396H57.7564L55.8418 16.1132C55.8418 15.2073 55.661 14.42 55.2993 13.7513C54.9377 13.0826 54.4377 12.5649 53.7995 12.1982C53.1613 11.8099 52.4168 11.6158 51.5658 11.6158C50.7149 11.6158 49.9597 11.8099 49.3002 12.1982C48.662 12.5649 48.162 13.0934 47.8004 13.7836C47.4387 14.4523 47.2579 15.2504 47.2579 16.178V16.9545C47.2579 17.9036 47.46 18.7449 47.8642 19.4783C48.2897 20.1901 48.8747 20.7401 49.6193 21.1284C50.3851 21.4951 51.2786 21.6785 52.2997 21.6785C53.2145 21.6785 54.0123 21.5383 54.693 21.2578C55.395 20.9774 56.0333 20.5568 56.6076 19.996L59.2562 22.908C58.4691 23.814 57.4799 24.515 56.2885 25.0111C55.0972 25.4857 53.7251 25.723 52.1721 25.723Z" fill="#333333"/>
<path d="M74.2176 7.79778C75.5791 7.79778 76.7917 8.07819 77.8554 8.63903C78.9404 9.1783 79.7913 10.0195 80.4082 11.1628C81.0252 12.2845 81.3336 13.7297 81.3336 15.4985V25.4641H76.3556V16.275C76.3556 14.8729 76.0472 13.8375 75.4302 13.1689C74.8346 12.5002 73.9836 12.1658 72.8774 12.1658C72.0903 12.1658 71.3776 12.3384 70.7394 12.6835C70.1225 13.0071 69.6332 13.514 69.2715 14.2042C68.9312 14.8945 68.761 15.7789 68.761 16.8574V25.4641H63.783V8.05662H68.5376V12.8777L67.6441 11.4216C68.2611 10.2568 69.1439 9.36165 70.2927 8.7361C71.4414 8.11055 72.7498 7.79778 74.2176 7.79778Z" fill="#333333"/>
<path d="M92.8662 25.723C90.8452 25.723 89.271 25.2053 88.1435 24.1699C87.016 23.1129 86.4523 21.549 86.4523 19.4783V4.20627H91.4303V19.4135C91.4303 20.1469 91.6217 20.7186 92.0046 21.1284C92.3876 21.5167 92.9088 21.7108 93.5683 21.7108C94.3554 21.7108 95.0255 21.4951 95.5786 21.0637L96.9188 24.6229C96.4083 24.9896 95.7913 25.27 95.068 25.4641C94.366 25.6367 93.6321 25.723 92.8662 25.723ZM83.8037 12.3276V8.44489H95.7062V12.3276H83.8037Z" fill="#333333"/>
<path d="M107.404 25.8524C105.617 25.8524 103.904 25.6151 102.266 25.1406C100.628 24.6444 99.3089 24.0081 98.3091 23.2316L100.064 19.2841C101.021 19.9744 102.149 20.546 103.447 20.999C104.766 21.4304 106.095 21.6461 107.435 21.6461C108.457 21.6461 109.276 21.549 109.893 21.3549C110.531 21.1392 110.999 20.848 111.297 20.4813C111.594 20.1146 111.743 19.694 111.743 19.2194C111.743 18.6154 111.509 18.1409 111.041 17.7958C110.573 17.4291 109.956 17.1379 109.19 16.9221C108.425 16.6849 107.574 16.4692 106.638 16.275C105.723 16.0593 104.798 15.8005 103.861 15.4985C102.947 15.1965 102.106 14.8082 101.341 14.3337C100.575 13.8591 99.9471 13.2336 99.4579 12.457C98.9898 11.6805 98.7558 10.6882 98.7558 9.48029C98.7558 8.18605 99.0962 7.01045 99.777 5.95349C100.479 4.87496 101.521 4.02292 102.904 3.39737C104.308 2.75026 106.063 2.4267 108.169 2.4267C109.573 2.4267 110.956 2.59926 112.318 2.94439C113.679 3.26795 114.881 3.76407 115.924 4.43276L114.328 8.41254C113.286 7.80856 112.243 7.36637 111.201 7.08595C110.158 6.78396 109.137 6.63297 108.137 6.63297C107.138 6.63297 106.319 6.7516 105.68 6.98888C105.042 7.22616 104.585 7.53893 104.308 7.9272C104.032 8.2939 103.893 8.72531 103.893 9.22144C103.893 9.80384 104.127 10.2784 104.595 10.6451C105.063 10.9902 105.68 11.2706 106.446 11.4864C107.212 11.7021 108.052 11.9178 108.967 12.1335C109.903 12.3492 110.829 12.5972 111.743 12.8777C112.679 13.1581 113.53 13.5356 114.296 14.0101C115.062 14.4847 115.679 15.1102 116.147 15.8868C116.636 16.6633 116.881 17.6448 116.881 18.8311C116.881 20.1038 116.53 21.2686 115.828 22.3256C115.126 23.3825 114.073 24.2346 112.669 24.8817C111.286 25.5288 109.531 25.8524 107.404 25.8524Z" fill="#2382A0"/>
<path d="M121.92 32C121.027 32 120.144 31.8598 119.272 31.5794C118.4 31.299 117.687 30.9107 117.134 30.4146L118.953 26.8231C119.336 27.1682 119.772 27.4378 120.261 27.632C120.772 27.8261 121.272 27.9232 121.761 27.9232C122.463 27.9232 123.016 27.7506 123.42 27.4055C123.846 27.0819 124.229 26.5319 124.569 25.7553L125.463 23.6198L125.845 23.0698L132.004 8.05663H136.791L129.036 26.5319C128.483 27.9339 127.845 29.034 127.122 29.8322C126.42 30.6303 125.633 31.1911 124.76 31.5147C123.91 31.8382 122.963 32 121.92 32ZM124.856 26.1436L117.198 8.05663H122.335L128.271 22.6168L124.856 26.1436Z" fill="#2382A0"/>
<path d="M144.348 25.723C142.881 25.723 141.466 25.5504 140.104 25.2053C138.764 24.8386 137.7 24.3856 136.913 23.8463L138.573 20.2225C139.36 20.7186 140.285 21.1284 141.349 21.452C142.434 21.754 143.497 21.905 144.54 21.905C145.689 21.905 146.497 21.7647 146.965 21.4843C147.454 21.2039 147.699 20.8156 147.699 20.3195C147.699 19.9097 147.508 19.6077 147.125 19.4136C146.763 19.1978 146.274 19.0361 145.657 18.9282C145.04 18.8204 144.359 18.7125 143.614 18.6047C142.891 18.4968 142.157 18.3566 141.413 18.184C140.668 17.9899 139.987 17.7095 139.37 17.3428C138.753 16.9761 138.254 16.4799 137.871 15.8544C137.509 15.2289 137.328 14.42 137.328 13.4277C137.328 12.3276 137.637 11.3569 138.254 10.5157C138.892 9.67442 139.807 9.01652 140.998 8.54197C142.189 8.04584 143.614 7.79778 145.274 7.79778C146.444 7.79778 147.635 7.9272 148.848 8.18605C150.06 8.4449 151.071 8.82238 151.879 9.31851L150.22 12.91C149.39 12.4139 148.55 12.0795 147.699 11.907C146.869 11.7128 146.061 11.6158 145.274 11.6158C144.168 11.6158 143.359 11.7668 142.849 12.0688C142.338 12.3707 142.083 12.759 142.083 13.2336C142.083 13.665 142.264 13.9885 142.625 14.2043C143.008 14.42 143.508 14.5925 144.125 14.7219C144.742 14.8514 145.412 14.97 146.135 15.0779C146.88 15.1641 147.625 15.3044 148.369 15.4985C149.114 15.6926 149.784 15.973 150.379 16.3397C150.996 16.6849 151.496 17.1702 151.879 17.7958C152.262 18.3997 152.454 19.1978 152.454 20.1901C152.454 21.2686 152.135 22.2285 151.496 23.0698C150.858 23.8895 149.933 24.5366 148.72 25.0111C147.529 25.4857 146.072 25.723 144.348 25.723Z" fill="#2382A0"/>
<path d="M162.545 25.723C160.524 25.723 158.95 25.2053 157.823 24.1699C156.695 23.1129 156.131 21.549 156.131 19.4783V4.20627H161.109V19.4136C161.109 20.147 161.301 20.7186 161.684 21.1284C162.067 21.5167 162.588 21.7108 163.247 21.7108C164.034 21.7108 164.705 21.4951 165.258 21.0637L166.598 24.6229C166.087 24.9896 165.47 25.27 164.747 25.4641C164.045 25.6367 163.311 25.723 162.545 25.723ZM153.483 12.3276V8.4449H165.385V12.3276H153.483Z" fill="#2382A0"/>
<path d="M177.383 25.723C175.425 25.723 173.702 25.3347 172.213 24.5581C170.745 23.7816 169.607 22.7246 168.799 21.3873C167.99 20.0283 167.586 18.486 167.586 16.7604C167.586 15.0131 167.98 13.4708 168.767 12.1335C169.575 10.7745 170.671 9.71756 172.054 8.96259C173.436 8.18605 175 7.79778 176.744 7.79778C178.425 7.79778 179.935 8.16448 181.276 8.89788C182.637 9.60971 183.711 10.6451 184.499 12.004C185.286 13.3414 185.679 14.9484 185.679 16.8251C185.679 17.0192 185.669 17.2457 185.647 17.5046C185.626 17.7418 185.605 17.9683 185.584 18.184H171.639V15.2396H182.967L181.052 16.1132C181.052 15.2073 180.871 14.42 180.51 13.7513C180.148 13.0826 179.648 12.5649 179.01 12.1982C178.372 11.8099 177.627 11.6158 176.776 11.6158C175.925 11.6158 175.17 11.8099 174.511 12.1982C173.872 12.5649 173.373 13.0934 173.011 13.7836C172.649 14.4523 172.468 15.2504 172.468 16.178V16.9545C172.468 17.9036 172.67 18.7449 173.075 19.4783C173.5 20.1901 174.085 20.7401 174.83 21.1284C175.596 21.4951 176.489 21.6785 177.51 21.6785C178.425 21.6785 179.223 21.5383 179.903 21.2578C180.606 20.9774 181.244 20.5568 181.818 19.996L184.467 22.908C183.68 23.814 182.69 24.515 181.499 25.0111C180.308 25.4857 178.936 25.723 177.383 25.723Z" fill="#2382A0"/>
<path d="M210.98 7.79778C212.341 7.79778 213.543 8.0782 214.586 8.63903C215.649 9.1783 216.479 10.0196 217.075 11.1628C217.691 12.2845 218 13.7297 218 15.4985V25.4641H213.022V16.275C213.022 14.8729 212.735 13.8376 212.16 13.1689C211.586 12.5002 210.778 12.1658 209.735 12.1658C209.012 12.1658 208.363 12.3384 207.789 12.6835C207.214 13.0071 206.767 13.5032 206.448 14.1719C206.129 14.8406 205.97 15.6926 205.97 16.728V25.4641H200.992V16.275C200.992 14.8729 200.705 13.8376 200.13 13.1689C199.577 12.5002 198.779 12.1658 197.737 12.1658C197.014 12.1658 196.365 12.3384 195.79 12.6835C195.216 13.0071 194.769 13.5032 194.45 14.1719C194.131 14.8406 193.971 15.6926 193.971 16.728V25.4641H188.993V8.05663H193.748V12.8129L192.855 11.4216C193.45 10.2353 194.291 9.34008 195.375 8.7361C196.482 8.11055 197.737 7.79778 199.141 7.79778C200.715 7.79778 202.087 8.20762 203.257 9.0273C204.449 9.82542 205.236 11.0549 205.619 12.7159L203.864 12.2305C204.438 10.8716 205.353 9.79306 206.608 8.99495C207.884 8.19684 209.342 7.79778 210.98 7.79778Z" fill="#2382A0"/>
</svg>
