<svg width="24" height="24" viewBox="0 0 24 24" fill="none" xmlns="http://www.w3.org/2000/svg">
<path d="M7.63001 3.56993C7.80939 3.47209 8.00001 3.62261 8.00001 3.82695V17.3828C8.00001 17.606 7.84759 17.7948 7.65021 17.8991C7.64344 17.9027 7.6367 17.9063 7.63001 17.9099L5.28001 19.2499C3.64001 20.1899 2.29001 19.4099 2.29001 17.5099V7.77993C2.29001 7.14993 2.74001 6.36993 3.30001 6.04993L7.63001 3.56993Z" fill="#2382A0"/>
<path d="M14.7219 6.10217C14.8922 6.18652 15 6.36016 15 6.55023V19.7034C15 20.0719 14.615 20.3138 14.283 20.1538L10.033 18.1062C9.85998 18.0229 9.75 17.8478 9.75 17.6558V4.44547C9.75 4.07461 10.1396 3.83282 10.4719 3.9974L14.7219 6.10217Z" fill="#2382A0"/>
<path d="M22 6.49006V16.2201C22 16.8501 21.55 17.6301 20.99 17.9501L17.4986 19.951C17.1653 20.1421 16.75 19.9014 16.75 19.5172V6.33038C16.75 6.15087 16.8462 5.98513 17.0021 5.89615L19.01 4.75006C20.65 3.81006 22 4.59006 22 6.49006Z" fill="#2382A0"/>
</svg>
