<?xml version="1.0" standalone="no"?>
<!DOCTYPE svg PUBLIC "-//W3C//DTD SVG 20010904//EN"
 "http://www.w3.org/TR/2001/REC-SVG-20010904/DTD/svg10.dtd">
<svg version="1.0" xmlns="http://www.w3.org/2000/svg"
 width="1536.000000pt" height="1536.000000pt" viewBox="0 0 1536.000000 1536.000000"
 preserveAspectRatio="xMidYMid meet">

<g transform="translate(0.000000,1536.000000) scale(0.100000,-0.100000)"
fill="#000000" stroke="none">
<path d="M6334 12799 c-3 -6 -6 -94 -5 -195 l2 -183 -78 -3 -78 -3 -5 -33 c-3
-22 -13 -38 -28 -46 l-24 -13 2 -311 1 -312 -208 0 c-114 0 -319 -3 -455 -7
l-247 -6 6 21 c3 12 2 60 -2 107 l-7 85 -33 0 c-64 0 -65 -2 -65 -111 l0 -99
-62 -1 c-35 0 -172 -4 -305 -8 l-243 -7 -37 -30 c-78 -64 -78 -62 -78 -282 0
-189 1 -199 23 -235 13 -20 43 -49 67 -63 40 -23 54 -25 151 -25 l107 1 -7
-478 c-4 -262 -11 -702 -16 -977 l-8 -500 -24 -15 c-39 -26 -67 -61 -78 -99
-6 -22 -10 -225 -10 -514 l0 -477 1278 3 c1439 3 1306 -4 1492 83 164 78 293
188 481 415 161 192 209 235 326 290 216 102 403 149 670 170 324 25 664 -33
978 -167 473 -203 912 -587 1180 -1034 119 -198 212 -406 271 -611 18 -64 36
-123 39 -131 4 -11 -9 -20 -52 -35 -32 -11 -65 -23 -73 -26 -12 -5 -26 25 -68
145 -75 213 -219 494 -340 663 -73 101 -214 265 -293 339 -386 363 -806 558
-1324 616 -294 33 -635 -21 -870 -137 -76 -38 -245 -143 -245 -153 0 -3 51
-21 113 -39 204 -60 342 -119 503 -214 306 -182 574 -437 770 -733 274 -413
404 -857 404 -1379 0 -518 -127 -1025 -377 -1505 -344 -658 -940 -1298 -1562
-1676 -35 -21 -58 -40 -51 -42 32 -11 261 72 485 176 293 136 543 286 819 491
666 494 1143 1188 1316 1916 58 242 74 384 74 670 0 277 -10 382 -60 613 -98
458 -311 902 -603 1259 -48 59 -119 137 -156 172 -38 35 -64 62 -58 60 15 -6
109 -87 244 -212 468 -429 772 -1052 838 -1717 20 -208 23 -298 12 -455 -57
-811 -358 -1487 -921 -2069 -191 -197 -513 -447 -696 -539 -30 -15 -60 -40
-72 -59 -45 -70 -185 -239 -284 -342 -37 -39 -65 -72 -63 -75 15 -14 410 116
615 203 243 103 514 257 720 409 300 222 496 414 712 697 361 475 611 1098
673 1678 l7 62 272 0 273 0 24 26 c24 25 24 28 29 282 l5 257 65 5 c59 5 65 7
74 31 22 63 -21 106 -90 93 l-34 -6 0 395 0 395 43 22 c100 52 123 106 65 155
-25 21 -38 25 -64 20 -36 -6 -30 -18 -65 119 -7 24 -17 40 -30 43 -10 3 -22
17 -25 32 -3 14 -10 42 -15 61 -13 53 -11 70 9 70 16 0 62 33 62 45 0 2 -4 15
-10 30 -12 31 -46 46 -79 33 -13 -5 -25 -7 -27 -5 -2 2 -35 102 -74 223 -39
120 -78 229 -86 241 -18 29 -115 78 -272 137 -195 74 -220 77 -590 75 -306 -1
-324 -1 -336 17 -8 11 -41 41 -75 68 -34 27 -60 53 -59 58 2 4 63 68 137 142
122 123 136 134 158 125 80 -30 202 7 266 82 48 56 63 108 49 174 -9 46 -8 52
13 75 55 61 258 402 334 560 127 268 175 462 175 710 0 85 -6 184 -12 220 -22
116 -82 284 -135 381 -54 97 -181 269 -199 269 -6 0 -8 -6 -5 -12 94 -215 127
-404 107 -620 -19 -206 -59 -349 -167 -593 -58 -131 -71 -155 -90 -155 -15 0
-63 -48 -170 -171 -251 -291 -293 -341 -293 -354 0 -8 -18 -16 -42 -20 -31 -6
-53 -19 -89 -55 -54 -54 -73 -106 -63 -169 6 -38 5 -41 -57 -99 -41 -38 -66
-56 -70 -49 -4 7 -39 118 -79 247 -40 129 -81 256 -92 281 l-19 46 36 57 c46
72 62 145 46 204 -14 49 -84 127 -124 137 -14 4 -31 20 -41 41 -31 66 -483
762 -597 921 -35 48 -59 91 -59 107 0 58 -42 140 -104 202 -94 93 -208 119
-329 74 -56 -21 -153 -100 -176 -144 l-14 -26 -139 0 -138 0 0 369 0 369 36
49 c20 26 50 62 66 79 l29 31 -53 61 c-29 33 -57 61 -62 61 -4 1 -44 -31 -87
-69 -51 -47 -87 -89 -103 -122 l-26 -52 0 -388 0 -388 -65 0 c-82 0 -135 -25
-159 -74 -23 -49 -23 -303 0 -352 24 -51 74 -77 145 -77 48 1 61 -3 70 -18 8
-16 22 -19 100 -19 l90 0 6 30 c3 17 14 35 24 40 10 6 84 10 166 10 l149 0 52
-157 c104 -318 191 -592 237 -748 25 -88 55 -184 65 -213 18 -52 18 -55 -1
-95 -22 -50 -25 -134 -5 -180 19 -47 97 -114 147 -127 58 -16 124 -7 161 20
16 12 33 18 37 14 4 -5 34 -43 66 -84 33 -41 77 -94 98 -118 21 -24 37 -45 35
-47 -2 -2 -37 6 -78 19 -102 33 -303 73 -430 87 -159 18 -452 6 -625 -25 -131
-24 -161 -26 -477 -26 l-338 0 0 1195 c0 1164 -1 1197 -19 1234 -22 42 -79 97
-120 113 -25 10 -435 26 -714 27 l-128 1 2 309 c1 170 -1 314 -5 320 -4 6 -18
11 -31 11 -28 0 -39 14 -39 50 -1 24 -4 25 -73 28 l-73 3 0 184 c0 172 -1 185
-19 195 -26 14 -158 13 -167 -1z m-186 -1746 c-10 -2 -26 -2 -35 0 -10 3 -2 5
17 5 19 0 27 -2 18 -5z m-958 -53 c-6 -12 -14 -20 -17 -17 -2 3 1 14 8 26 17
26 24 19 9 -9z m-23 -62 c-3 -7 -5 -2 -5 12 0 14 2 19 5 13 2 -7 2 -19 0 -25z
m1880 -20 c27 -25 29 -40 7 -73 -14 -22 -16 -57 -11 -293 4 -231 8 -277 26
-344 19 -69 21 -100 19 -265 l-3 -188 -201 -3 -200 -2 -13 142 c-6 79 -21 230
-31 337 -11 107 -20 218 -20 245 -1 85 -53 169 -123 195 -17 7 -126 11 -278
11 -273 0 -287 -2 -352 -59 -48 -43 -64 -91 -82 -256 -15 -138 -53 -386 -61
-394 -2 -2 -82 -3 -179 -2 -96 1 -176 1 -177 -1 -1 -2 -4 -120 -7 -263 l-6
-260 -108 -3 -108 -3 6 593 c7 708 7 707 45 762 31 46 104 118 135 134 14 7
285 11 860 11 l840 0 22 -21z m160 -170 c-2 -24 -4 -7 -4 37 0 44 2 63 4 43 2
-21 2 -57 0 -80z m-3 -293 c4 -143 2 -204 -5 -192 -5 9 -16 17 -23 17 -8 0
-17 8 -21 18 -11 29 -28 297 -21 336 6 34 10 37 36 34 l30 -3 4 -210z m2260
-193 c59 -84 134 -196 167 -248 l60 -95 -64 -72 c-36 -40 -81 -90 -101 -112
l-36 -39 -42 15 c-39 14 -43 20 -51 60 -16 84 -200 829 -213 864 -9 25 137
-170 280 -373z m-2257 -324 c-1 -57 -3 -11 -3 102 0 113 2 159 3 103 2 -57 2
-149 0 -205z m-1614 -38 c42 0 77 -4 77 -10 0 -5 -19 -33 -43 -62 -39 -48
-124 -107 -154 -108 -10 0 -13 24 -13 88 0 49 3 92 7 96 4 4 17 5 28 2 11 -3
55 -6 98 -6z m1614 -217 c-2 -27 -3 -5 -3 47 0 52 1 74 3 48 2 -27 2 -69 0
-95z m0 -145 c-3 -8 -6 -5 -6 6 -1 11 2 17 5 13 3 -3 4 -12 1 -19z m0 -180
c-2 -13 -4 -3 -4 22 0 25 2 35 4 23 2 -13 2 -33 0 -45z m-17 -151 c0 -2 -10
-12 -22 -23 l-23 -19 19 23 c18 21 26 27 26 19z"/>
<path d="M7855 8128 c-129 -127 -329 -249 -485 -297 -170 -53 -130 -51 -1315
-51 -725 0 -1106 -3 -1110 -10 -3 -5 -15 -10 -26 -10 -25 0 -274 -128 -399
-206 -502 -310 -934 -838 -1163 -1419 -128 -327 -176 -564 -184 -917 -6 -256
2 -349 53 -590 67 -318 251 -727 441 -980 265 -353 613 -646 966 -813 125 -59
283 -117 306 -113 9 2 -21 32 -74 73 -121 93 -441 415 -544 545 -187 235 -363
535 -466 790 -55 136 -106 312 -136 470 -24 125 -31 140 -63 140 -44 0 -47 9
-31 115 52 351 177 667 361 911 81 108 154 185 213 225 45 30 53 41 71 99 26
79 111 243 181 348 379 563 993 923 1659 973 430 32 904 -93 1265 -334 132
-89 226 -167 355 -296 276 -277 438 -571 524 -946 38 -167 50 -290 43 -470
-13 -373 -146 -803 -369 -1188 -22 -37 -38 -72 -36 -78 4 -13 317 146 411 209
495 336 835 908 898 1512 14 138 7 427 -15 563 -66 417 -251 828 -522 1163
-82 102 -265 285 -364 366 -104 84 -375 270 -389 267 -3 -1 -28 -24 -56 -51z"/>
<path d="M6100 7283 c-280 -21 -615 -122 -845 -254 -464 -266 -774 -652 -957
-1189 -137 -405 -124 -939 34 -1414 178 -533 509 -1012 958 -1387 117 -97 279
-213 288 -205 5 6 -29 57 -72 106 -112 131 -297 481 -370 700 -74 222 -114
462 -102 617 8 104 33 237 46 241 18 6 11 34 -20 82 -122 190 -200 463 -200
700 0 403 149 748 443 1026 264 250 574 376 922 378 270 0 518 -76 755 -235
106 -71 256 -215 325 -312 l48 -68 -49 -51 c-27 -27 -75 -72 -106 -99 l-57
-50 -87 25 c-48 14 -88 27 -88 28 -1 2 -14 42 -29 91 -18 54 -33 87 -42 87
-24 0 -174 -50 -180 -61 -4 -5 1 -41 10 -81 9 -39 15 -72 13 -73 -2 -1 -29
-19 -61 -40 l-59 -37 -23 22 c-13 12 -31 20 -41 18 -25 -5 -67 -69 -54 -82 25
-25 -5 -116 -39 -116 -22 0 -28 -20 -37 -112 l-7 -66 32 -16 c26 -14 31 -22
31 -53 0 -20 -8 -45 -17 -55 -17 -18 -16 -22 17 -84 19 -35 40 -64 47 -64 6 0
24 11 40 24 l29 25 65 -45 c68 -48 67 -46 47 -122 -9 -35 -8 -46 3 -57 13 -12
179 -68 186 -62 1 2 15 38 30 82 l28 78 80 26 80 26 70 -65 c39 -36 91 -84
118 -108 26 -23 47 -46 47 -51 0 -16 -128 -165 -184 -213 -182 -159 -411 -265
-658 -306 l-107 -18 69 -76 c82 -90 87 -85 -100 -94 -137 -7 -293 10 -429 47
-40 11 -76 18 -78 15 -9 -8 115 -86 233 -145 221 -112 382 -151 619 -151 342
0 630 115 879 351 305 289 478 667 502 1104 18 304 -86 682 -263 958 -138 216
-343 421 -562 562 -186 120 -477 230 -716 270 -162 28 -328 38 -455 28z"/>
<path d="M6967 2813 c-4 -4 -25 -6 -47 -5 -29 2 -40 -1 -40 -11 0 -19 83 -27
274 -27 98 0 169 5 201 14 l50 14 -42 1 c-24 1 -43 5 -43 10 0 11 -343 15
-353 4z"/>
</g>
</svg>
